<svg width="308" height="24" viewBox="0 0 308 24" fill="none" xmlns="http://www.w3.org/2000/svg">
<path d="M12 2C17.52 2 22 6.48 22 12C22 17.52 17.52 22 12 22C6.48 22 2 17.52 2 12C2 6.48 6.48 2 12 2ZM12 4C7.58 4 4 7.58 4 12C4 16.42 7.58 20 12 20C16.42 20 20 16.42 20 12C20 7.58 16.42 4 12 4ZM12 7C13.82 7 15.413 7.973 16.288 9.428L14.574 10.457C14.3043 10.0072 13.9213 9.63605 13.4634 9.38045C13.0055 9.12484 12.4885 8.99374 11.9641 9.00023C11.4397 9.00672 10.9262 9.15056 10.4747 9.41742C10.0232 9.68428 9.6496 10.0648 9.39107 10.5211C9.13254 10.9774 8.99815 11.4935 9.00128 12.0179C9.00442 12.5424 9.14498 13.0568 9.40895 13.51C9.67292 13.9632 10.0511 14.3392 10.5057 14.6007C10.9603 14.8621 11.4756 14.9998 12 15C12.5181 15.0003 13.0275 14.8664 13.4785 14.6112C13.9294 14.356 14.3065 13.9883 14.573 13.544L16.288 14.572C15.726 15.5106 14.8716 16.239 13.8559 16.6453C12.8402 17.0517 11.7192 17.1137 10.6649 16.8217C9.61058 16.5298 8.68114 15.9 8.01914 15.029C7.35713 14.1581 6.99912 13.094 7 12C7 9.24 9.24 7 12 7Z" fill="#7B7B7B"/>
<path d="M52.24 14.296C51.9093 15.2027 51.3653 15.9067 50.608 16.408C49.8507 16.9093 48.976 17.16 47.984 17.16C46.9813 17.16 46.112 16.9413 45.376 16.504C44.6507 16.056 44.0853 15.4267 43.68 14.616C43.2853 13.8053 43.088 12.84 43.088 11.72C43.088 10.6 43.2853 9.63467 43.68 8.824C44.0853 8.01333 44.6507 7.38933 45.376 6.952C46.112 6.504 46.9707 6.28 47.952 6.28C48.976 6.28 49.8293 6.49333 50.512 6.92C51.2053 7.336 51.7173 7.944 52.048 8.744L50.784 9.336C50.5493 8.728 50.208 8.26933 49.76 7.96C49.3227 7.64 48.752 7.48 48.048 7.48C47.3333 7.48 46.704 7.65067 46.16 7.992C45.616 8.32267 45.1893 8.80267 44.88 9.432C44.5813 10.0613 44.432 10.824 44.432 11.72C44.432 13.0427 44.7467 14.0827 45.376 14.84C46.016 15.5867 46.8853 15.96 47.984 15.96C48.688 15.96 49.3013 15.784 49.824 15.432C50.3467 15.0693 50.7253 14.5307 50.96 13.816L52.24 14.296ZM57.7688 8.84C58.5261 8.84 59.1928 9.00533 59.7688 9.336C60.3554 9.66667 60.8141 10.1467 61.1448 10.776C61.4754 11.3947 61.6408 12.136 61.6408 13C61.6408 13.864 61.4754 14.6107 61.1448 15.24C60.8141 15.8587 60.3554 16.3333 59.7688 16.664C59.1928 16.9947 58.5261 17.16 57.7688 17.16C57.0221 17.16 56.3554 16.9947 55.7688 16.664C55.1821 16.3333 54.7234 15.8587 54.3928 15.24C54.0621 14.6107 53.8968 13.864 53.8968 13C53.8968 12.136 54.0621 11.3947 54.3928 10.776C54.7234 10.1467 55.1821 9.66667 55.7688 9.336C56.3554 9.00533 57.0221 8.84 57.7688 8.84ZM57.7688 9.944C56.9581 9.944 56.3234 10.216 55.8648 10.76C55.4061 11.304 55.1768 12.0507 55.1768 13C55.1768 13.9493 55.4061 14.696 55.8648 15.24C56.3234 15.784 56.9581 16.056 57.7688 16.056C58.5794 16.056 59.2141 15.784 59.6728 15.24C60.1314 14.696 60.3608 13.9493 60.3608 13C60.3608 12.0507 60.1314 11.304 59.6728 10.76C59.2141 10.216 58.5794 9.944 57.7688 9.944ZM64.0505 20.36V9H65.1705L65.2505 10.408C65.4958 9.93867 65.8585 9.56 66.3385 9.272C66.8292 8.984 67.3892 8.84 68.0185 8.84C68.6692 8.84 69.2665 9.00533 69.8105 9.336C70.3652 9.66667 70.8078 10.1413 71.1385 10.76C71.4692 11.3787 71.6345 12.1253 71.6345 13C71.6345 13.864 71.4638 14.6107 71.1225 15.24C70.7918 15.8587 70.3492 16.3333 69.7945 16.664C69.2398 16.9947 68.6318 17.16 67.9705 17.16C67.3732 17.16 66.8452 17.032 66.3865 16.776C65.9278 16.5093 65.5758 16.168 65.3305 15.752V20.36H64.0505ZM67.8425 16.04C68.6318 16.04 69.2452 15.7627 69.6825 15.208C70.1305 14.6533 70.3545 13.9173 70.3545 13C70.3545 12.0827 70.1358 11.3467 69.6985 10.792C69.2718 10.2373 68.6692 9.96 67.8905 9.96C67.1225 9.96 66.5038 10.2373 66.0345 10.792C65.5652 11.3467 65.3305 12.0827 65.3305 13C65.3305 13.9173 65.5598 14.6533 66.0185 15.208C66.4772 15.7627 67.0852 16.04 67.8425 16.04ZM80.4234 9L76.6634 18.344C76.354 19.1227 76.002 19.6667 75.6074 19.976C75.2234 20.2853 74.7487 20.44 74.1834 20.44C73.8207 20.44 73.4847 20.3867 73.1754 20.28C72.8767 20.184 72.61 20.0507 72.3754 19.88L72.7274 18.76C72.9407 18.952 73.1647 19.0907 73.3994 19.176C73.6447 19.272 73.8847 19.32 74.1194 19.32C74.3967 19.32 74.658 19.2347 74.9034 19.064C75.1487 18.8933 75.3727 18.5467 75.5754 18.024L75.9914 16.984L75.1914 15.08L72.6474 9H74.1034L76.1034 14.216L76.5994 15.64L77.1754 14.056L79.0474 9H80.4234ZM82.0974 17V9H83.1374L83.3134 10.312C83.7614 9.33067 84.6147 8.84 85.8734 8.84C86.012 8.84 86.1614 8.85067 86.3214 8.872C86.492 8.89333 86.636 8.936 86.7534 9L86.5294 10.168C86.412 10.1253 86.284 10.0933 86.1454 10.072C86.0067 10.0507 85.8094 10.04 85.5534 10.04C85.2227 10.04 84.8867 10.136 84.5454 10.328C84.2147 10.52 83.9374 10.8133 83.7134 11.208C83.4894 11.592 83.3774 12.0827 83.3774 12.68V17H82.0974ZM89.2686 7.464C88.9806 7.464 88.746 7.37867 88.5646 7.208C88.394 7.02667 88.3086 6.792 88.3086 6.504C88.3086 6.216 88.394 5.98667 88.5646 5.816C88.746 5.63467 88.9806 5.544 89.2686 5.544C89.5566 5.544 89.786 5.63467 89.9566 5.816C90.138 5.98667 90.2286 6.216 90.2286 6.504C90.2286 6.792 90.138 7.02667 89.9566 7.208C89.786 7.37867 89.5566 7.464 89.2686 7.464ZM89.9086 9V17H88.6286V9H89.9086ZM97.1826 15.976C97.94 15.976 98.532 16.152 98.9586 16.504C99.3853 16.8453 99.5986 17.304 99.5986 17.88C99.5986 18.4027 99.4226 18.856 99.0706 19.24C98.7293 19.624 98.2653 19.9173 97.6786 20.12C97.1026 20.3333 96.452 20.44 95.7266 20.44C94.468 20.44 93.524 20.2267 92.8946 19.8C92.276 19.3733 91.9666 18.8613 91.9666 18.264C91.9666 17.9013 92.068 17.5707 92.2706 17.272C92.4733 16.9733 92.8093 16.76 93.2786 16.632C93.0226 16.5147 92.8146 16.3547 92.6546 16.152C92.4946 15.9387 92.4146 15.656 92.4146 15.304C92.4146 14.9733 92.5106 14.6747 92.7026 14.408C92.8946 14.1307 93.1826 13.9173 93.5666 13.768C93.1613 13.5333 92.852 13.224 92.6386 12.84C92.4253 12.456 92.3186 12.024 92.3186 11.544C92.3186 11.0107 92.4573 10.5413 92.7346 10.136C93.0226 9.73067 93.412 9.416 93.9026 9.192C94.3933 8.95733 94.9586 8.84 95.5986 8.84C96.2706 8.84 96.8733 8.97333 97.4066 9.24C97.4813 8.70667 97.716 8.29067 98.1106 7.992C98.516 7.68267 98.9906 7.528 99.5346 7.528H99.6146L99.9026 8.664H99.7906C99.3 8.664 98.916 8.75467 98.6386 8.936C98.3613 9.11733 98.2066 9.4 98.1746 9.784C98.644 10.2747 98.8786 10.8613 98.8786 11.544C98.8786 12.0667 98.74 12.536 98.4626 12.952C98.1853 13.3573 97.796 13.6773 97.2946 13.912C96.804 14.136 96.2386 14.248 95.5986 14.248C95.204 14.248 94.836 14.2107 94.4946 14.136C94.1746 14.232 93.9453 14.3653 93.8066 14.536C93.668 14.7067 93.5986 14.8933 93.5986 15.096C93.5986 15.6827 94.0146 15.976 94.8466 15.976H97.1826ZM95.5986 9.88C95.044 9.88 94.58 10.0347 94.2066 10.344C93.8333 10.6427 93.6466 11.0427 93.6466 11.544C93.6466 12.0347 93.8333 12.4347 94.2066 12.744C94.58 13.0533 95.044 13.208 95.5986 13.208C96.1533 13.208 96.6173 13.0533 96.9906 12.744C97.364 12.4347 97.5506 12.0347 97.5506 11.544C97.5506 11.0427 97.364 10.6427 96.9906 10.344C96.6173 10.0347 96.1533 9.88 95.5986 9.88ZM95.7106 19.368C96.6386 19.368 97.3213 19.2293 97.7586 18.952C98.196 18.6853 98.4146 18.376 98.4146 18.024C98.4146 17.736 98.2973 17.5067 98.0626 17.336C97.8386 17.1653 97.428 17.08 96.8306 17.08H94.3666C94.0253 17.08 93.7373 17.1653 93.5026 17.336C93.268 17.5173 93.1506 17.7627 93.1506 18.072C93.1506 18.4667 93.3746 18.7813 93.8226 19.016C94.2813 19.2507 94.9106 19.368 95.7106 19.368ZM101.394 17V5.32H102.674V10.2C102.952 9.72 103.32 9.37333 103.778 9.16C104.237 8.94667 104.738 8.84 105.282 8.84C105.858 8.84 106.381 8.952 106.85 9.176C107.32 9.38933 107.693 9.72 107.97 10.168C108.258 10.616 108.402 11.1867 108.402 11.88V17H107.122V12.328C107.122 11.4427 106.93 10.8293 106.546 10.488C106.173 10.136 105.709 9.96 105.154 9.96C104.77 9.96 104.386 10.0507 104.002 10.232C103.618 10.4133 103.298 10.712 103.042 11.128C102.797 11.5333 102.674 12.0773 102.674 12.76V17H101.394ZM115.991 9V10.104H113.079V14.792C113.079 15.1867 113.191 15.48 113.415 15.672C113.639 15.864 113.927 15.96 114.279 15.96C114.588 15.96 114.855 15.9067 115.079 15.8C115.303 15.6933 115.506 15.5493 115.687 15.368L116.135 16.44C115.89 16.664 115.596 16.84 115.255 16.968C114.924 17.096 114.54 17.16 114.103 17.16C113.698 17.16 113.319 17.0907 112.967 16.952C112.615 16.8027 112.332 16.5733 112.119 16.264C111.916 15.944 111.81 15.528 111.799 15.016V10.104H110.199V9H111.799V7.08L113.079 6.728V9H115.991ZM123.043 17V15.96C124.099 15.1813 124.979 14.4987 125.683 13.912C126.398 13.3253 126.969 12.792 127.395 12.312C127.822 11.832 128.126 11.3787 128.307 10.952C128.489 10.5147 128.579 10.0613 128.579 9.592C128.579 8.96267 128.377 8.456 127.971 8.072C127.577 7.67733 127.033 7.48 126.339 7.48C125.614 7.48 125.033 7.72 124.595 8.2C124.158 8.66933 123.902 9.29867 123.827 10.088L122.707 9.416C122.846 8.49867 123.225 7.74667 123.843 7.16C124.473 6.57333 125.321 6.28 126.387 6.28C127.113 6.28 127.737 6.424 128.259 6.712C128.793 6.98933 129.203 7.37867 129.491 7.88C129.779 8.37067 129.923 8.94133 129.923 9.592C129.923 10.2533 129.763 10.904 129.443 11.544C129.123 12.1733 128.595 12.8347 127.859 13.528C127.123 14.2213 126.126 14.9893 124.867 15.832V15.848C124.985 15.8373 125.145 15.832 125.347 15.832C125.561 15.8213 125.769 15.816 125.971 15.816C126.185 15.8053 126.345 15.8 126.451 15.8H130.147V17H123.043ZM136.164 17.16C134.969 17.16 134.014 16.696 133.299 15.768C132.585 14.84 132.228 13.4907 132.228 11.72C132.228 9.94933 132.585 8.6 133.299 7.672C134.014 6.744 134.969 6.28 136.164 6.28C137.369 6.28 138.324 6.744 139.028 7.672C139.742 8.6 140.1 9.94933 140.1 11.72C140.1 13.4907 139.742 14.84 139.028 15.768C138.324 16.696 137.369 17.16 136.164 17.16ZM136.164 16.008C137.017 16.008 137.662 15.64 138.1 14.904C138.548 14.168 138.772 13.1067 138.772 11.72C138.772 10.3227 138.548 9.26133 138.1 8.536C137.662 7.8 137.017 7.432 136.164 7.432C135.321 7.432 134.676 7.8 134.228 8.536C133.78 9.26133 133.556 10.3227 133.556 11.72C133.556 13.1067 133.78 14.168 134.228 14.904C134.676 15.64 135.321 16.008 136.164 16.008ZM142.325 17V15.96C143.381 15.1813 144.261 14.4987 144.965 13.912C145.679 13.3253 146.25 12.792 146.677 12.312C147.103 11.832 147.407 11.3787 147.589 10.952C147.77 10.5147 147.861 10.0613 147.861 9.592C147.861 8.96267 147.658 8.456 147.253 8.072C146.858 7.67733 146.314 7.48 145.621 7.48C144.895 7.48 144.314 7.72 143.877 8.2C143.439 8.66933 143.183 9.29867 143.109 10.088L141.989 9.416C142.127 8.49867 142.506 7.74667 143.125 7.16C143.754 6.57333 144.602 6.28 145.669 6.28C146.394 6.28 147.018 6.424 147.541 6.712C148.074 6.98933 148.485 7.37867 148.773 7.88C149.061 8.37067 149.205 8.94133 149.205 9.592C149.205 10.2533 149.045 10.904 148.725 11.544C148.405 12.1733 147.877 12.8347 147.141 13.528C146.405 14.2213 145.407 14.9893 144.149 15.832V15.848C144.266 15.8373 144.426 15.832 144.629 15.832C144.842 15.8213 145.05 15.816 145.253 15.816C145.466 15.8053 145.626 15.8 145.733 15.8H149.429V17H142.325ZM153.797 17V9.256C153.797 9.07467 153.797 8.88267 153.797 8.68C153.807 8.46667 153.818 8.248 153.829 8.024C153.466 8.376 153.045 8.68533 152.565 8.952C152.085 9.208 151.594 9.39467 151.093 9.512L150.757 8.344C150.949 8.32267 151.189 8.25333 151.477 8.136C151.775 8.008 152.085 7.85333 152.405 7.672C152.735 7.48 153.039 7.27733 153.317 7.064C153.594 6.85067 153.807 6.64267 153.957 6.44H155.077V17H153.797ZM158.831 15.08C159.14 15.08 159.391 15.176 159.583 15.368C159.775 15.56 159.871 15.8107 159.871 16.12C159.871 16.4293 159.775 16.68 159.583 16.872C159.391 17.064 159.14 17.16 158.831 17.16C158.522 17.16 158.271 17.064 158.079 16.872C157.887 16.68 157.791 16.4293 157.791 16.12C157.791 15.8107 157.887 15.56 158.079 15.368C158.271 15.176 158.522 15.08 158.831 15.08ZM166.182 17L170.294 6.44H171.814L175.91 17H174.55L173.43 14.072H168.646L167.526 17H166.182ZM170.55 9.08L169.11 12.872H172.966L171.542 9.128L171.046 7.656H171.014L170.55 9.08ZM179.032 5.32V14.968C179.032 15.3733 179.107 15.656 179.256 15.816C179.405 15.9653 179.645 16.04 179.976 16.04C180.189 16.04 180.365 16.024 180.504 15.992C180.643 15.96 180.829 15.9013 181.064 15.816L180.856 16.936C180.504 17.0853 180.109 17.16 179.672 17.16C178.392 17.16 177.752 16.4453 177.752 15.016V5.32H179.032ZM183.923 5.32V14.968C183.923 15.3733 183.997 15.656 184.147 15.816C184.296 15.9653 184.536 16.04 184.867 16.04C185.08 16.04 185.256 16.024 185.395 15.992C185.533 15.96 185.72 15.9013 185.955 15.816L185.747 16.936C185.395 17.0853 185 17.16 184.563 17.16C183.283 17.16 182.643 16.4453 182.643 15.016V5.32H183.923ZM196.728 6.44C197.805 6.44 198.669 6.71733 199.32 7.272C199.971 7.82667 200.296 8.57867 200.296 9.528C200.296 10.2853 200.083 10.9093 199.656 11.4C199.229 11.8907 198.653 12.2267 197.928 12.408L200.936 17H199.416L196.536 12.616H194.008V17H192.728V6.44H196.728ZM196.712 11.416C198.205 11.416 198.952 10.7867 198.952 9.528C198.952 8.26933 198.205 7.64 196.712 7.64H194.008V11.416H196.712ZM203.691 7.464C203.403 7.464 203.168 7.37867 202.987 7.208C202.816 7.02667 202.731 6.792 202.731 6.504C202.731 6.216 202.816 5.98667 202.987 5.816C203.168 5.63467 203.403 5.544 203.691 5.544C203.979 5.544 204.208 5.63467 204.379 5.816C204.56 5.98667 204.651 6.216 204.651 6.504C204.651 6.792 204.56 7.02667 204.379 7.208C204.208 7.37867 203.979 7.464 203.691 7.464ZM204.331 9V17H203.051V9H204.331ZM211.605 15.976C212.362 15.976 212.954 16.152 213.381 16.504C213.807 16.8453 214.021 17.304 214.021 17.88C214.021 18.4027 213.845 18.856 213.493 19.24C213.151 19.624 212.687 19.9173 212.101 20.12C211.525 20.3333 210.874 20.44 210.149 20.44C208.89 20.44 207.946 20.2267 207.317 19.8C206.698 19.3733 206.389 18.8613 206.389 18.264C206.389 17.9013 206.49 17.5707 206.693 17.272C206.895 16.9733 207.231 16.76 207.701 16.632C207.445 16.5147 207.237 16.3547 207.077 16.152C206.917 15.9387 206.837 15.656 206.837 15.304C206.837 14.9733 206.933 14.6747 207.125 14.408C207.317 14.1307 207.605 13.9173 207.989 13.768C207.583 13.5333 207.274 13.224 207.061 12.84C206.847 12.456 206.741 12.024 206.741 11.544C206.741 11.0107 206.879 10.5413 207.157 10.136C207.445 9.73067 207.834 9.416 208.325 9.192C208.815 8.95733 209.381 8.84 210.021 8.84C210.693 8.84 211.295 8.97333 211.829 9.24C211.903 8.70667 212.138 8.29067 212.533 7.992C212.938 7.68267 213.413 7.528 213.957 7.528H214.036L214.325 8.664H214.213C213.722 8.664 213.338 8.75467 213.061 8.936C212.783 9.11733 212.629 9.4 212.597 9.784C213.066 10.2747 213.301 10.8613 213.301 11.544C213.301 12.0667 213.162 12.536 212.885 12.952C212.607 13.3573 212.218 13.6773 211.717 13.912C211.226 14.136 210.661 14.248 210.021 14.248C209.626 14.248 209.258 14.2107 208.917 14.136C208.597 14.232 208.367 14.3653 208.229 14.536C208.09 14.7067 208.021 14.8933 208.021 15.096C208.021 15.6827 208.437 15.976 209.269 15.976H211.605ZM210.021 9.88C209.466 9.88 209.002 10.0347 208.629 10.344C208.255 10.6427 208.069 11.0427 208.069 11.544C208.069 12.0347 208.255 12.4347 208.629 12.744C209.002 13.0533 209.466 13.208 210.021 13.208C210.575 13.208 211.039 13.0533 211.413 12.744C211.786 12.4347 211.973 12.0347 211.973 11.544C211.973 11.0427 211.786 10.6427 211.413 10.344C211.039 10.0347 210.575 9.88 210.021 9.88ZM210.133 19.368C211.061 19.368 211.743 19.2293 212.181 18.952C212.618 18.6853 212.837 18.376 212.837 18.024C212.837 17.736 212.719 17.5067 212.485 17.336C212.261 17.1653 211.85 17.08 211.253 17.08H208.789C208.447 17.08 208.159 17.1653 207.924 17.336C207.69 17.5173 207.573 17.7627 207.573 18.072C207.573 18.4667 207.797 18.7813 208.245 19.016C208.703 19.2507 209.333 19.368 210.133 19.368ZM215.816 17V5.32H217.096V10.2C217.373 9.72 217.741 9.37333 218.2 9.16C218.659 8.94667 219.16 8.84 219.704 8.84C220.28 8.84 220.803 8.952 221.272 9.176C221.741 9.38933 222.115 9.72 222.392 10.168C222.68 10.616 222.824 11.1867 222.824 11.88V17H221.544V12.328C221.544 11.4427 221.352 10.8293 220.968 10.488C220.595 10.136 220.131 9.96 219.576 9.96C219.192 9.96 218.808 10.0507 218.424 10.232C218.04 10.4133 217.72 10.712 217.464 11.128C217.219 11.5333 217.096 12.0773 217.096 12.76V17H215.816ZM230.413 9V10.104H227.501V14.792C227.501 15.1867 227.613 15.48 227.837 15.672C228.061 15.864 228.349 15.96 228.701 15.96C229.01 15.96 229.277 15.9067 229.501 15.8C229.725 15.6933 229.928 15.5493 230.109 15.368L230.557 16.44C230.312 16.664 230.018 16.84 229.677 16.968C229.346 17.096 228.962 17.16 228.525 17.16C228.12 17.16 227.741 17.0907 227.389 16.952C227.037 16.8027 226.754 16.5733 226.541 16.264C226.338 15.944 226.232 15.528 226.221 15.016V10.104H224.621V9H226.221V7.08L227.501 6.728V9H230.413ZM242.009 6.44C243.087 6.44 243.951 6.71733 244.601 7.272C245.252 7.82667 245.577 8.57867 245.577 9.528C245.577 10.2853 245.364 10.9093 244.937 11.4C244.511 11.8907 243.935 12.2267 243.209 12.408L246.217 17H244.697L241.817 12.616H239.289V17H238.009V6.44H242.009ZM241.993 11.416C243.487 11.416 244.233 10.7867 244.233 9.528C244.233 8.26933 243.487 7.64 241.993 7.64H239.289V11.416H241.993ZM251.488 17.16C250.731 17.16 250.054 16.9947 249.456 16.664C248.87 16.3333 248.411 15.8587 248.08 15.24C247.75 14.6107 247.584 13.864 247.584 13C247.584 12.136 247.75 11.3947 248.08 10.776C248.411 10.1467 248.864 9.66667 249.44 9.336C250.016 9.00533 250.672 8.84 251.408 8.84C252.155 8.84 252.79 9 253.312 9.32C253.846 9.64 254.251 10.0773 254.528 10.632C254.806 11.176 254.944 11.7893 254.944 12.472C254.944 12.6533 254.939 12.8187 254.928 12.968C254.918 13.1173 254.902 13.2507 254.88 13.368H248.848C248.912 14.2107 249.174 14.8667 249.632 15.336C250.091 15.8053 250.699 16.04 251.456 16.04C252.043 16.04 252.518 15.928 252.88 15.704C253.254 15.48 253.552 15.176 253.776 14.792L254.784 15.384C254.486 15.928 254.054 16.36 253.488 16.68C252.934 17 252.267 17.16 251.488 17.16ZM251.376 9.96C250.704 9.96 250.15 10.1627 249.712 10.568C249.286 10.9627 249.014 11.5173 248.896 12.232H253.664C253.632 11.5067 253.408 10.9467 252.992 10.552C252.576 10.1573 252.038 9.96 251.376 9.96ZM260.259 17.16C259.48 17.16 258.76 16.9947 258.099 16.664C257.448 16.3333 256.947 15.864 256.595 15.256L257.683 14.472C257.917 14.9627 258.259 15.3467 258.707 15.624C259.165 15.9013 259.715 16.04 260.355 16.04C260.92 16.04 261.363 15.9333 261.683 15.72C262.003 15.496 262.163 15.208 262.163 14.856C262.163 14.632 262.088 14.4293 261.939 14.248C261.8 14.056 261.528 13.9173 261.123 13.832L259.203 13.432C258.424 13.272 257.864 13.0053 257.523 12.632C257.192 12.2587 257.027 11.7947 257.027 11.24C257.027 10.8027 257.149 10.4027 257.395 10.04C257.651 9.67733 258.008 9.38933 258.467 9.176C258.936 8.952 259.485 8.84 260.115 8.84C260.904 8.84 261.571 8.99467 262.115 9.304C262.659 9.61333 263.064 10.0507 263.331 10.616L262.259 11.32C262.077 10.8507 261.784 10.5093 261.379 10.296C260.973 10.072 260.552 9.96 260.115 9.96C259.539 9.96 259.091 10.0773 258.771 10.312C258.451 10.5467 258.291 10.84 258.291 11.192C258.291 11.4267 258.371 11.6453 258.531 11.848C258.691 12.04 258.989 12.1787 259.427 12.264L261.427 12.68C262.173 12.8293 262.696 13.0747 262.995 13.416C263.293 13.7573 263.443 14.1733 263.443 14.664C263.443 15.4213 263.149 16.0293 262.563 16.488C261.976 16.936 261.208 17.16 260.259 17.16ZM269.16 17.16C268.403 17.16 267.725 16.9947 267.128 16.664C266.541 16.3333 266.083 15.8587 265.752 15.24C265.421 14.6107 265.256 13.864 265.256 13C265.256 12.136 265.421 11.3947 265.752 10.776C266.083 10.1467 266.536 9.66667 267.112 9.336C267.688 9.00533 268.344 8.84 269.08 8.84C269.827 8.84 270.461 9 270.984 9.32C271.517 9.64 271.923 10.0773 272.2 10.632C272.477 11.176 272.616 11.7893 272.616 12.472C272.616 12.6533 272.611 12.8187 272.6 12.968C272.589 13.1173 272.573 13.2507 272.552 13.368H266.52C266.584 14.2107 266.845 14.8667 267.304 15.336C267.763 15.8053 268.371 16.04 269.128 16.04C269.715 16.04 270.189 15.928 270.552 15.704C270.925 15.48 271.224 15.176 271.448 14.792L272.456 15.384C272.157 15.928 271.725 16.36 271.16 16.68C270.605 17 269.939 17.16 269.16 17.16ZM269.048 9.96C268.376 9.96 267.821 10.1627 267.384 10.568C266.957 10.9627 266.685 11.5173 266.568 12.232H271.336C271.304 11.5067 271.08 10.9467 270.664 10.552C270.248 10.1573 269.709 9.96 269.048 9.96ZM275.051 17V9H276.091L276.267 10.312C276.715 9.33067 277.568 8.84 278.827 8.84C278.965 8.84 279.115 8.85067 279.275 8.872C279.445 8.89333 279.589 8.936 279.707 9L279.483 10.168C279.365 10.1253 279.237 10.0933 279.099 10.072C278.96 10.0507 278.763 10.04 278.507 10.04C278.176 10.04 277.84 10.136 277.499 10.328C277.168 10.52 276.891 10.8133 276.667 11.208C276.443 11.592 276.331 12.0827 276.331 12.68V17H275.051ZM286.878 9H288.222L284.894 17H283.614L280.286 9H281.742L284.27 15.704L286.878 9ZM293.238 17.16C292.481 17.16 291.804 16.9947 291.206 16.664C290.62 16.3333 290.161 15.8587 289.83 15.24C289.5 14.6107 289.334 13.864 289.334 13C289.334 12.136 289.5 11.3947 289.83 10.776C290.161 10.1467 290.614 9.66667 291.19 9.336C291.766 9.00533 292.422 8.84 293.158 8.84C293.905 8.84 294.54 9 295.062 9.32C295.596 9.64 296.001 10.0773 296.278 10.632C296.556 11.176 296.694 11.7893 296.694 12.472C296.694 12.6533 296.689 12.8187 296.678 12.968C296.668 13.1173 296.652 13.2507 296.63 13.368H290.598C290.662 14.2107 290.924 14.8667 291.382 15.336C291.841 15.8053 292.449 16.04 293.206 16.04C293.793 16.04 294.268 15.928 294.63 15.704C295.004 15.48 295.302 15.176 295.526 14.792L296.534 15.384C296.236 15.928 295.804 16.36 295.238 16.68C294.684 17 294.017 17.16 293.238 17.16ZM293.126 9.96C292.454 9.96 291.9 10.1627 291.462 10.568C291.036 10.9627 290.764 11.5173 290.646 12.232H295.414C295.382 11.5067 295.158 10.9467 294.742 10.552C294.326 10.1573 293.788 9.96 293.126 9.96ZM302.249 17.16C301.587 17.16 300.979 16.9947 300.425 16.664C299.87 16.3333 299.427 15.8587 299.097 15.24C298.766 14.6107 298.601 13.864 298.601 13C298.601 12.1147 298.777 11.3627 299.129 10.744C299.481 10.1253 299.945 9.656 300.521 9.336C301.097 9.00533 301.715 8.84 302.377 8.84C302.953 8.84 303.465 8.97333 303.913 9.24C304.361 9.496 304.691 9.848 304.905 10.296V5.32H306.185V17H305.065L304.985 15.496C304.761 16.04 304.398 16.456 303.897 16.744C303.395 17.0213 302.846 17.16 302.249 17.16ZM302.377 16.04C303.134 16.04 303.742 15.7573 304.201 15.192C304.67 14.6267 304.905 13.8587 304.905 12.888C304.905 11.9707 304.675 11.256 304.217 10.744C303.758 10.2213 303.166 9.96 302.441 9.96C301.63 9.96 301.001 10.2373 300.553 10.792C300.105 11.3467 299.881 12.0827 299.881 13C299.881 13.9173 300.099 14.6533 300.537 15.208C300.974 15.7627 301.587 16.04 302.377 16.04Z" fill="#7B7B7B"/>
</svg>
