<svg width="490" height="162" viewBox="0 0 490 162" fill="none" xmlns="http://www.w3.org/2000/svg">
<path d="M0.917614 49.6763H5.26278V62.0101H6.93608V49.6763H11.2812V48.1919H0.917614V49.6763ZM16.3551 62.226C19.1619 62.226 21.0511 60.0939 21.0511 56.8823C21.0511 53.6437 19.1619 51.5116 16.3551 51.5116C13.5483 51.5116 11.6591 53.6437 11.6591 56.8823C11.6591 60.0939 13.5483 62.226 16.3551 62.226ZM16.3551 60.7956C14.223 60.7956 13.2514 58.9604 13.2514 56.8823C13.2514 54.8042 14.223 52.9419 16.3551 52.9419C18.4872 52.9419 19.4588 54.8042 19.4588 56.8823C19.4588 58.9604 18.4872 60.7956 16.3551 60.7956ZM27.3952 62.226C29.3923 62.226 30.067 60.9846 30.4179 60.4178H30.6068V62.0101H32.1452V48.1919H30.5528V53.2928H30.4179C30.067 52.753 29.4463 51.5116 27.4221 51.5116C24.8042 51.5116 22.996 53.5897 22.996 56.8553C22.996 60.1479 24.8042 62.226 27.3952 62.226ZM27.6111 60.7956C25.6139 60.7956 24.5883 59.0414 24.5883 56.8283C24.5883 54.6422 25.5869 52.9419 27.6111 52.9419C29.5542 52.9419 30.5798 54.5073 30.5798 56.8283C30.5798 59.1763 29.5273 60.7956 27.6111 60.7956ZM39.4928 62.226C42.2996 62.226 44.1888 60.0939 44.1888 56.8823C44.1888 53.6437 42.2996 51.5116 39.4928 51.5116C36.686 51.5116 34.7968 53.6437 34.7968 56.8823C34.7968 60.0939 36.686 62.226 39.4928 62.226ZM39.4928 60.7956C37.3607 60.7956 36.3891 58.9604 36.3891 56.8823C36.3891 54.8042 37.3607 52.9419 39.4928 52.9419C41.6249 52.9419 42.5965 54.8042 42.5965 56.8823C42.5965 58.9604 41.6249 60.7956 39.4928 60.7956ZM51.9632 62.0101H53.5556V55.5329C53.5556 54.0147 54.6621 52.9419 55.9036 52.9419C57.1113 52.9419 57.9547 53.7314 57.9547 54.9121V62.0101H59.574V55.263C59.574 53.927 60.4107 52.9419 61.8681 52.9419C63.0016 52.9419 63.9732 53.5424 63.9732 55.0741V62.0101H65.5655V55.0741C65.5655 52.6383 64.2566 51.5116 62.4078 51.5116C60.9235 51.5116 59.8372 52.193 59.3042 53.2658H59.1962C58.6834 52.1593 57.7793 51.5116 56.4164 51.5116C55.0669 51.5116 54.0684 52.1593 53.6365 53.2658H53.5016V51.6465H51.9632V62.0101ZM71.5266 62.253C73.3349 62.253 74.2795 61.2814 74.6033 60.6067H74.6843V62.0101H76.2766V55.182C76.2766 51.8894 73.7667 51.5116 72.4442 51.5116C70.8789 51.5116 69.0977 52.0513 68.288 53.9405L69.7994 54.4803C70.1502 53.7246 70.9801 52.915 72.4982 52.915C73.9624 52.915 74.6843 53.6909 74.6843 55.0201V55.0741C74.6843 55.8432 73.9016 55.7758 72.0124 56.0187C70.0895 56.2683 67.9911 56.6934 67.9911 59.0684C67.9911 61.0925 69.5565 62.253 71.5266 62.253ZM71.7695 60.8226C70.5011 60.8226 69.5835 60.2559 69.5835 59.1493C69.5835 57.9348 70.69 57.557 71.9315 57.3951C72.6062 57.3141 74.4144 57.1252 74.6843 56.8013V58.2587C74.6843 59.5542 73.6587 60.8226 71.7695 60.8226ZM83.6901 51.6465H81.477V49.1635H79.8847V51.6465H78.3193V52.9959H79.8847V59.4732C79.8847 61.2814 81.3421 62.1451 82.6915 62.1451C83.2852 62.1451 83.6631 62.0371 83.879 61.9562L83.5551 60.5258C83.4202 60.5527 83.2043 60.6067 82.8534 60.6067C82.1517 60.6067 81.477 60.3908 81.477 59.0414V52.9959H83.6901V51.6465ZM90.3192 62.226C92.4243 62.226 93.9626 61.1735 94.4484 59.6081L92.9101 59.1763C92.5052 60.2559 91.5674 60.7956 90.3192 60.7956C88.4502 60.7956 87.1615 59.5879 87.0873 57.3681H94.6104V56.6934C94.6104 52.834 92.3163 51.5116 90.1572 51.5116C87.3504 51.5116 85.4882 53.7246 85.4882 56.9093C85.4882 60.0939 87.3234 62.226 90.3192 62.226ZM87.0873 55.9917C87.1952 54.3791 88.3355 52.9419 90.1572 52.9419C91.8845 52.9419 92.991 54.2374 92.991 55.9917H87.0873ZM97.0326 62.0101H98.6249V55.4519C98.6249 54.0485 99.7314 53.0229 101.243 53.0229C101.668 53.0229 102.106 53.1039 102.214 53.1309V51.5116C102.032 51.4981 101.614 51.4846 101.378 51.4846C100.136 51.4846 99.0567 52.1863 98.6789 53.2118H98.5709V51.6465H97.0326V62.0101ZM104.102 62.0101H105.694V51.6465H104.102V62.0101ZM104.912 49.9192C105.532 49.9192 106.045 49.4334 106.045 48.8397C106.045 48.2459 105.532 47.7601 104.912 47.7601C104.291 47.7601 103.778 48.2459 103.778 48.8397C103.778 49.4334 104.291 49.9192 104.912 49.9192ZM111.66 62.253C113.469 62.253 114.413 61.2814 114.737 60.6067H114.818V62.0101H116.41V55.182C116.41 51.8894 113.9 51.5116 112.578 51.5116C111.013 51.5116 109.231 52.0513 108.422 53.9405L109.933 54.4803C110.284 53.7246 111.114 52.915 112.632 52.915C114.096 52.915 114.818 53.6909 114.818 55.0201V55.0741C114.818 55.8432 114.035 55.7758 112.146 56.0187C110.223 56.2683 108.125 56.6934 108.125 59.0684C108.125 61.0925 109.69 62.253 111.66 62.253ZM111.903 60.8226C110.635 60.8226 109.717 60.2559 109.717 59.1493C109.717 57.9348 110.824 57.557 112.065 57.3951C112.74 57.3141 114.548 57.1252 114.818 56.8013V58.2587C114.818 59.5542 113.793 60.8226 111.903 60.8226ZM120.909 48.1919H119.317V62.0101H120.909V48.1919ZM133.514 62.226C135.62 62.226 137.158 61.1735 137.644 59.6081L136.105 59.1763C135.701 60.2559 134.763 60.7956 133.514 60.7956C131.646 60.7956 130.357 59.5879 130.283 57.3681H137.806V56.6934C137.806 52.834 135.512 51.5116 133.353 51.5116C130.546 51.5116 128.684 53.7246 128.684 56.9093C128.684 60.0939 130.519 62.226 133.514 62.226ZM130.283 55.9917C130.391 54.3791 131.531 52.9419 133.353 52.9419C135.08 52.9419 136.186 54.2374 136.186 55.9917H130.283ZM132.543 50.2431H133.946L136.051 47.1124H134.189L132.543 50.2431ZM149.782 62.226C152.076 62.226 153.587 60.8226 153.857 58.9874H152.265C151.968 60.1209 151.023 60.7956 149.782 60.7956C147.893 60.7956 146.678 59.2303 146.678 56.8283C146.678 54.4803 147.92 52.9419 149.782 52.9419C151.185 52.9419 152.022 53.8056 152.265 54.7502H153.857C153.587 52.807 151.941 51.5116 149.755 51.5116C146.948 51.5116 145.086 53.7246 145.086 56.8823C145.086 59.986 146.867 62.226 149.782 62.226ZM160.395 62.226C163.202 62.226 165.091 60.0939 165.091 56.8823C165.091 53.6437 163.202 51.5116 160.395 51.5116C157.588 51.5116 155.699 53.6437 155.699 56.8823C155.699 60.0939 157.588 62.226 160.395 62.226ZM160.395 60.7956C158.263 60.7956 157.291 58.9604 157.291 56.8823C157.291 54.8042 158.263 52.9419 160.395 52.9419C162.527 52.9419 163.499 54.8042 163.499 56.8823C163.499 58.9604 162.527 60.7956 160.395 60.7956ZM169.114 55.7758C169.114 53.9675 170.234 52.9419 171.759 52.9419C173.237 52.9419 174.134 53.9068 174.134 55.5329V62.0101H175.726V55.4249C175.726 52.78 174.316 51.5116 172.218 51.5116C170.653 51.5116 169.681 52.2133 169.195 53.2658H169.06V51.6465H167.522V62.0101H169.114V55.7758ZM185.977 53.9675C185.478 52.4966 184.358 51.5116 182.307 51.5116C180.12 51.5116 178.501 52.753 178.501 54.5073C178.501 55.9377 179.351 56.8958 181.254 57.3411L182.981 57.7459C184.027 57.9888 184.52 58.4881 184.52 59.2033C184.52 60.0939 183.575 60.8226 182.091 60.8226C180.788 60.8226 179.972 60.2626 179.689 59.1493L178.177 59.5272C178.548 61.2882 179.999 62.226 182.118 62.226C184.526 62.226 186.166 60.9103 186.166 59.1223C186.166 57.6785 185.262 56.7676 183.413 56.3155L181.875 55.9377C180.647 55.6341 180.093 55.2225 180.093 54.4263C180.093 53.5357 181.038 52.888 182.307 52.888C183.696 52.888 184.27 53.6571 184.547 54.3723L185.977 53.9675ZM193.07 51.6465H190.857V49.1635H189.265V51.6465H187.699V52.9959H189.265V59.4732C189.265 61.2814 190.722 62.1451 192.071 62.1451C192.665 62.1451 193.043 62.0371 193.259 61.9562L192.935 60.5258C192.8 60.5527 192.584 60.6067 192.233 60.6067C191.532 60.6067 190.857 60.3908 190.857 59.0414V52.9959H193.07V51.6465ZM195.465 62.0101H197.058V55.4519C197.058 54.0485 198.164 53.0229 199.675 53.0229C200.1 53.0229 200.539 53.1039 200.647 53.1309V51.5116C200.465 51.4981 200.047 51.4846 199.81 51.4846C198.569 51.4846 197.489 52.1863 197.112 53.2118H197.004V51.6465H195.465V62.0101ZM209.066 57.7729C209.066 59.7161 207.581 60.6067 206.394 60.6067C205.071 60.6067 204.127 59.6351 204.127 58.1238V51.6465H202.535V58.2317C202.535 60.8766 203.938 62.1451 205.881 62.1451C207.446 62.1451 208.472 61.3084 208.958 60.2559H209.066V62.0101H210.658V51.6465H209.066V57.7729ZM213.575 62.0101H215.167V51.6465H213.575V62.0101ZM213.656 50.2431H215.059L217.164 47.1124H215.302L213.656 50.2431ZM221.997 62.226C223.994 62.226 224.669 60.9846 225.019 60.4178H225.208V62.0101H226.747V48.1919H225.154V53.2928H225.019C224.669 52.753 224.048 51.5116 222.024 51.5116C219.406 51.5116 217.598 53.5897 217.598 56.8553C217.598 60.1479 219.406 62.226 221.997 62.226ZM222.213 60.7956C220.215 60.7956 219.19 59.0414 219.19 56.8283C219.19 54.6422 220.188 52.9419 222.213 52.9419C224.156 52.9419 225.181 54.5073 225.181 56.8283C225.181 59.1763 224.129 60.7956 222.213 60.7956ZM234.094 62.226C236.901 62.226 238.79 60.0939 238.79 56.8823C238.79 53.6437 236.901 51.5116 234.094 51.5116C231.288 51.5116 229.398 53.6437 229.398 56.8823C229.398 60.0939 231.288 62.226 234.094 62.226ZM234.094 60.7956C231.962 60.7956 230.991 58.9604 230.991 56.8823C230.991 54.8042 231.962 52.9419 234.094 52.9419C236.226 52.9419 237.198 54.8042 237.198 56.8823C237.198 58.9604 236.226 60.7956 234.094 60.7956ZM246.565 65.8965H248.157V60.4178H248.292C248.643 60.9846 249.318 62.226 251.315 62.226C253.906 62.226 255.714 60.1479 255.714 56.8553C255.714 53.5897 253.906 51.5116 251.288 51.5116C249.264 51.5116 248.643 52.753 248.292 53.2928H248.103V51.6465H246.565V65.8965ZM248.13 56.8283C248.13 54.5073 249.156 52.9419 251.099 52.9419C253.123 52.9419 254.122 54.6422 254.122 56.8283C254.122 59.0414 253.096 60.7956 251.099 60.7956C249.183 60.7956 248.13 59.1763 248.13 56.8283ZM262.353 62.226C265.16 62.226 267.049 60.0939 267.049 56.8823C267.049 53.6437 265.16 51.5116 262.353 51.5116C259.546 51.5116 257.657 53.6437 257.657 56.8823C257.657 60.0939 259.546 62.226 262.353 62.226ZM262.353 60.7956C260.221 60.7956 259.249 58.9604 259.249 56.8823C259.249 54.8042 260.221 52.9419 262.353 52.9419C264.485 52.9419 265.457 54.8042 265.457 56.8823C265.457 58.9604 264.485 60.7956 262.353 60.7956ZM269.48 62.0101H271.072V55.4519C271.072 54.0485 272.179 53.0229 273.69 53.0229C274.115 53.0229 274.554 53.1039 274.662 53.1309V51.5116C274.479 51.4981 274.061 51.4846 273.825 51.4846C272.584 51.4846 271.504 52.1863 271.126 53.2118H271.018V51.6465H269.48V62.0101ZM281.893 65.8965H283.485V60.4178H283.62C283.971 60.9846 284.646 62.226 286.643 62.226C289.234 62.226 291.042 60.1479 291.042 56.8553C291.042 53.5897 289.234 51.5116 286.616 51.5116C284.592 51.5116 283.971 52.753 283.62 53.2928H283.431V51.6465H281.893V65.8965ZM283.458 56.8283C283.458 54.5073 284.484 52.9419 286.427 52.9419C288.451 52.9419 289.45 54.6422 289.45 56.8283C289.45 59.0414 288.424 60.7956 286.427 60.7956C284.511 60.7956 283.458 59.1763 283.458 56.8283ZM293.471 62.0101H295.063V55.4519C295.063 54.0485 296.17 53.0229 297.681 53.0229C298.106 53.0229 298.545 53.1039 298.653 53.1309V51.5116C298.471 51.4981 298.052 51.4846 297.816 51.4846C296.575 51.4846 295.495 52.1863 295.117 53.2118H295.009V51.6465H293.471V62.0101ZM304.435 62.226C307.242 62.226 309.131 60.0939 309.131 56.8823C309.131 53.6437 307.242 51.5116 304.435 51.5116C301.628 51.5116 299.739 53.6437 299.739 56.8823C299.739 60.0939 301.628 62.226 304.435 62.226ZM304.435 60.7956C302.303 60.7956 301.331 58.9604 301.331 56.8823C301.331 54.8042 302.303 52.9419 304.435 52.9419C306.567 52.9419 307.539 54.8042 307.539 56.8823C307.539 58.9604 306.567 60.7956 304.435 60.7956ZM316.177 51.6465H313.856V50.5939C313.856 49.5684 314.288 49.0286 315.34 49.0286C315.799 49.0286 316.069 49.1366 316.231 49.1905L316.69 47.8141C316.447 47.7062 315.961 47.5442 315.178 47.5442C313.694 47.5442 312.264 48.4348 312.264 50.2161V51.6465H310.59V52.9959H312.264V62.0101H313.856V52.9959H316.177V51.6465ZM318.409 62.0101H320.001V51.6465H318.409V62.0101ZM319.218 49.9192C319.839 49.9192 320.352 49.4334 320.352 48.8397C320.352 48.2459 319.839 47.7601 319.218 47.7601C318.597 47.7601 318.085 48.2459 318.085 48.8397C318.085 49.4334 318.597 49.9192 319.218 49.9192ZM330.258 53.9675C329.759 52.4966 328.639 51.5116 326.588 51.5116C324.402 51.5116 322.782 52.753 322.782 54.5073C322.782 55.9377 323.633 56.8958 325.535 57.3411L327.263 57.7459C328.308 57.9888 328.801 58.4881 328.801 59.2033C328.801 60.0939 327.856 60.8226 326.372 60.8226C325.07 60.8226 324.253 60.2626 323.97 59.1493L322.459 59.5272C322.83 61.2882 324.28 62.226 326.399 62.226C328.808 62.226 330.447 60.9103 330.447 59.1223C330.447 57.6785 329.543 56.7676 327.694 56.3155L326.156 55.9377C324.928 55.6341 324.375 55.2225 324.375 54.4263C324.375 53.5357 325.319 52.888 326.588 52.888C327.978 52.888 328.551 53.6571 328.828 54.3723L330.258 53.9675ZM340.185 53.9675C339.686 52.4966 338.566 51.5116 336.515 51.5116C334.328 51.5116 332.709 52.753 332.709 54.5073C332.709 55.9377 333.559 56.8958 335.462 57.3411L337.189 57.7459C338.235 57.9888 338.728 58.4881 338.728 59.2033C338.728 60.0939 337.783 60.8226 336.299 60.8226C334.996 60.8226 334.18 60.2626 333.897 59.1493L332.385 59.5272C332.756 61.2882 334.207 62.226 336.326 62.226C338.734 62.226 340.374 60.9103 340.374 59.1223C340.374 57.6785 339.47 56.7676 337.621 56.3155L336.083 55.9377C334.855 55.6341 334.301 55.2225 334.301 54.4263C334.301 53.5357 335.246 52.888 336.515 52.888C337.904 52.888 338.478 53.6571 338.755 54.3723L340.185 53.9675ZM342.771 62.0101H344.363V51.6465H342.771V62.0101ZM343.581 49.9192C344.201 49.9192 344.714 49.4334 344.714 48.8397C344.714 48.2459 344.201 47.7601 343.581 47.7601C342.96 47.7601 342.447 48.2459 342.447 48.8397C342.447 49.4334 342.96 49.9192 343.581 49.9192ZM351.49 62.226C354.297 62.226 356.186 60.0939 356.186 56.8823C356.186 53.6437 354.297 51.5116 351.49 51.5116C348.683 51.5116 346.794 53.6437 346.794 56.8823C346.794 60.0939 348.683 62.226 351.49 62.226ZM351.49 60.7956C349.358 60.7956 348.386 58.9604 348.386 56.8823C348.386 54.8042 349.358 52.9419 351.49 52.9419C353.622 52.9419 354.594 54.8042 354.594 56.8823C354.594 58.9604 353.622 60.7956 351.49 60.7956ZM360.209 55.7758C360.209 53.9675 361.329 52.9419 362.854 52.9419C364.331 52.9419 365.229 53.9068 365.229 55.5329V62.0101H366.821V55.4249C366.821 52.78 365.411 51.5116 363.313 51.5116C361.747 51.5116 360.776 52.2133 360.29 53.2658H360.155V51.6465H358.617V62.0101H360.209V55.7758ZM372.781 62.253C374.589 62.253 375.533 61.2814 375.857 60.6067H375.938V62.0101H377.531V55.182C377.531 51.8894 375.021 51.5116 373.698 51.5116C372.133 51.5116 370.352 52.0513 369.542 53.9405L371.053 54.4803C371.404 53.7246 372.234 52.915 373.752 52.915C375.216 52.915 375.938 53.6909 375.938 55.0201V55.0741C375.938 55.8432 375.156 55.7758 373.266 56.0187C371.343 56.2683 369.245 56.6934 369.245 59.0684C369.245 61.0925 370.81 62.253 372.781 62.253ZM373.023 60.8226C371.755 60.8226 370.837 60.2559 370.837 59.1493C370.837 57.9348 371.944 57.557 373.185 57.3951C373.86 57.3141 375.668 57.1252 375.938 56.8013V58.2587C375.938 59.5542 374.913 60.8226 373.023 60.8226ZM380.437 62.0101H382.029V51.6465H380.437V62.0101ZM381.247 49.9192C381.867 49.9192 382.38 49.4334 382.38 48.8397C382.38 48.2459 381.867 47.7601 381.247 47.7601C380.626 47.7601 380.113 48.2459 380.113 48.8397C380.113 49.4334 380.626 49.9192 381.247 49.9192ZM392.287 53.9675C391.787 52.4966 390.667 51.5116 388.616 51.5116C386.43 51.5116 384.811 52.753 384.811 54.5073C384.811 55.9377 385.661 56.8958 387.564 57.3411L389.291 57.7459C390.337 57.9888 390.829 58.4881 390.829 59.2033C390.829 60.0939 389.885 60.8226 388.4 60.8226C387.098 60.8226 386.282 60.2626 385.998 59.1493L384.487 59.5272C384.858 61.2882 386.309 62.226 388.427 62.226C390.836 62.226 392.475 60.9103 392.475 59.1223C392.475 57.6785 391.571 56.7676 389.723 56.3155L388.184 55.9377C386.956 55.6341 386.403 55.2225 386.403 54.4263C386.403 53.5357 387.348 52.888 388.616 52.888C390.006 52.888 390.58 53.6571 390.856 54.3723L392.287 53.9675ZM5.80256 92.226C7.90767 92.226 9.44602 91.1735 9.93182 89.6081L8.39347 89.1763C7.98864 90.2559 7.05078 90.7956 5.80256 90.7956C3.93359 90.7956 2.64489 89.5879 2.57067 87.3681H10.0938V86.6934C10.0938 82.834 7.79972 81.5116 5.64062 81.5116C2.83381 81.5116 0.971591 83.7246 0.971591 86.9093C0.971591 90.0939 2.80682 92.226 5.80256 92.226ZM2.57067 85.9917C2.67862 84.3791 3.81889 82.9419 5.64062 82.9419C7.3679 82.9419 8.47443 84.2374 8.47443 85.9917H2.57067ZM19.8569 83.9675C19.3576 82.4966 18.2376 81.5116 16.1864 81.5116C14.0004 81.5116 12.381 82.753 12.381 84.5073C12.381 85.9377 13.2312 86.8958 15.1339 87.3411L16.8612 87.7459C17.907 87.9888 18.3995 88.4881 18.3995 89.2033C18.3995 90.0939 17.4549 90.8226 15.9705 90.8226C14.6683 90.8226 13.8519 90.2626 13.5685 89.1493L12.0572 89.5272C12.4283 91.2882 13.8789 92.226 15.9975 92.226C18.4062 92.226 20.0458 90.9103 20.0458 89.1223C20.0458 87.6785 19.1417 86.7676 17.293 86.3155L15.7546 85.9377C14.5266 85.6341 13.9734 85.2225 13.9734 84.4263C13.9734 83.5357 14.918 82.888 16.1864 82.888C17.5763 82.888 18.1499 83.6571 18.4265 84.3723L19.8569 83.9675ZM22.4427 95.8965H24.0351V90.4178H24.17C24.5209 90.9846 25.1956 92.226 27.1927 92.226C29.7836 92.226 31.5919 90.1479 31.5919 86.8553C31.5919 83.5897 29.7836 81.5116 27.1657 81.5116C25.1416 81.5116 24.5209 82.753 24.17 83.2928H23.9811V81.6465H22.4427V95.8965ZM24.0081 86.8283C24.0081 84.5073 25.0336 82.9419 26.9768 82.9419C29.001 82.9419 29.9996 84.6422 29.9996 86.8283C29.9996 89.0414 28.974 90.7956 26.9768 90.7956C25.0606 90.7956 24.0081 89.1763 24.0081 86.8283ZM38.366 92.226C40.4711 92.226 42.0095 91.1735 42.4953 89.6081L40.9569 89.1763C40.5521 90.2559 39.6143 90.7956 38.366 90.7956C36.4971 90.7956 35.2084 89.5879 35.1341 87.3681H42.6572V86.6934C42.6572 82.834 40.3632 81.5116 38.2041 81.5116C35.3973 81.5116 33.5351 83.7246 33.5351 86.9093C33.5351 90.0939 35.3703 92.226 38.366 92.226ZM35.1341 85.9917C35.2421 84.3791 36.3824 82.9419 38.2041 82.9419C39.9314 82.9419 41.0379 84.2374 41.0379 85.9917H35.1341ZM49.2897 92.226C51.5837 92.226 53.0951 90.8226 53.365 88.9874H51.7726C51.4758 90.1209 50.5312 90.7956 49.2897 90.7956C47.4005 90.7956 46.186 89.2303 46.186 86.8283C46.186 84.4803 47.4275 82.9419 49.2897 82.9419C50.6931 82.9419 51.5297 83.8056 51.7726 84.7502H53.365C53.0951 82.807 51.4488 81.5116 49.2627 81.5116C46.4559 81.5116 44.5937 83.7246 44.5937 86.8823C44.5937 89.986 46.3749 92.226 49.2897 92.226ZM55.6927 92.0101H57.2851V81.6465H55.6927V92.0101ZM56.5024 79.9192C57.1231 79.9192 57.6359 79.4334 57.6359 78.8397C57.6359 78.2459 57.1231 77.7601 56.5024 77.7601C55.8817 77.7601 55.3689 78.2459 55.3689 78.8397C55.3689 79.4334 55.8817 79.9192 56.5024 79.9192ZM63.2512 92.253C65.0595 92.253 66.0041 91.2814 66.3279 90.6067H66.4089V92.0101H68.0012V85.182C68.0012 81.8894 65.4913 81.5116 64.1689 81.5116C62.6035 81.5116 60.8223 82.0513 60.0126 83.9405L61.524 84.4803C61.8748 83.7246 62.7047 82.915 64.2228 82.915C65.687 82.915 66.4089 83.6909 66.4089 85.0201V85.0741C66.4089 85.8432 65.6262 85.7758 63.737 86.0187C61.8141 86.2683 59.7157 86.6934 59.7157 89.0684C59.7157 91.0925 61.2811 92.253 63.2512 92.253ZM63.4941 90.8226C62.2257 90.8226 61.3081 90.2559 61.3081 89.1493C61.3081 87.9348 62.4146 87.557 63.6561 87.3951C64.3308 87.3141 66.139 87.1252 66.4089 86.8013V88.2587C66.4089 89.5542 65.3833 90.8226 63.4941 90.8226ZM72.4999 78.1919H70.9076V92.0101H72.4999V78.1919ZM75.4164 92.0101H77.0087V81.6465H75.4164V92.0101ZM76.226 79.9192C76.8468 79.9192 77.3596 79.4334 77.3596 78.8397C77.3596 78.2459 76.8468 77.7601 76.226 77.7601C75.6053 77.7601 75.0925 78.2459 75.0925 78.8397C75.0925 79.4334 75.6053 79.9192 76.226 79.9192ZM79.6283 92.0101H87.7519V90.5258H81.8414V90.4178L87.5629 82.915V81.6465H79.8172V83.1309H85.5118V83.2388L79.6283 90.7956V92.0101ZM93.2542 92.253C95.0624 92.253 96.007 91.2814 96.3309 90.6067H96.4118V92.0101H98.0042V85.182C98.0042 81.8894 95.4942 81.5116 94.1718 81.5116C92.6064 81.5116 90.8252 82.0513 90.0155 83.9405L91.5269 84.4803C91.8778 83.7246 92.7077 82.915 94.2258 82.915C95.6899 82.915 96.4118 83.6909 96.4118 85.0201V85.0741C96.4118 85.8432 95.6292 85.7758 93.74 86.0187C91.817 86.2683 89.7187 86.6934 89.7187 89.0684C89.7187 91.0925 91.284 92.253 93.2542 92.253ZM93.4971 90.8226C92.2286 90.8226 91.311 90.2559 91.311 89.1493C91.311 87.9348 92.4175 87.557 93.659 87.3951C94.3337 87.3141 96.142 87.1252 96.4118 86.8013V88.2587C96.4118 89.5542 95.3863 90.8226 93.4971 90.8226ZM104.824 92.226C106.821 92.226 107.496 90.9846 107.847 90.4178H108.036V92.0101H109.574V78.1919H107.982V83.2928H107.847C107.496 82.753 106.875 81.5116 104.851 81.5116C102.233 81.5116 100.425 83.5897 100.425 86.8553C100.425 90.1479 102.233 92.226 104.824 92.226ZM105.04 90.7956C103.043 90.7956 102.017 89.0414 102.017 86.8283C102.017 84.6422 103.016 82.9419 105.04 82.9419C106.983 82.9419 108.009 84.5073 108.009 86.8283C108.009 89.1763 106.956 90.7956 105.04 90.7956ZM116.922 92.226C119.728 92.226 121.618 90.0939 121.618 86.8823C121.618 83.6437 119.728 81.5116 116.922 81.5116C114.115 81.5116 112.225 83.6437 112.225 86.8823C112.225 90.0939 114.115 92.226 116.922 92.226ZM116.922 90.7956C114.789 90.7956 113.818 88.9604 113.818 86.8823C113.818 84.8042 114.789 82.9419 116.922 82.9419C119.054 82.9419 120.025 84.8042 120.025 86.8823C120.025 88.9604 119.054 90.7956 116.922 90.7956ZM131.389 83.9675C130.89 82.4966 129.77 81.5116 127.719 81.5116C125.533 81.5116 123.913 82.753 123.913 84.5073C123.913 85.9377 124.763 86.8958 126.666 87.3411L128.393 87.7459C129.439 87.9888 129.932 88.4881 129.932 89.2033C129.932 90.0939 128.987 90.8226 127.503 90.8226C126.201 90.8226 125.384 90.2626 125.101 89.1493L123.589 89.5272C123.96 91.2882 125.411 92.226 127.53 92.226C129.938 92.226 131.578 90.9103 131.578 89.1223C131.578 87.6785 130.674 86.7676 128.825 86.3155L127.287 85.9377C126.059 85.6341 125.506 85.2225 125.506 84.4263C125.506 83.5357 126.45 82.888 127.719 82.888C129.109 82.888 129.682 83.6571 129.959 84.3723L131.389 83.9675ZM143.664 92.226C145.769 92.226 147.307 91.1735 147.793 89.6081L146.255 89.1763C145.85 90.2559 144.912 90.7956 143.664 90.7956C141.795 90.7956 140.506 89.5879 140.432 87.3681H147.955V86.6934C147.955 82.834 145.661 81.5116 143.502 81.5116C140.695 81.5116 138.833 83.7246 138.833 86.9093C138.833 90.0939 140.668 92.226 143.664 92.226ZM140.432 85.9917C140.54 84.3791 141.68 82.9419 143.502 82.9419C145.229 82.9419 146.336 84.2374 146.336 85.9917H140.432ZM159.931 92.226C162.225 92.226 163.737 90.8226 164.007 88.9874H162.414C162.117 90.1209 161.173 90.7956 159.931 90.7956C158.042 90.7956 156.828 89.2303 156.828 86.8283C156.828 84.4803 158.069 82.9419 159.931 82.9419C161.335 82.9419 162.171 83.8056 162.414 84.7502H164.007C163.737 82.807 162.09 81.5116 159.904 81.5116C157.097 81.5116 155.235 83.7246 155.235 86.8823C155.235 89.986 157.017 92.226 159.931 92.226ZM170.545 92.226C173.351 92.226 175.241 90.0939 175.241 86.8823C175.241 83.6437 173.351 81.5116 170.545 81.5116C167.738 81.5116 165.849 83.6437 165.849 86.8823C165.849 90.0939 167.738 92.226 170.545 92.226ZM170.545 90.7956C168.412 90.7956 167.441 88.9604 167.441 86.8823C167.441 84.8042 168.412 82.9419 170.545 82.9419C172.677 82.9419 173.648 84.8042 173.648 86.8823C173.648 88.9604 172.677 90.7956 170.545 90.7956ZM177.671 92.0101H179.264V85.5329C179.264 84.0147 180.37 82.9419 181.612 82.9419C182.819 82.9419 183.663 83.7314 183.663 84.9121V92.0101H185.282V85.263C185.282 83.927 186.119 82.9419 187.576 82.9419C188.71 82.9419 189.681 83.5424 189.681 85.0741V92.0101H191.274V85.0741C191.274 82.6383 189.965 81.5116 188.116 81.5116C186.631 81.5116 185.545 82.193 185.012 83.2658H184.904C184.391 82.1593 183.487 81.5116 182.124 81.5116C180.775 81.5116 179.776 82.1593 179.345 83.2658H179.21V81.6465H177.671V92.0101ZM204.144 81.6465H201.823V80.5939C201.823 79.5684 202.255 79.0286 203.307 79.0286C203.766 79.0286 204.036 79.1366 204.198 79.1905L204.657 77.8141C204.414 77.7062 203.928 77.5442 203.145 77.5442C201.661 77.5442 200.23 78.4348 200.23 80.2161V81.6465H198.557V82.9959H200.23V92.0101H201.823V82.9959H204.144V81.6465ZM210.159 92.226C212.966 92.226 214.855 90.0939 214.855 86.8823C214.855 83.6437 212.966 81.5116 210.159 81.5116C207.352 81.5116 205.463 83.6437 205.463 86.8823C205.463 90.0939 207.352 92.226 210.159 92.226ZM210.159 90.7956C208.027 90.7956 207.055 88.9604 207.055 86.8823C207.055 84.8042 208.027 82.9419 210.159 82.9419C212.291 82.9419 213.263 84.8042 213.263 86.8823C213.263 88.9604 212.291 90.7956 210.159 90.7956ZM221.496 92.226C223.79 92.226 225.301 90.8226 225.571 88.9874H223.979C223.682 90.1209 222.737 90.7956 221.496 90.7956C219.607 90.7956 218.392 89.2303 218.392 86.8283C218.392 84.4803 219.634 82.9419 221.496 82.9419C222.899 82.9419 223.736 83.8056 223.979 84.7502H225.571C225.301 82.807 223.655 81.5116 221.469 81.5116C218.662 81.5116 216.8 83.7246 216.8 86.8823C216.8 89.986 218.581 92.226 221.496 92.226ZM232.109 92.226C234.916 92.226 236.805 90.0939 236.805 86.8823C236.805 83.6437 234.916 81.5116 232.109 81.5116C229.302 81.5116 227.413 83.6437 227.413 86.8823C227.413 90.0939 229.302 92.226 232.109 92.226ZM232.109 90.7956C229.977 90.7956 229.005 88.9604 229.005 86.8823C229.005 84.8042 229.977 82.9419 232.109 82.9419C234.241 82.9419 235.213 84.8042 235.213 86.8823C235.213 88.9604 234.241 90.7956 232.109 90.7956ZM246.172 85.7758C246.172 83.9675 247.292 82.9419 248.817 82.9419C250.294 82.9419 251.192 83.9068 251.192 85.5329V92.0101H252.784V85.4249C252.784 82.78 251.374 81.5116 249.275 81.5116C247.71 81.5116 246.739 82.2133 246.253 83.2658H246.118V81.6465H244.579V92.0101H246.172V85.7758ZM259.904 92.226C262.711 92.226 264.6 90.0939 264.6 86.8823C264.6 83.6437 262.711 81.5116 259.904 81.5116C257.097 81.5116 255.208 83.6437 255.208 86.8823C255.208 90.0939 257.097 92.226 259.904 92.226ZM259.904 90.7956C257.772 90.7956 256.8 88.9604 256.8 86.8823C256.8 84.8042 257.772 82.9419 259.904 82.9419C262.036 82.9419 263.008 84.8042 263.008 86.8823C263.008 88.9604 262.036 90.7956 259.904 90.7956ZM272.374 95.8965H273.967V90.4178H274.102C274.453 90.9846 275.127 92.226 277.124 92.226C279.715 92.226 281.524 90.1479 281.524 86.8553C281.524 83.5897 279.715 81.5116 277.097 81.5116C275.073 81.5116 274.453 82.753 274.102 83.2928H273.913V81.6465H272.374V95.8965ZM273.94 86.8283C273.94 84.5073 274.965 82.9419 276.908 82.9419C278.933 82.9419 279.931 84.6422 279.931 86.8283C279.931 89.0414 278.906 90.7956 276.908 90.7956C274.992 90.7956 273.94 89.1763 273.94 86.8283ZM288.298 92.226C290.403 92.226 291.941 91.1735 292.427 89.6081L290.889 89.1763C290.484 90.2559 289.546 90.7956 288.298 90.7956C286.429 90.7956 285.14 89.5879 285.066 87.3681H292.589V86.6934C292.589 82.834 290.295 81.5116 288.136 81.5116C285.329 81.5116 283.467 83.7246 283.467 86.9093C283.467 90.0939 285.302 92.226 288.298 92.226ZM285.066 85.9917C285.174 84.3791 286.314 82.9419 288.136 82.9419C289.863 82.9419 290.97 84.2374 290.97 85.9917H285.066ZM295.011 92.0101H296.603V85.4519C296.603 84.0485 297.71 83.0229 299.221 83.0229C299.646 83.0229 300.085 83.1039 300.193 83.1309V81.5116C300.011 81.4981 299.592 81.4846 299.356 81.4846C298.115 81.4846 297.035 82.1863 296.657 83.2118H296.549V81.6465H295.011V92.0101ZM307.345 81.6465H305.024V80.5939C305.024 79.5684 305.456 79.0286 306.508 79.0286C306.967 79.0286 307.237 79.1366 307.399 79.1905L307.858 77.8141C307.615 77.7062 307.129 77.5442 306.346 77.5442C304.862 77.5442 303.432 78.4348 303.432 80.2161V81.6465H301.758V82.9959H303.432V92.0101H305.024V82.9959H307.345V81.6465ZM309.577 92.0101H311.169V81.6465H309.577V92.0101ZM310.386 79.9192C311.007 79.9192 311.52 79.4334 311.52 78.8397C311.52 78.2459 311.007 77.7601 310.386 77.7601C309.765 77.7601 309.253 78.2459 309.253 78.8397C309.253 79.4334 309.765 79.9192 310.386 79.9192ZM315.678 78.1919H314.085V92.0101H315.678V78.1919ZM327.851 92.226C329.848 92.226 330.523 90.9846 330.874 90.4178H331.063V92.0101H332.601V78.1919H331.009V83.2928H330.874C330.523 82.753 329.902 81.5116 327.878 81.5116C325.26 81.5116 323.452 83.5897 323.452 86.8553C323.452 90.1479 325.26 92.226 327.851 92.226ZM328.067 90.7956C326.07 90.7956 325.044 89.0414 325.044 86.8283C325.044 84.6422 326.043 82.9419 328.067 82.9419C330.01 82.9419 331.036 84.5073 331.036 86.8283C331.036 89.1763 329.983 90.7956 328.067 90.7956ZM340.084 92.226C342.189 92.226 343.727 91.1735 344.213 89.6081L342.675 89.1763C342.27 90.2559 341.332 90.7956 340.084 90.7956C338.215 90.7956 336.926 89.5879 336.852 87.3681H344.375V86.6934C344.375 82.834 342.081 81.5116 339.922 81.5116C337.115 81.5116 335.253 83.7246 335.253 86.9093C335.253 90.0939 337.088 92.226 340.084 92.226ZM336.852 85.9917C336.96 84.3791 338.1 82.9419 339.922 82.9419C341.649 82.9419 342.756 84.2374 342.756 85.9917H336.852ZM5.66761 122.226C7.96165 122.226 9.47301 120.823 9.7429 118.987H8.15057C7.85369 120.121 6.90909 120.796 5.66761 120.796C3.77841 120.796 2.56392 119.23 2.56392 116.828C2.56392 114.48 3.8054 112.942 5.66761 112.942C7.07102 112.942 7.90767 113.806 8.15057 114.75H9.7429C9.47301 112.807 7.82671 111.512 5.64062 111.512C2.83381 111.512 0.971591 113.725 0.971591 116.882C0.971591 119.986 2.75284 122.226 5.66761 122.226ZM15.1204 122.253C16.9286 122.253 17.8732 121.281 18.1971 120.607H18.2781V122.01H19.8704V115.182C19.8704 111.889 17.3604 111.512 16.038 111.512C14.4727 111.512 12.6914 112.051 11.8817 113.941L13.3931 114.48C13.744 113.725 14.5739 112.915 16.092 112.915C17.5561 112.915 18.2781 113.691 18.2781 115.02V115.074C18.2781 115.843 17.4954 115.776 15.6062 116.019C13.6832 116.268 11.5849 116.693 11.5849 119.068C11.5849 121.093 13.1502 122.253 15.1204 122.253ZM15.3633 120.823C14.0948 120.823 13.1772 120.256 13.1772 119.149C13.1772 117.935 14.2837 117.557 15.5252 117.395C16.1999 117.314 18.0082 117.125 18.2781 116.801V118.259C18.2781 119.554 17.2525 120.823 15.3633 120.823ZM26.6901 122.226C28.6872 122.226 29.3619 120.985 29.7128 120.418H29.9017V122.01H31.4401V108.192H29.8477V113.293H29.7128C29.3619 112.753 28.7412 111.512 26.7171 111.512C24.0992 111.512 22.2909 113.59 22.2909 116.855C22.2909 120.148 24.0992 122.226 26.6901 122.226ZM26.906 120.796C24.9088 120.796 23.8833 119.041 23.8833 116.828C23.8833 114.642 24.8818 112.942 26.906 112.942C28.8492 112.942 29.8747 114.507 29.8747 116.828C29.8747 119.176 28.8222 120.796 26.906 120.796ZM37.6272 122.253C39.4355 122.253 40.3801 121.281 40.7039 120.607H40.7849V122.01H42.3772V115.182C42.3772 111.889 39.8673 111.512 38.5448 111.512C36.9795 111.512 35.1982 112.051 34.3886 113.941L35.8999 114.48C36.2508 113.725 37.0807 112.915 38.5988 112.915C40.0629 112.915 40.7849 113.691 40.7849 115.02V115.074C40.7849 115.843 40.0022 115.776 38.113 116.019C36.1901 116.268 34.0917 116.693 34.0917 119.068C34.0917 121.093 35.657 122.253 37.6272 122.253ZM37.8701 120.823C36.6017 120.823 35.684 120.256 35.684 119.149C35.684 117.935 36.7906 117.557 38.032 117.395C38.7068 117.314 40.515 117.125 40.7849 116.801V118.259C40.7849 119.554 39.7593 120.823 37.8701 120.823ZM59.1017 111.646H57.3745L54.5137 119.905H54.4057L51.5449 111.646H49.8176L53.65 122.01H55.2694L59.1017 111.646ZM65.1776 122.226C67.2827 122.226 68.821 121.173 69.3068 119.608L67.7685 119.176C67.3636 120.256 66.4258 120.796 65.1776 120.796C63.3086 120.796 62.0199 119.588 61.9457 117.368H69.4688V116.693C69.4688 112.834 67.1747 111.512 65.0156 111.512C62.2088 111.512 60.3466 113.725 60.3466 116.909C60.3466 120.094 62.1818 122.226 65.1776 122.226ZM61.9457 115.992C62.0536 114.379 63.1939 112.942 65.0156 112.942C66.7429 112.942 67.8494 114.237 67.8494 115.992H61.9457ZM79.2319 113.968C78.7326 112.497 77.6126 111.512 75.5614 111.512C73.3754 111.512 71.756 112.753 71.756 114.507C71.756 115.938 72.6062 116.896 74.5089 117.341L76.2362 117.746C77.282 117.989 77.7745 118.488 77.7745 119.203C77.7745 120.094 76.8299 120.823 75.3455 120.823C74.0433 120.823 73.2269 120.263 72.9435 119.149L71.4322 119.527C71.8033 121.288 73.2539 122.226 75.3725 122.226C77.7812 122.226 79.4208 120.91 79.4208 119.122C79.4208 117.678 78.5167 116.768 76.668 116.316L75.1296 115.938C73.9016 115.634 73.3484 115.222 73.3484 114.426C73.3484 113.536 74.293 112.888 75.5614 112.888C76.9513 112.888 77.5249 113.657 77.8015 114.372L79.2319 113.968ZM86.3248 111.646H84.1118V109.164H82.5194V111.646H80.9541V112.996H82.5194V119.473C82.5194 121.281 83.9768 122.145 85.3263 122.145C85.92 122.145 86.2979 122.037 86.5138 121.956L86.1899 120.526C86.055 120.553 85.839 120.607 85.4882 120.607C84.7865 120.607 84.1118 120.391 84.1118 119.041V112.996H86.3248V111.646ZM88.7201 122.01H90.3124V111.646H88.7201V122.01ZM89.5297 109.919C90.1505 109.919 90.6633 109.433 90.6633 108.84C90.6633 108.246 90.1505 107.76 89.5297 107.76C88.909 107.76 88.3962 108.246 88.3962 108.84C88.3962 109.433 88.909 109.919 89.5297 109.919ZM93.4448 122.01H94.9831V120.418H95.1721C95.5229 120.985 96.1976 122.226 98.1948 122.226C100.786 122.226 102.594 120.148 102.594 116.855C102.594 113.59 100.786 111.512 98.1678 111.512C96.1436 111.512 95.5229 112.753 95.1721 113.293H95.0371V108.192H93.4448V122.01ZM95.0101 116.828C95.0101 114.507 96.0357 112.942 97.9789 112.942C100.003 112.942 101.002 114.642 101.002 116.828C101.002 119.041 99.976 120.796 97.9789 120.796C96.0627 120.796 95.0101 119.176 95.0101 116.828ZM111.561 117.773C111.561 119.716 110.077 120.607 108.889 120.607C107.567 120.607 106.622 119.635 106.622 118.124V111.646H105.03V118.232C105.03 120.877 106.433 122.145 108.376 122.145C109.942 122.145 110.967 121.308 111.453 120.256H111.561V122.01H113.153V111.646H111.561V117.773ZM117.662 108.192H116.07V122.01H117.662V108.192ZM123.628 122.253C125.436 122.253 126.381 121.281 126.705 120.607H126.786V122.01H128.378V115.182C128.378 111.889 125.868 111.512 124.546 111.512C122.98 111.512 121.199 112.051 120.39 113.941L121.901 114.48C122.252 113.725 123.082 112.915 124.6 112.915C126.064 112.915 126.786 113.691 126.786 115.02V115.074C126.786 115.843 126.003 115.776 124.114 116.019C122.191 116.268 120.093 116.693 120.093 119.068C120.093 121.093 121.658 122.253 123.628 122.253ZM123.871 120.823C122.603 120.823 121.685 120.256 121.685 119.149C121.685 117.935 122.792 117.557 124.033 117.395C124.708 117.314 126.516 117.125 126.786 116.801V118.259C126.786 119.554 125.76 120.823 123.871 120.823ZM131.285 122.01H132.877V115.452C132.877 114.048 133.983 113.023 135.495 113.023C135.92 113.023 136.358 113.104 136.466 113.131V111.512C136.284 111.498 135.866 111.485 135.63 111.485C134.388 111.485 133.309 112.186 132.931 113.212H132.823V111.646H131.285V122.01ZM138.327 122.118C138.995 122.118 139.541 121.572 139.541 120.904C139.541 120.236 138.995 119.689 138.327 119.689C137.659 119.689 137.112 120.236 137.112 120.904C137.112 121.572 137.659 122.118 138.327 122.118Z" fill="#7B7B7B"/>
<path d="M7.9297 7H5.17189L1.19533 9.55469V12.2109L4.93752 9.82031H5.03127V23H7.9297V7ZM17.9063 23.3047C21.7656 23.3125 24.0703 20.2656 24.0703 15.0156C24.0703 9.79687 21.75 6.78125 17.9063 6.78125C14.0625 6.78125 11.75 9.78906 11.7422 15.0156C11.7422 20.2578 14.0469 23.3047 17.9063 23.3047ZM17.9063 20.8594C15.9141 20.8594 14.6641 18.8594 14.6719 15.0156C14.6797 11.2031 15.9219 9.19531 17.9063 9.19531C19.8985 9.19531 21.1406 11.2031 21.1485 15.0156C21.1485 18.8594 19.9063 20.8594 17.9063 20.8594ZM32.5801 23.3047C36.4395 23.3125 38.7442 20.2656 38.7442 15.0156C38.7442 9.79687 36.4238 6.78125 32.5801 6.78125C28.7363 6.78125 26.4238 9.78906 26.416 15.0156C26.416 20.2578 28.7207 23.3047 32.5801 23.3047ZM32.5801 20.8594C30.5879 20.8594 29.3379 18.8594 29.3457 15.0156C29.3535 11.2031 30.5957 9.19531 32.5801 9.19531C34.5723 9.19531 35.8145 11.2031 35.8223 15.0156C35.8223 18.8594 34.5801 20.8594 32.5801 20.8594ZM49.8945 20C49.9024 21.8594 51.082 23.4453 53.2774 23.4453C55.4649 23.4453 56.668 21.8594 56.6602 20V19.1562C56.668 17.2812 55.4961 15.7109 53.2774 15.7109C51.1133 15.7109 49.9024 17.2969 49.8945 19.1562V20ZM41.7617 10.8438C41.7695 12.7031 42.9492 14.2734 45.1524 14.2734C47.332 14.2734 48.5352 12.7187 48.5274 10.8438V10C48.5352 8.125 47.3633 6.55469 45.1524 6.55469C42.9961 6.55469 41.7695 8.125 41.7617 10V10.8438ZM42.4649 23H44.4258L55.4258 7H53.4649L42.4649 23ZM51.9336 19.1562C51.9414 18.3281 52.293 17.4922 53.2774 17.4922C54.3086 17.4922 54.6133 18.3281 54.6055 19.1562V20C54.6133 20.8281 54.2774 21.6484 53.2774 21.6484C52.2774 21.6484 51.9414 20.8203 51.9336 20V19.1562ZM43.8164 10C43.8242 9.17969 44.1602 8.33594 45.1524 8.33594C46.1836 8.33594 46.4805 9.17188 46.4727 10V10.8438C46.4805 11.6719 46.1524 12.4922 45.1524 12.4922C44.1524 12.4922 43.8242 11.6719 43.8164 10.8438V10ZM71.4688 11H68.9766V10.0547C68.9766 9.11719 69.3672 8.59375 70.4219 8.59375C70.8672 8.59375 71.2422 8.69531 71.4766 8.76562L72.0469 6.57812C71.6797 6.45312 70.875 6.25 69.8985 6.25C67.8125 6.25 66.1485 7.44531 66.1485 9.86719V11H64.375V13.1875H66.1485V23H68.9766V13.1875H71.4688V11ZM78.4668 23.2344C81.9824 23.2344 84.2168 20.7578 84.2168 17.0469C84.2168 13.3281 81.9824 10.8438 78.4668 10.8438C74.9512 10.8438 72.7168 13.3281 72.7168 17.0469C72.7168 20.7578 74.9512 23.2344 78.4668 23.2344ZM78.4824 20.9687C76.5371 20.9687 75.584 19.2344 75.584 17.0391C75.584 14.8437 76.5371 13.0859 78.4824 13.0859C80.3965 13.0859 81.3496 14.8437 81.3496 17.0391C81.3496 19.2344 80.3965 20.9687 78.4824 20.9687ZM91.8516 23.2344C94.8672 23.2344 96.7891 21.4453 96.9922 18.8984H94.2891C94.0469 20.1875 93.1172 20.9297 91.875 20.9297C90.1094 20.9297 88.9688 19.4531 88.9688 17C88.9688 14.5781 90.1328 13.125 91.875 13.125C93.2344 13.125 94.0703 14 94.2891 15.1562H96.9922C96.7969 12.5547 94.7656 10.8438 91.836 10.8438C88.3203 10.8438 86.1016 13.3828 86.1016 17.0469C86.1016 20.6797 88.2656 23.2344 91.8516 23.2344ZM102.768 23.2422C104.65 23.2422 105.775 22.3594 106.291 21.3516H106.385V23H109.104V14.9687C109.104 11.7969 106.518 10.8438 104.229 10.8438C101.705 10.8438 99.7676 11.9687 99.1426 14.1562L101.783 14.5312C102.064 13.7109 102.861 13.0078 104.244 13.0078C105.557 13.0078 106.275 13.6797 106.275 14.8594V14.9062C106.275 15.7188 105.424 15.7578 103.307 15.9844C100.979 16.2344 98.752 16.9297 98.752 19.6328C98.752 21.9922 100.479 23.2422 102.768 23.2422ZM103.502 21.1641C102.322 21.1641 101.479 20.625 101.479 19.5859C101.479 18.5 102.424 18.0469 103.689 17.8672C104.432 17.7656 105.916 17.5781 106.283 17.2812V18.6953C106.283 20.0312 105.205 21.1641 103.502 21.1641ZM116.4 23.2109C118.463 23.2109 119.393 21.9844 119.838 21.1094H120.01V23H122.791V7H119.955V12.9844H119.838C119.408 12.1172 118.525 10.8438 116.408 10.8438C113.635 10.8438 111.455 13.0156 111.455 17.0156C111.455 20.9687 113.572 23.2109 116.4 23.2109ZM117.189 20.8906C115.322 20.8906 114.338 19.25 114.338 17C114.338 14.7656 115.307 13.1641 117.189 13.1641C119.01 13.1641 120.01 14.6719 120.01 17C120.01 19.3281 118.994 20.8906 117.189 20.8906ZM131.039 23.2344C134.555 23.2344 136.789 20.7578 136.789 17.0469C136.789 13.3281 134.555 10.8438 131.039 10.8438C127.523 10.8438 125.289 13.3281 125.289 17.0469C125.289 20.7578 127.523 23.2344 131.039 23.2344ZM131.055 20.9687C129.109 20.9687 128.156 19.2344 128.156 17.0391C128.156 14.8437 129.109 13.0859 131.055 13.0859C132.969 13.0859 133.922 14.8437 133.922 17.0391C133.922 19.2344 132.969 20.9687 131.055 20.9687ZM147.475 15.9687C147.475 14.2344 148.521 13.2344 150.014 13.2344C151.475 13.2344 152.35 14.1953 152.35 15.7969V23H155.178V15.3594C155.186 12.4844 153.545 10.8438 151.068 10.8438C149.271 10.8438 148.037 11.7031 147.49 13.0391H147.35V11H144.646V23H147.475V15.9687ZM161.506 23.2422C163.389 23.2422 164.514 22.3594 165.029 21.3516H165.123V23H167.842V14.9687C167.842 11.7969 165.256 10.8438 162.967 10.8438C160.443 10.8438 158.506 11.9687 157.881 14.1562L160.521 14.5312C160.803 13.7109 161.6 13.0078 162.982 13.0078C164.295 13.0078 165.014 13.6797 165.014 14.8594V14.9062C165.014 15.7188 164.162 15.7578 162.045 15.9844C159.717 16.2344 157.49 16.9297 157.49 19.6328C157.49 21.9922 159.217 23.2422 161.506 23.2422ZM162.24 21.1641C161.061 21.1641 160.217 20.625 160.217 19.5859C160.217 18.5 161.162 18.0469 162.428 17.8672C163.17 17.7656 164.654 17.5781 165.021 17.2812V18.6953C165.021 20.0312 163.943 21.1641 162.24 21.1641ZM176.268 7V23H179.049V11.9844H179.197L183.619 22.9531H185.697L190.119 12.0078H190.268V23H193.049V7H189.502L184.752 18.5937H184.564L179.814 7H176.268ZM199.533 23.2422C201.416 23.2422 202.541 22.3594 203.057 21.3516H203.15V23H205.869V14.9687C205.869 11.7969 203.283 10.8438 200.994 10.8438C198.471 10.8438 196.533 11.9687 195.908 14.1562L198.549 14.5312C198.83 13.7109 199.627 13.0078 201.01 13.0078C202.322 13.0078 203.041 13.6797 203.041 14.8594V14.9062C203.041 15.7188 202.189 15.7578 200.072 15.9844C197.744 16.2344 195.518 16.9297 195.518 19.6328C195.518 21.9922 197.244 23.2422 199.533 23.2422ZM200.268 21.1641C199.088 21.1641 198.244 20.625 198.244 19.5859C198.244 18.5 199.189 18.0469 200.455 17.8672C201.197 17.7656 202.682 17.5781 203.049 17.2812V18.6953C203.049 20.0312 201.971 21.1641 200.268 21.1641ZM214.705 11H212.338V8.125H209.51V11H207.807V13.1875H209.51V19.8594C209.494 22.1172 211.135 23.2266 213.26 23.1641C214.064 23.1406 214.619 22.9844 214.924 22.8828L214.447 20.6719C214.291 20.7109 213.971 20.7812 213.619 20.7812C212.908 20.7812 212.338 20.5312 212.338 19.3906V13.1875H214.705V11ZM222.254 23.2344C225.051 23.2344 226.973 21.8672 227.473 19.7812L224.832 19.4844C224.449 20.5 223.512 21.0312 222.293 21.0312C220.465 21.0312 219.254 19.8281 219.23 17.7734H227.59V16.9062C227.59 12.6953 225.059 10.8438 222.105 10.8438C218.668 10.8438 216.426 13.3672 216.426 17.0703C216.426 20.8359 218.637 23.2344 222.254 23.2344ZM219.238 15.8672C219.324 14.3359 220.457 13.0469 222.145 13.0469C223.77 13.0469 224.863 14.2344 224.879 15.8672H219.238ZM229.982 23H232.811V15.7031C232.811 14.2266 233.795 13.2266 235.014 13.2266C236.209 13.2266 237.029 14.0312 237.029 15.2656V23H239.803V15.5156C239.803 14.1641 240.607 13.2266 241.975 13.2266C243.115 13.2266 244.022 13.8984 244.022 15.3828V23H246.857V14.9453C246.857 12.2656 245.311 10.8438 243.107 10.8438C241.365 10.8438 240.037 11.7031 239.506 13.0391H239.381C238.92 11.6797 237.756 10.8438 236.139 10.8438C234.529 10.8438 233.326 11.6719 232.826 13.0391H232.686V11H229.982V23ZM253.18 23.2422C255.063 23.2422 256.188 22.3594 256.703 21.3516H256.797V23H259.516V14.9687C259.516 11.7969 256.93 10.8438 254.641 10.8438C252.117 10.8438 250.18 11.9687 249.555 14.1562L252.195 14.5312C252.477 13.7109 253.273 13.0078 254.656 13.0078C255.969 13.0078 256.688 13.6797 256.688 14.8594V14.9062C256.688 15.7188 255.836 15.7578 253.719 15.9844C251.391 16.2344 249.164 16.9297 249.164 19.6328C249.164 21.9922 250.891 23.2422 253.18 23.2422ZM253.914 21.1641C252.734 21.1641 251.891 20.625 251.891 19.5859C251.891 18.5 252.836 18.0469 254.102 17.8672C254.844 17.7656 256.328 17.5781 256.695 17.2812V18.6953C256.695 20.0312 255.617 21.1641 253.914 21.1641ZM253.68 9.42188H255.797L258.195 5.85156H255.43L253.68 9.42188ZM268.352 11H265.984V8.125H263.156V11H261.453V13.1875H263.156V19.8594C263.141 22.1172 264.781 23.2266 266.906 23.1641C267.711 23.1406 268.266 22.9844 268.57 22.8828L268.094 20.6719C267.938 20.7109 267.617 20.7812 267.266 20.7812C266.555 20.7812 265.984 20.5312 265.984 19.3906V13.1875H268.352V11ZM270.717 23H273.545V11H270.717V23ZM272.139 9.29688C273.037 9.29688 273.771 8.60938 273.771 7.76562C273.771 6.91406 273.037 6.22656 272.139 6.22656C271.232 6.22656 270.498 6.91406 270.498 7.76562C270.498 8.60938 271.232 9.29688 272.139 9.29688ZM281.688 23.2344C284.703 23.2344 286.625 21.4453 286.828 18.8984H284.125C283.883 20.1875 282.953 20.9297 281.711 20.9297C279.945 20.9297 278.805 19.4531 278.805 17C278.805 14.5781 279.969 13.125 281.711 13.125C283.07 13.125 283.906 14 284.125 15.1562H286.828C286.633 12.5547 284.602 10.8438 281.672 10.8438C278.156 10.8438 275.938 13.3828 275.938 17.0469C275.938 20.6797 278.102 23.2344 281.688 23.2344ZM292.604 23.2422C294.486 23.2422 295.611 22.3594 296.127 21.3516H296.221V23H298.939V14.9687C298.939 11.7969 296.354 10.8438 294.064 10.8438C291.541 10.8438 289.604 11.9687 288.979 14.1562L291.619 14.5312C291.9 13.7109 292.697 13.0078 294.08 13.0078C295.393 13.0078 296.111 13.6797 296.111 14.8594V14.9062C296.111 15.7188 295.26 15.7578 293.143 15.9844C290.814 16.2344 288.588 16.9297 288.588 19.6328C288.588 21.9922 290.314 23.2422 292.604 23.2422ZM293.338 21.1641C292.158 21.1641 291.314 20.625 291.314 19.5859C291.314 18.5 292.26 18.0469 293.525 17.8672C294.268 17.7656 295.752 17.5781 296.119 17.2812V18.6953C296.119 20.0312 295.041 21.1641 293.338 21.1641Z" fill="#252160"/>
</svg>
