<svg width="403" height="141" viewBox="0 0 403 141" fill="none" xmlns="http://www.w3.org/2000/svg">
<path d="M0.917614 49.6662H5.26278V62H6.93608V49.6662H11.2812V48.1818H0.917614V49.6662ZM16.3551 62.2159C19.1619 62.2159 21.0511 60.0838 21.0511 56.8722C21.0511 53.6335 19.1619 51.5014 16.3551 51.5014C13.5483 51.5014 11.6591 53.6335 11.6591 56.8722C11.6591 60.0838 13.5483 62.2159 16.3551 62.2159ZM16.3551 60.7855C14.223 60.7855 13.2514 58.9503 13.2514 56.8722C13.2514 54.794 14.223 52.9318 16.3551 52.9318C18.4872 52.9318 19.4588 54.794 19.4588 56.8722C19.4588 58.9503 18.4872 60.7855 16.3551 60.7855ZM27.3952 62.2159C29.3923 62.2159 30.067 60.9744 30.4179 60.4077H30.6068V62H32.1452V48.1818H30.5528V53.2827H30.4179C30.067 52.7429 29.4463 51.5014 27.4221 51.5014C24.8042 51.5014 22.996 53.5795 22.996 56.8452C22.996 60.1378 24.8042 62.2159 27.3952 62.2159ZM27.6111 60.7855C25.6139 60.7855 24.5883 59.0312 24.5883 56.8182C24.5883 54.6321 25.5869 52.9318 27.6111 52.9318C29.5542 52.9318 30.5798 54.4972 30.5798 56.8182C30.5798 59.1662 29.5273 60.7855 27.6111 60.7855ZM39.4928 62.2159C42.2996 62.2159 44.1888 60.0838 44.1888 56.8722C44.1888 53.6335 42.2996 51.5014 39.4928 51.5014C36.686 51.5014 34.7968 53.6335 34.7968 56.8722C34.7968 60.0838 36.686 62.2159 39.4928 62.2159ZM39.4928 60.7855C37.3607 60.7855 36.3891 58.9503 36.3891 56.8722C36.3891 54.794 37.3607 52.9318 39.4928 52.9318C41.6249 52.9318 42.5965 54.794 42.5965 56.8722C42.5965 58.9503 41.6249 60.7855 39.4928 60.7855ZM56.1735 62.2159C58.9803 62.2159 60.8695 60.0838 60.8695 56.8722C60.8695 53.6335 58.9803 51.5014 56.1735 51.5014C53.3667 51.5014 51.4775 53.6335 51.4775 56.8722C51.4775 60.0838 53.3667 62.2159 56.1735 62.2159ZM56.1735 60.7855C54.0414 60.7855 53.0698 58.9503 53.0698 56.8722C53.0698 54.794 54.0414 52.9318 56.1735 52.9318C58.3056 52.9318 59.2772 54.794 59.2772 56.8722C59.2772 58.9503 58.3056 60.7855 56.1735 60.7855ZM75.9848 53.9574C75.4855 52.4865 74.3655 51.5014 72.3144 51.5014C70.1283 51.5014 68.509 52.7429 68.509 54.4972C68.509 55.9276 69.3591 56.8857 71.2618 57.331L72.9891 57.7358C74.0349 57.9787 74.5274 58.478 74.5274 59.1932C74.5274 60.0838 73.5828 60.8125 72.0985 60.8125C70.7963 60.8125 69.9798 60.2525 69.6965 59.1392L68.1851 59.517C68.5562 61.2781 70.0068 62.2159 72.1254 62.2159C74.5342 62.2159 76.1737 60.9002 76.1737 59.1122C76.1737 57.6683 75.2696 56.7575 73.4209 56.3054L71.8825 55.9276C70.6546 55.6239 70.1013 55.2124 70.1013 54.4162C70.1013 53.5256 71.0459 52.8778 72.3144 52.8778C73.7043 52.8778 74.2778 53.647 74.5544 54.3622L75.9848 53.9574ZM85.1019 57.7628C85.1019 59.706 83.6175 60.5966 82.43 60.5966C81.1076 60.5966 80.163 59.625 80.163 58.1136V51.6364H78.5707V58.2216C78.5707 60.8665 79.9741 62.1349 81.9173 62.1349C83.4826 62.1349 84.5082 61.2983 84.994 60.2457H85.1019V62H86.6942V51.6364H85.1019V57.7628ZM89.6107 65.8864H91.203V60.4077H91.338C91.6888 60.9744 92.3635 62.2159 94.3607 62.2159C96.9516 62.2159 98.7599 60.1378 98.7599 56.8452C98.7599 53.5795 96.9516 51.5014 94.3337 51.5014C92.3096 51.5014 91.6888 52.7429 91.338 53.2827H91.1491V51.6364H89.6107V65.8864ZM91.176 56.8182C91.176 54.4972 92.2016 52.9318 94.1448 52.9318C96.1689 52.9318 97.1675 54.6321 97.1675 56.8182C97.1675 59.0312 96.142 60.7855 94.1448 60.7855C92.2286 60.7855 91.176 59.1662 91.176 56.8182ZM105.399 62.2159C108.206 62.2159 110.095 60.0838 110.095 56.8722C110.095 53.6335 108.206 51.5014 105.399 51.5014C102.592 51.5014 100.703 53.6335 100.703 56.8722C100.703 60.0838 102.592 62.2159 105.399 62.2159ZM105.399 60.7855C103.267 60.7855 102.295 58.9503 102.295 56.8722C102.295 54.794 103.267 52.9318 105.399 52.9318C107.531 52.9318 108.503 54.794 108.503 56.8722C108.503 58.9503 107.531 60.7855 105.399 60.7855ZM112.526 62H114.118V55.4418C114.118 54.0384 115.225 53.0128 116.736 53.0128C117.161 53.0128 117.6 53.0938 117.708 53.1207V51.5014C117.525 51.4879 117.107 51.4744 116.871 51.4744C115.629 51.4744 114.55 52.1761 114.172 53.2017H114.064V51.6364H112.526V62ZM124.752 51.6364H122.539V49.1534H120.946V51.6364H119.381V52.9858H120.946V59.4631C120.946 61.2713 122.404 62.1349 123.753 62.1349C124.347 62.1349 124.725 62.027 124.941 61.946L124.617 60.5156C124.482 60.5426 124.266 60.5966 123.915 60.5966C123.213 60.5966 122.539 60.3807 122.539 59.0312V52.9858H124.752V51.6364ZM131.381 62.2159C133.486 62.2159 135.024 61.1634 135.51 59.598L133.972 59.1662C133.567 60.2457 132.629 60.7855 131.381 60.7855C129.512 60.7855 128.223 59.5778 128.149 57.358H135.672V56.6832C135.672 52.8239 133.378 51.5014 131.219 51.5014C128.412 51.5014 126.55 53.7145 126.55 56.8991C126.55 60.0838 128.385 62.2159 131.381 62.2159ZM128.149 55.9815C128.257 54.369 129.397 52.9318 131.219 52.9318C132.946 52.9318 134.053 54.2273 134.053 55.9815H128.149ZM152.101 65.8864V51.6364H150.563V53.2827H150.374C150.023 52.7429 149.402 51.5014 147.378 51.5014C144.76 51.5014 142.952 53.5795 142.952 56.8452C142.952 60.1378 144.76 62.2159 147.351 62.2159C149.348 62.2159 150.023 60.9744 150.374 60.4077H150.509V65.8864H152.101ZM150.536 56.8182C150.536 59.1662 149.483 60.7855 147.567 60.7855C145.57 60.7855 144.544 59.0312 144.544 56.8182C144.544 54.6321 145.543 52.9318 147.567 52.9318C149.51 52.9318 150.536 54.4972 150.536 56.8182ZM161.547 57.7628C161.547 59.706 160.063 60.5966 158.875 60.5966C157.553 60.5966 156.608 59.625 156.608 58.1136V51.6364H155.016V58.2216C155.016 60.8665 156.419 62.1349 158.363 62.1349C159.928 62.1349 160.953 61.2983 161.439 60.2457H161.547V62H163.14V51.6364H161.547V57.7628ZM170.401 62.2159C172.506 62.2159 174.045 61.1634 174.53 59.598L172.992 59.1662C172.587 60.2457 171.649 60.7855 170.401 60.7855C168.532 60.7855 167.244 59.5778 167.169 57.358H174.692V56.6832C174.692 52.8239 172.398 51.5014 170.239 51.5014C167.432 51.5014 165.57 53.7145 165.57 56.8991C165.57 60.0838 167.405 62.2159 170.401 62.2159ZM167.169 55.9815C167.277 54.369 168.418 52.9318 170.239 52.9318C171.967 52.9318 173.073 54.2273 173.073 55.9815H167.169ZM190.933 51.6364H189.206L186.345 59.8949H186.237L183.376 51.6364H181.649L185.481 62H187.1L190.933 51.6364ZM196.874 62.2159C199.68 62.2159 201.57 60.0838 201.57 56.8722C201.57 53.6335 199.68 51.5014 196.874 51.5014C194.067 51.5014 192.178 53.6335 192.178 56.8722C192.178 60.0838 194.067 62.2159 196.874 62.2159ZM196.874 60.7855C194.742 60.7855 193.77 58.9503 193.77 56.8722C193.77 54.794 194.742 52.9318 196.874 52.9318C199.006 52.9318 199.977 54.794 199.977 56.8722C199.977 58.9503 199.006 60.7855 196.874 60.7855ZM208.211 62.2159C210.505 62.2159 212.016 60.8125 212.286 58.9773H210.694C210.397 60.1108 209.452 60.7855 208.211 60.7855C206.321 60.7855 205.107 59.2202 205.107 56.8182C205.107 54.4702 206.348 52.9318 208.211 52.9318C209.614 52.9318 210.451 53.7955 210.694 54.7401H212.286C212.016 52.7969 210.37 51.5014 208.184 51.5014C205.377 51.5014 203.515 53.7145 203.515 56.8722C203.515 59.9759 205.296 62.2159 208.211 62.2159ZM218.959 62.2159C221.064 62.2159 222.602 61.1634 223.088 59.598L221.55 59.1662C221.145 60.2457 220.207 60.7855 218.959 60.7855C217.09 60.7855 215.801 59.5778 215.727 57.358H223.25V56.6832C223.25 52.8239 220.956 51.5014 218.797 51.5014C215.99 51.5014 214.128 53.7145 214.128 56.8991C214.128 60.0838 215.963 62.2159 218.959 62.2159ZM215.727 55.9815C215.835 54.369 216.975 52.9318 218.797 52.9318C220.524 52.9318 221.631 54.2273 221.631 55.9815H215.727ZM217.312 50.3949L218.716 48.5057L220.119 50.3949H221.631V50.2869L219.445 47.4801H217.987L215.801 50.2869V50.3949H217.312ZM231.016 65.8864H232.608V60.4077H232.743C233.094 60.9744 233.769 62.2159 235.766 62.2159C238.357 62.2159 240.165 60.1378 240.165 56.8452C240.165 53.5795 238.357 51.5014 235.739 51.5014C233.715 51.5014 233.094 52.7429 232.743 53.2827H232.554V51.6364H231.016V65.8864ZM232.581 56.8182C232.581 54.4972 233.607 52.9318 235.55 52.9318C237.574 52.9318 238.573 54.6321 238.573 56.8182C238.573 59.0312 237.547 60.7855 235.55 60.7855C233.634 60.7855 232.581 59.1662 232.581 56.8182ZM242.594 62H244.186V55.4418C244.186 54.0384 245.293 53.0128 246.804 53.0128C247.229 53.0128 247.668 53.0938 247.776 53.1207V51.5014C247.594 51.4879 247.175 51.4744 246.939 51.4744C245.698 51.4744 244.618 52.1761 244.24 53.2017H244.132V51.6364H242.594V62ZM253.693 62.2159C255.798 62.2159 257.337 61.1634 257.822 59.598L256.284 59.1662C255.879 60.2457 254.941 60.7855 253.693 60.7855C251.824 60.7855 250.536 59.5778 250.461 57.358H257.984V56.6832C257.984 52.8239 255.69 51.5014 253.531 51.5014C250.724 51.5014 248.862 53.7145 248.862 56.8991C248.862 60.0838 250.697 62.2159 253.693 62.2159ZM250.461 55.9815C250.569 54.369 251.71 52.9318 253.531 52.9318C255.259 52.9318 256.365 54.2273 256.365 55.9815H250.461ZM264.617 62.2159C266.911 62.2159 268.422 60.8125 268.692 58.9773H267.1C266.803 60.1108 265.858 60.7855 264.617 60.7855C262.728 60.7855 261.513 59.2202 261.513 56.8182C261.513 54.4702 262.755 52.9318 264.617 52.9318C266.02 52.9318 266.857 53.7955 267.1 54.7401H268.692C268.422 52.7969 266.776 51.5014 264.59 51.5014C261.783 51.5014 259.921 53.7145 259.921 56.8722C259.921 59.9759 261.702 62.2159 264.617 62.2159ZM271.02 62H272.612V51.6364H271.02V62ZM271.83 49.9091C272.45 49.9091 272.963 49.4233 272.963 48.8295C272.963 48.2358 272.45 47.75 271.83 47.75C271.209 47.75 270.696 48.2358 270.696 48.8295C270.696 49.4233 271.209 49.9091 271.83 49.9091ZM282.87 53.9574C282.37 52.4865 281.25 51.5014 279.199 51.5014C277.013 51.5014 275.394 52.7429 275.394 54.4972C275.394 55.9276 276.244 56.8857 278.147 57.331L279.874 57.7358C280.92 57.9787 281.412 58.478 281.412 59.1932C281.412 60.0838 280.468 60.8125 278.983 60.8125C277.681 60.8125 276.865 60.2525 276.581 59.1392L275.07 59.517C275.441 61.2781 276.892 62.2159 279.01 62.2159C281.419 62.2159 283.059 60.9002 283.059 59.1122C283.059 57.6683 282.154 56.7575 280.306 56.3054L278.767 55.9276C277.539 55.6239 276.986 55.2124 276.986 54.4162C276.986 53.5256 277.931 52.8778 279.199 52.8778C280.589 52.8778 281.163 53.647 281.439 54.3622L282.87 53.9574ZM288.505 62.2429C290.313 62.2429 291.258 61.2713 291.582 60.5966H291.663V62H293.255V55.1719C293.255 51.8793 290.745 51.5014 289.423 51.5014C287.857 51.5014 286.076 52.0412 285.267 53.9304L286.778 54.4702C287.129 53.7145 287.959 52.9048 289.477 52.9048C290.941 52.9048 291.663 53.6808 291.663 55.0099V55.0639C291.663 55.8331 290.88 55.7656 288.991 56.0085C287.068 56.2582 284.97 56.6832 284.97 59.0582C284.97 61.0824 286.535 62.2429 288.505 62.2429ZM288.748 60.8125C287.48 60.8125 286.562 60.2457 286.562 59.1392C286.562 57.9247 287.669 57.5469 288.91 57.3849C289.585 57.304 291.393 57.1151 291.663 56.7912V58.2486C291.663 59.544 290.637 60.8125 288.748 60.8125ZM301.505 65.8864H303.098V60.4077H303.233C303.583 60.9744 304.258 62.2159 306.255 62.2159C308.846 62.2159 310.654 60.1378 310.654 56.8452C310.654 53.5795 308.846 51.5014 306.228 51.5014C304.204 51.5014 303.583 52.7429 303.233 53.2827H303.044V51.6364H301.505V65.8864ZM303.071 56.8182C303.071 54.4972 304.096 52.9318 306.039 52.9318C308.063 52.9318 309.062 54.6321 309.062 56.8182C309.062 59.0312 308.036 60.7855 306.039 60.7855C304.123 60.7855 303.071 59.1662 303.071 56.8182ZM316.133 62.2429C317.941 62.2429 318.886 61.2713 319.21 60.5966H319.291V62H320.883V55.1719C320.883 51.8793 318.373 51.5014 317.051 51.5014C315.485 51.5014 313.704 52.0412 312.894 53.9304L314.406 54.4702C314.757 53.7145 315.587 52.9048 317.105 52.9048C318.569 52.9048 319.291 53.6808 319.291 55.0099V55.0639C319.291 55.8331 318.508 55.7656 316.619 56.0085C314.696 56.2582 312.598 56.6832 312.598 59.0582C312.598 61.0824 314.163 62.2429 316.133 62.2429ZM316.376 60.8125C315.108 60.8125 314.19 60.2457 314.19 59.1392C314.19 57.9247 315.296 57.5469 316.538 57.3849C317.213 57.304 319.021 57.1151 319.291 56.7912V58.2486C319.291 59.544 318.265 60.8125 316.376 60.8125ZM323.789 62H325.382V55.4418C325.382 54.0384 326.488 53.0128 328 53.0128C328.425 53.0128 328.863 53.0938 328.971 53.1207V51.5014C328.789 51.4879 328.371 51.4744 328.135 51.4744C326.893 51.4744 325.814 52.1761 325.436 53.2017H325.328V51.6364H323.789V62ZM333.908 62.2429C335.717 62.2429 336.661 61.2713 336.985 60.5966H337.066V62H338.658V55.1719C338.658 51.8793 336.149 51.5014 334.826 51.5014C333.261 51.5014 331.479 52.0412 330.67 53.9304L332.181 54.4702C332.532 53.7145 333.362 52.9048 334.88 52.9048C336.344 52.9048 337.066 53.6808 337.066 55.0099V55.0639C337.066 55.8331 336.283 55.7656 334.394 56.0085C332.471 56.2582 330.373 56.6832 330.373 59.0582C330.373 61.0824 331.938 62.2429 333.908 62.2429ZM334.151 60.8125C332.883 60.8125 331.965 60.2457 331.965 59.1392C331.965 57.9247 333.072 57.5469 334.313 57.3849C334.988 57.304 336.796 57.1151 337.066 56.7912V58.2486C337.066 59.544 336.041 60.8125 334.151 60.8125ZM4.5071 92.2429C6.31534 92.2429 7.25994 91.2713 7.58381 90.5966H7.66477V92H9.2571V85.1719C9.2571 81.8793 6.74716 81.5014 5.42472 81.5014C3.85938 81.5014 2.07812 82.0412 1.26847 83.9304L2.77983 84.4702C3.13068 83.7145 3.96058 82.9048 5.47869 82.9048C6.94283 82.9048 7.66477 83.6808 7.66477 85.0099V85.0639C7.66477 85.8331 6.8821 85.7656 4.9929 86.0085C3.06996 86.2582 0.971591 86.6832 0.971591 89.0582C0.971591 91.0824 2.53693 92.2429 4.5071 92.2429ZM4.75 90.8125C3.48153 90.8125 2.56392 90.2457 2.56392 89.1392C2.56392 87.9247 3.67045 87.5469 4.91193 87.3849C5.58665 87.304 7.39489 87.1151 7.66477 86.7912V88.2486C7.66477 89.544 6.63921 90.8125 4.75 90.8125ZM12.1634 95.8864H13.7558V90.4077H13.8907C14.2416 90.9744 14.9163 92.2159 16.9134 92.2159C19.5044 92.2159 21.3126 90.1378 21.3126 86.8452C21.3126 83.5795 19.5044 81.5014 16.8865 81.5014C14.8623 81.5014 14.2416 82.7429 13.8907 83.2827H13.7018V81.6364H12.1634V95.8864ZM13.7288 86.8182C13.7288 84.4972 14.7544 82.9318 16.6975 82.9318C18.7217 82.9318 19.7203 84.6321 19.7203 86.8182C19.7203 89.0312 18.6947 90.7855 16.6975 90.7855C14.7813 90.7855 13.7288 89.1662 13.7288 86.8182ZM23.7416 92H25.3339V85.4418C25.3339 84.0384 26.4404 83.0128 27.9518 83.0128C28.3769 83.0128 28.8154 83.0938 28.9234 83.1207V81.5014C28.7412 81.4879 28.3229 81.4744 28.0867 81.4744C26.8453 81.4744 25.7657 82.1761 25.3879 83.2017H25.2799V81.6364H23.7416V92ZM34.8406 92.2159C36.9458 92.2159 38.4841 91.1634 38.9699 89.598L37.4316 89.1662C37.0267 90.2457 36.0889 90.7855 34.8406 90.7855C32.9717 90.7855 31.683 89.5778 31.6088 87.358H39.1318V86.6832C39.1318 82.8239 36.8378 81.5014 34.6787 81.5014C31.8719 81.5014 30.0097 83.7145 30.0097 86.8991C30.0097 90.0838 31.8449 92.2159 34.8406 92.2159ZM31.6088 85.9815C31.7167 84.369 32.857 82.9318 34.6787 82.9318C36.406 82.9318 37.5125 84.2273 37.5125 85.9815H31.6088ZM43.1464 85.7656C43.1464 83.9574 44.2664 82.9318 45.7913 82.9318C47.2689 82.9318 48.1663 83.8967 48.1663 85.5227V92H49.7586V85.4148C49.7586 82.7699 48.3485 81.5014 46.2501 81.5014C44.6847 81.5014 43.7132 82.2031 43.2274 83.2557H43.0924V81.6364H41.5541V92H43.1464V85.7656ZM56.5817 92.2159C58.5788 92.2159 59.2536 90.9744 59.6044 90.4077H59.7933V92H61.3317V78.1818H59.7393V83.2827H59.6044C59.2536 82.7429 58.6328 81.5014 56.6087 81.5014C53.9908 81.5014 52.1825 83.5795 52.1825 86.8452C52.1825 90.1378 53.9908 92.2159 56.5817 92.2159ZM56.7976 90.7855C54.8004 90.7855 53.7749 89.0312 53.7749 86.8182C53.7749 84.6321 54.7734 82.9318 56.7976 82.9318C58.7408 82.9318 59.7663 84.4972 59.7663 86.8182C59.7663 89.1662 58.7138 90.7855 56.7976 90.7855ZM68.8143 92.2159C70.9194 92.2159 72.4577 91.1634 72.9435 89.598L71.4052 89.1662C71.0004 90.2457 70.0625 90.7855 68.8143 90.7855C66.9453 90.7855 65.6566 89.5778 65.5824 87.358H73.1055V86.6832C73.1055 82.8239 70.8114 81.5014 68.6523 81.5014C65.8455 81.5014 63.9833 83.7145 63.9833 86.8991C63.9833 90.0838 65.8185 92.2159 68.8143 92.2159ZM65.5824 85.9815C65.6903 84.369 66.8306 82.9318 68.6523 82.9318C70.3796 82.9318 71.4862 84.2273 71.4862 85.9815H65.5824ZM75.5277 92H77.12V85.4418C77.12 84.0384 78.2266 83.0128 79.7379 83.0128C80.163 83.0128 80.6016 83.0938 80.7095 83.1207V81.5014C80.5273 81.4879 80.109 81.4744 79.8729 81.4744C78.6314 81.4744 77.5518 82.1761 77.174 83.2017H77.0661V81.6364H75.5277V92ZM92.151 92.2159C94.9578 92.2159 96.847 90.0838 96.847 86.8722C96.847 83.6335 94.9578 81.5014 92.151 81.5014C89.3442 81.5014 87.455 83.6335 87.455 86.8722C87.455 90.0838 89.3442 92.2159 92.151 92.2159ZM92.151 90.7855C90.0189 90.7855 89.0473 88.9503 89.0473 86.8722C89.0473 84.794 90.0189 82.9318 92.151 82.9318C94.2831 82.9318 95.2547 84.794 95.2547 86.8722C95.2547 88.9503 94.2831 90.7855 92.151 90.7855ZM108.832 92.2159C111.126 92.2159 112.637 90.8125 112.907 88.9773H111.315C111.018 90.1108 110.073 90.7855 108.832 90.7855C106.942 90.7855 105.728 89.2202 105.728 86.8182C105.728 84.4702 106.969 82.9318 108.832 82.9318C110.235 82.9318 111.072 83.7955 111.315 84.7401H112.907C112.637 82.7969 110.991 81.5014 108.805 81.5014C105.998 81.5014 104.136 83.7145 104.136 86.8722C104.136 89.9759 105.917 92.2159 108.832 92.2159ZM119.445 92.2159C122.252 92.2159 124.141 90.0838 124.141 86.8722C124.141 83.6335 122.252 81.5014 119.445 81.5014C116.638 81.5014 114.749 83.6335 114.749 86.8722C114.749 90.0838 116.638 92.2159 119.445 92.2159ZM119.445 90.7855C117.313 90.7855 116.341 88.9503 116.341 86.8722C116.341 84.794 117.313 82.9318 119.445 82.9318C121.577 82.9318 122.549 84.794 122.549 86.8722C122.549 88.9503 121.577 90.7855 119.445 90.7855ZM128.164 85.7656C128.164 83.9574 129.284 82.9318 130.809 82.9318C132.286 82.9318 133.184 83.8967 133.184 85.5227V92H134.776V85.4148C134.776 82.7699 133.366 81.5014 131.268 81.5014C129.702 81.5014 128.731 82.2031 128.245 83.2557H128.11V81.6364H126.572V92H128.164V85.7656ZM142.193 81.6364H139.98V79.1534H138.388V81.6364H136.822V82.9858H138.388V89.4631C138.388 91.2713 139.845 92.1349 141.194 92.1349C141.788 92.1349 142.166 92.027 142.382 91.946L142.058 90.5156C141.923 90.5426 141.707 90.5966 141.356 90.5966C140.655 90.5966 139.98 90.3807 139.98 89.0312V82.9858H142.193V81.6364ZM148.822 92.2159C150.927 92.2159 152.466 91.1634 152.951 89.598L151.413 89.1662C151.008 90.2457 150.07 90.7855 148.822 90.7855C146.953 90.7855 145.664 89.5778 145.59 87.358H153.113V86.6832C153.113 82.8239 150.819 81.5014 148.66 81.5014C145.853 81.5014 143.991 83.7145 143.991 86.8991C143.991 90.0838 145.826 92.2159 148.822 92.2159ZM145.59 85.9815C145.698 84.369 146.838 82.9318 148.66 82.9318C150.387 82.9318 151.494 84.2273 151.494 85.9815H145.59ZM162.067 87.7628C162.067 89.706 160.582 90.5966 159.395 90.5966C158.072 90.5966 157.128 89.625 157.128 88.1136V81.6364H155.536V88.2216C155.536 90.8665 156.939 92.1349 158.882 92.1349C160.447 92.1349 161.473 91.2983 161.959 90.2457H162.067V92H163.659V81.6364H162.067V87.7628ZM158.882 80.233H160.286L162.391 77.1023H160.528L158.882 80.233ZM170.489 92.2159C172.486 92.2159 173.161 90.9744 173.512 90.4077H173.701V92H175.239V78.1818H173.647V83.2827H173.512C173.161 82.7429 172.54 81.5014 170.516 81.5014C167.898 81.5014 166.09 83.5795 166.09 86.8452C166.09 90.1378 167.898 92.2159 170.489 92.2159ZM170.705 90.7855C168.708 90.7855 167.682 89.0312 167.682 86.8182C167.682 84.6321 168.681 82.9318 170.705 82.9318C172.648 82.9318 173.674 84.4972 173.674 86.8182C173.674 89.1662 172.621 90.7855 170.705 90.7855ZM182.587 92.2159C185.393 92.2159 187.283 90.0838 187.283 86.8722C187.283 83.6335 185.393 81.5014 182.587 81.5014C179.78 81.5014 177.891 83.6335 177.891 86.8722C177.891 90.0838 179.78 92.2159 182.587 92.2159ZM182.587 90.7855C180.454 90.7855 179.483 88.9503 179.483 86.8722C179.483 84.794 180.454 82.9318 182.587 82.9318C184.719 82.9318 185.69 84.794 185.69 86.8722C185.69 88.9503 184.719 90.7855 182.587 90.7855ZM198.97 92.2159C200.968 92.2159 201.642 90.9744 201.993 90.4077H202.182V92H203.72V78.1818H202.128V83.2827H201.993C201.642 82.7429 201.021 81.5014 198.997 81.5014C196.379 81.5014 194.571 83.5795 194.571 86.8452C194.571 90.1378 196.379 92.2159 198.97 92.2159ZM199.186 90.7855C197.189 90.7855 196.164 89.0312 196.164 86.8182C196.164 84.6321 197.162 82.9318 199.186 82.9318C201.129 82.9318 202.155 84.4972 202.155 86.8182C202.155 89.1662 201.102 90.7855 199.186 90.7855ZM211.068 92.2159C213.875 92.2159 215.764 90.0838 215.764 86.8722C215.764 83.6335 213.875 81.5014 211.068 81.5014C208.261 81.5014 206.372 83.6335 206.372 86.8722C206.372 90.0838 208.261 92.2159 211.068 92.2159ZM211.068 90.7855C208.936 90.7855 207.964 88.9503 207.964 86.8722C207.964 84.794 208.936 82.9318 211.068 82.9318C213.2 82.9318 214.172 84.794 214.172 86.8722C214.172 88.9503 213.2 90.7855 211.068 90.7855ZM225.536 83.9574C225.036 82.4865 223.916 81.5014 221.865 81.5014C219.679 81.5014 218.06 82.7429 218.06 84.4972C218.06 85.9276 218.91 86.8857 220.813 87.331L222.54 87.7358C223.586 87.9787 224.078 88.478 224.078 89.1932C224.078 90.0838 223.134 90.8125 221.649 90.8125C220.347 90.8125 219.531 90.2525 219.247 89.1392L217.736 89.517C218.107 91.2781 219.558 92.2159 221.676 92.2159C224.085 92.2159 225.725 90.9002 225.725 89.1122C225.725 87.6683 224.82 86.7575 222.972 86.3054L221.433 85.9276C220.205 85.6239 219.652 85.2124 219.652 84.4162C219.652 83.5256 220.597 82.8778 221.865 82.8778C223.255 82.8778 223.829 83.647 224.105 84.3622L225.536 83.9574ZM233.465 95.8864H235.058V90.4077H235.192C235.543 90.9744 236.218 92.2159 238.215 92.2159C240.806 92.2159 242.614 90.1378 242.614 86.8452C242.614 83.5795 240.806 81.5014 238.188 81.5014C236.164 81.5014 235.543 82.7429 235.192 83.2827H235.004V81.6364H233.465V95.8864ZM235.031 86.8182C235.031 84.4972 236.056 82.9318 237.999 82.9318C240.023 82.9318 241.022 84.6321 241.022 86.8182C241.022 89.0312 239.996 90.7855 237.999 90.7855C236.083 90.7855 235.031 89.1662 235.031 86.8182ZM245.043 92H246.636V85.4418C246.636 84.0384 247.742 83.0128 249.254 83.0128C249.679 83.0128 250.117 83.0938 250.225 83.1207V81.5014C250.043 81.4879 249.625 81.4744 249.388 81.4744C248.147 81.4744 247.067 82.1761 246.69 83.2017H246.582V81.6364H245.043V92ZM252.113 92H253.705V81.6364H252.113V92ZM252.922 79.9091C253.543 79.9091 254.056 79.4233 254.056 78.8295C254.056 78.2358 253.543 77.75 252.922 77.75C252.302 77.75 251.789 78.2358 251.789 78.8295C251.789 79.4233 252.302 79.9091 252.922 79.9091ZM258.214 85.7656C258.214 83.9574 259.334 82.9318 260.859 82.9318C262.336 82.9318 263.234 83.8967 263.234 85.5227V92H264.826V85.4148C264.826 82.7699 263.416 81.5014 261.317 81.5014C259.752 81.5014 258.781 82.2031 258.295 83.2557H258.16V81.6364H256.621V92H258.214V85.7656ZM271.946 92.2159C274.24 92.2159 275.751 90.8125 276.021 88.9773H274.429C274.132 90.1108 273.187 90.7855 271.946 90.7855C270.057 90.7855 268.842 89.2202 268.842 86.8182C268.842 84.4702 270.084 82.9318 271.946 82.9318C273.349 82.9318 274.186 83.7955 274.429 84.7401H276.021C275.751 82.7969 274.105 81.5014 271.919 81.5014C269.112 81.5014 267.25 83.7145 267.25 86.8722C267.25 89.9759 269.031 92.2159 271.946 92.2159ZM278.349 92H279.941V81.6364H278.349V92ZM279.159 79.9091C279.779 79.9091 280.292 79.4233 280.292 78.8295C280.292 78.2358 279.779 77.75 279.159 77.75C278.538 77.75 278.025 78.2358 278.025 78.8295C278.025 79.4233 278.538 79.9091 279.159 79.9091ZM282.858 95.8864H284.45V90.4077H284.585C284.936 90.9744 285.611 92.2159 287.608 92.2159C290.199 92.2159 292.007 90.1378 292.007 86.8452C292.007 83.5795 290.199 81.5014 287.581 81.5014C285.557 81.5014 284.936 82.7429 284.585 83.2827H284.396V81.6364H282.858V95.8864ZM284.423 86.8182C284.423 84.4972 285.449 82.9318 287.392 82.9318C289.416 82.9318 290.415 84.6321 290.415 86.8182C290.415 89.0312 289.389 90.7855 287.392 90.7855C285.476 90.7855 284.423 89.1662 284.423 86.8182ZM297.486 92.2429C299.294 92.2429 300.238 91.2713 300.562 90.5966H300.643V92H302.236V85.1719C302.236 81.8793 299.726 81.5014 298.403 81.5014C296.838 81.5014 295.057 82.0412 294.247 83.9304L295.758 84.4702C296.109 83.7145 296.939 82.9048 298.457 82.9048C299.921 82.9048 300.643 83.6808 300.643 85.0099V85.0639C300.643 85.8331 299.861 85.7656 297.971 86.0085C296.048 86.2582 293.95 86.6832 293.95 89.0582C293.95 91.0824 295.515 92.2429 297.486 92.2429ZM297.729 90.8125C296.46 90.8125 295.542 90.2457 295.542 89.1392C295.542 87.9247 296.649 87.5469 297.89 87.3849C298.565 87.304 300.373 87.1151 300.643 86.7912V88.2486C300.643 89.544 299.618 90.8125 297.729 90.8125ZM305.142 92H306.734V81.6364H305.142V92ZM305.952 79.9091C306.572 79.9091 307.085 79.4233 307.085 78.8295C307.085 78.2358 306.572 77.75 305.952 77.75C305.331 77.75 304.818 78.2358 304.818 78.8295C304.818 79.4233 305.331 79.9091 305.952 79.9091ZM316.992 83.9574C316.492 82.4865 315.372 81.5014 313.321 81.5014C311.135 81.5014 309.516 82.7429 309.516 84.4972C309.516 85.9276 310.366 86.8857 312.269 87.331L313.996 87.7358C315.042 87.9787 315.534 88.478 315.534 89.1932C315.534 90.0838 314.59 90.8125 313.105 90.8125C311.803 90.8125 310.987 90.2525 310.703 89.1392L309.192 89.517C309.563 91.2781 311.014 92.2159 313.132 92.2159C315.541 92.2159 317.181 90.9002 317.181 89.1122C317.181 87.6683 316.276 86.7575 314.428 86.3054L312.889 85.9276C311.661 85.6239 311.108 85.2124 311.108 84.4162C311.108 83.5256 312.053 82.8778 313.321 82.8778C314.711 82.8778 315.285 83.647 315.561 84.3622L316.992 83.9574ZM9.93182 111.636H8.20455L5.34375 119.895H5.2358L2.375 111.636H0.647727L4.48011 122H6.09943L9.93182 111.636ZM16.0076 122.216C18.1127 122.216 19.6511 121.163 20.1369 119.598L18.5985 119.166C18.1937 120.246 17.2559 120.786 16.0076 120.786C14.1387 120.786 12.85 119.578 12.7757 117.358H20.2988V116.683C20.2988 112.824 18.0048 111.501 15.8457 111.501C13.0389 111.501 11.1767 113.714 11.1767 116.899C11.1767 120.084 13.0119 122.216 16.0076 122.216ZM12.7757 115.982C12.8837 114.369 14.024 112.932 15.8457 112.932C17.573 112.932 18.6795 114.227 18.6795 115.982H12.7757ZM30.062 113.957C29.5627 112.487 28.4426 111.501 26.3915 111.501C24.2054 111.501 22.5861 112.743 22.5861 114.497C22.5861 115.928 23.4363 116.886 25.339 117.331L27.0662 117.736C28.112 117.979 28.6046 118.478 28.6046 119.193C28.6046 120.084 27.66 120.812 26.1756 120.812C24.8734 120.812 24.057 120.252 23.7736 119.139L22.2623 119.517C22.6333 121.278 24.084 122.216 26.2026 122.216C28.6113 122.216 30.2509 120.9 30.2509 119.112C30.2509 117.668 29.3468 116.757 27.498 116.305L25.9597 115.928C24.7317 115.624 24.1784 115.212 24.1784 114.416C24.1784 113.526 25.123 112.878 26.3915 112.878C27.7814 112.878 28.3549 113.647 28.6316 114.362L30.062 113.957ZM37.1549 111.636H34.9419V109.153H33.3495V111.636H31.7842V112.986H33.3495V119.463C33.3495 121.271 34.8069 122.135 36.1563 122.135C36.7501 122.135 37.1279 122.027 37.3438 121.946L37.02 120.516C36.885 120.543 36.6691 120.597 36.3183 120.597C35.6166 120.597 34.9419 120.381 34.9419 119.031V112.986H37.1549V111.636ZM39.5502 122H41.1425V111.636H39.5502V122ZM40.3598 109.909C40.9806 109.909 41.4933 109.423 41.4933 108.83C41.4933 108.236 40.9806 107.75 40.3598 107.75C39.7391 107.75 39.2263 108.236 39.2263 108.83C39.2263 109.423 39.7391 109.909 40.3598 109.909ZM44.2749 122H45.8132V120.408H46.0021C46.353 120.974 47.0277 122.216 49.0249 122.216C51.6158 122.216 53.424 120.138 53.424 116.845C53.424 113.58 51.6158 111.501 48.9979 111.501C46.9737 111.501 46.353 112.743 46.0021 113.283H45.8672V108.182H44.2749V122ZM45.8402 116.818C45.8402 114.497 46.8658 112.932 48.8089 112.932C50.8331 112.932 51.8317 114.632 51.8317 116.818C51.8317 119.031 50.8061 120.786 48.8089 120.786C46.8928 120.786 45.8402 119.166 45.8402 116.818ZM62.391 117.763C62.391 119.706 60.9066 120.597 59.7191 120.597C58.3967 120.597 57.4521 119.625 57.4521 118.114V111.636H55.8597V118.222C55.8597 120.866 57.2631 122.135 59.2063 122.135C60.7717 122.135 61.7972 121.298 62.283 120.246H62.391V122H63.9833V111.636H62.391V117.763ZM68.4921 108.182H66.8998V122H68.4921V108.182ZM74.4583 122.243C76.2665 122.243 77.2111 121.271 77.535 120.597H77.6159V122H79.2083V115.172C79.2083 111.879 76.6983 111.501 75.3759 111.501C73.8105 111.501 72.0293 112.041 71.2196 113.93L72.731 114.47C73.0819 113.714 73.9118 112.905 75.4299 112.905C76.894 112.905 77.6159 113.681 77.6159 115.01V115.064C77.6159 115.833 76.8333 115.766 74.9441 116.009C73.0211 116.258 70.9228 116.683 70.9228 119.058C70.9228 121.082 72.4881 122.243 74.4583 122.243ZM74.7012 120.812C73.4327 120.812 72.5151 120.246 72.5151 119.139C72.5151 117.925 73.6216 117.547 74.8631 117.385C75.5378 117.304 77.3461 117.115 77.6159 116.791V118.249C77.6159 119.544 76.5904 120.812 74.7012 120.812ZM82.1146 122H83.7069V115.442C83.7069 114.038 84.8135 113.013 86.3248 113.013C86.7499 113.013 87.1885 113.094 87.2964 113.121V111.501C87.1143 111.488 86.6959 111.474 86.4598 111.474C85.2183 111.474 84.1388 112.176 83.7609 113.202H83.653V111.636H82.1146V122ZM93.2137 122.216C95.3188 122.216 96.8572 121.163 97.343 119.598L95.8046 119.166C95.3998 120.246 94.4619 120.786 93.2137 120.786C91.3447 120.786 90.056 119.578 89.9818 117.358H97.5049V116.683C97.5049 112.824 95.2108 111.501 93.0518 111.501C90.2449 111.501 88.3827 113.714 88.3827 116.899C88.3827 120.084 90.218 122.216 93.2137 122.216ZM89.9818 115.982C90.0898 114.369 91.23 112.932 93.0518 112.932C94.779 112.932 95.8856 114.227 95.8856 115.982H89.9818ZM107.268 113.957C106.769 112.487 105.649 111.501 103.598 111.501C101.411 111.501 99.7922 112.743 99.7922 114.497C99.7922 115.928 100.642 116.886 102.545 117.331L104.272 117.736C105.318 117.979 105.811 118.478 105.811 119.193C105.811 120.084 104.866 120.812 103.382 120.812C102.079 120.812 101.263 120.252 100.98 119.139L99.4683 119.517C99.8394 121.278 101.29 122.216 103.409 122.216C105.817 122.216 107.457 120.9 107.457 119.112C107.457 117.668 106.553 116.757 104.704 116.305L103.166 115.928C101.938 115.624 101.384 115.212 101.384 114.416C101.384 113.526 102.329 112.878 103.598 112.878C104.987 112.878 105.561 113.647 105.838 114.362L107.268 113.957ZM111.959 108.182H110.124L110.259 118.114H111.824L111.959 108.182ZM111.041 122.108C111.709 122.108 112.256 121.561 112.256 120.893C112.256 120.225 111.709 119.679 111.041 119.679C110.373 119.679 109.827 120.225 109.827 120.893C109.827 121.561 110.373 122.108 111.041 122.108Z" fill="#7B7B7B"/>
<path d="M3.63281 23L4.95313 19.0547H10.9688L12.2969 23H15.3906L9.75 7H6.17188L0.539063 23H3.63281ZM5.73437 16.7266L7.89844 10.2812H8.02344L10.1875 16.7266H5.73437ZM22.2422 23.2344C25.2578 23.2344 27.1797 21.4453 27.3828 18.8984H24.6797C24.4375 20.1875 23.5078 20.9297 22.2656 20.9297C20.5 20.9297 19.3594 19.4531 19.3594 17C19.3594 14.5781 20.5234 13.125 22.2656 13.125C23.625 13.125 24.4609 14 24.6797 15.1562H27.3828C27.1875 12.5547 25.1563 10.8438 22.2266 10.8438C18.7109 10.8438 16.4922 13.3828 16.4922 17.0469C16.4922 20.6797 18.6563 23.2344 22.2422 23.2344ZM34.9395 23.2344C38.4551 23.2344 40.6895 20.7578 40.6895 17.0469C40.6895 13.3281 38.4551 10.8438 34.9395 10.8438C31.4238 10.8438 29.1895 13.3281 29.1895 17.0469C29.1895 20.7578 31.4238 23.2344 34.9395 23.2344ZM34.9551 20.9687C33.0098 20.9687 32.0566 19.2344 32.0566 17.0391C32.0566 14.8437 33.0098 13.0859 34.9551 13.0859C36.8691 13.0859 37.8223 14.8437 37.8223 17.0391C37.8223 19.2344 36.8691 20.9687 34.9551 20.9687ZM43.0898 23H45.918V15.7031C45.918 14.2266 46.9023 13.2266 48.1211 13.2266C49.3164 13.2266 50.1367 14.0312 50.1367 15.2656V23H52.9102V15.5156C52.9102 14.1641 53.7148 13.2266 55.082 13.2266C56.2227 13.2266 57.1289 13.8984 57.1289 15.3828V23H59.9648V14.9453C59.9648 12.2656 58.418 10.8438 56.2148 10.8438C54.4727 10.8438 53.1445 11.7031 52.6133 13.0391H52.4883C52.0273 11.6797 50.8633 10.8438 49.2461 10.8438C47.6367 10.8438 46.4336 11.6719 45.9336 13.0391H45.793V11H43.0898V23ZM62.834 27.5H65.6621V21.1094H65.7793C66.2246 21.9844 67.1543 23.2109 69.2168 23.2109C72.0449 23.2109 74.1621 20.9687 74.1621 17.0156C74.1621 13.0156 71.9824 10.8438 69.209 10.8438C67.0918 10.8438 66.209 12.1172 65.7793 12.9844H65.6152V11H62.834V27.5ZM65.6074 17C65.6074 14.6719 66.6074 13.1641 68.4277 13.1641C70.3105 13.1641 71.2793 14.7656 71.2793 17C71.2793 19.25 70.2949 20.8906 68.4277 20.8906C66.623 20.8906 65.6074 19.3281 65.6074 17ZM80.0371 23.2422C81.9199 23.2422 83.0449 22.3594 83.5605 21.3516H83.6543V23H86.373V14.9687C86.373 11.7969 83.7871 10.8438 81.498 10.8438C78.9746 10.8438 77.0371 11.9687 76.4121 14.1562L79.0527 14.5312C79.334 13.7109 80.1309 13.0078 81.5137 13.0078C82.8262 13.0078 83.5449 13.6797 83.5449 14.8594V14.9062C83.5449 15.7188 82.6934 15.7578 80.5762 15.9844C78.248 16.2344 76.0215 16.9297 76.0215 19.6328C76.0215 21.9922 77.748 23.2422 80.0371 23.2422ZM80.7715 21.1641C79.5918 21.1641 78.748 20.625 78.748 19.5859C78.748 18.5 79.6934 18.0469 80.959 17.8672C81.7012 17.7656 83.1855 17.5781 83.5527 17.2812V18.6953C83.5527 20.0312 82.4746 21.1641 80.7715 21.1641ZM92.0449 15.9687C92.0449 14.2344 93.0918 13.2344 94.584 13.2344C96.0449 13.2344 96.9199 14.1953 96.9199 15.7969V23H99.748V15.3594C99.7559 12.4844 98.1152 10.8438 95.6387 10.8438C93.8418 10.8438 92.6074 11.7031 92.0605 13.0391H91.9199V11H89.2168V23H92.0449V15.9687ZM105.451 15.9687C105.451 14.2344 106.529 13.2344 108.045 13.2344C109.529 13.2344 110.404 14.1797 110.404 15.7969V23H113.232V15.3594C113.232 12.4609 111.592 10.8438 109.1 10.8438C107.256 10.8438 106.084 11.6797 105.529 13.0391H105.389V7H102.623V23H105.451V15.9687ZM119.568 23.2422C121.451 23.2422 122.576 22.3594 123.092 21.3516H123.186V23H125.904V14.9687C125.904 11.7969 123.318 10.8438 121.029 10.8438C118.506 10.8438 116.568 11.9687 115.943 14.1562L118.584 14.5312C118.865 13.7109 119.662 13.0078 121.045 13.0078C122.357 13.0078 123.076 13.6797 123.076 14.8594V14.9062C123.076 15.7188 122.225 15.7578 120.107 15.9844C117.779 16.2344 115.553 16.9297 115.553 19.6328C115.553 21.9922 117.279 23.2422 119.568 23.2422ZM120.303 21.1641C119.123 21.1641 118.279 20.625 118.279 19.5859C118.279 18.5 119.225 18.0469 120.49 17.8672C121.232 17.7656 122.717 17.5781 123.084 17.2812V18.6953C123.084 20.0312 122.006 21.1641 120.303 21.1641ZM128.748 23H131.576V15.7031C131.576 14.2266 132.561 13.2266 133.779 13.2266C134.975 13.2266 135.795 14.0312 135.795 15.2656V23H138.568V15.5156C138.568 14.1641 139.373 13.2266 140.74 13.2266C141.881 13.2266 142.787 13.8984 142.787 15.3828V23H145.623V14.9453C145.623 12.2656 144.076 10.8438 141.873 10.8438C140.131 10.8438 138.803 11.7031 138.271 13.0391H138.146C137.686 11.6797 136.521 10.8438 134.904 10.8438C133.295 10.8438 132.092 11.6719 131.592 13.0391H131.451V11H128.748V23ZM153.805 23.2344C156.602 23.2344 158.523 21.8672 159.023 19.7812L156.383 19.4844C156 20.5 155.063 21.0312 153.844 21.0312C152.016 21.0312 150.805 19.8281 150.781 17.7734H159.141V16.9062C159.141 12.6953 156.609 10.8438 153.656 10.8438C150.219 10.8438 147.977 13.3672 147.977 17.0703C147.977 20.8359 150.188 23.2344 153.805 23.2344ZM150.789 15.8672C150.875 14.3359 152.008 13.0469 153.695 13.0469C155.32 13.0469 156.414 14.2344 156.43 15.8672H150.789ZM164.361 15.9687C164.361 14.2344 165.408 13.2344 166.9 13.2344C168.361 13.2344 169.236 14.1953 169.236 15.7969V23H172.064V15.3594C172.072 12.4844 170.432 10.8438 167.955 10.8438C166.158 10.8438 164.924 11.7031 164.377 13.0391H164.236V11H161.533V23H164.361V15.9687ZM180.932 11H178.564V8.125H175.736V11H174.033V13.1875H175.736V19.8594C175.721 22.1172 177.361 23.2266 179.486 23.1641C180.291 23.1406 180.846 22.9844 181.15 22.8828L180.674 20.6719C180.518 20.7109 180.197 20.7812 179.846 20.7812C179.135 20.7812 178.564 20.5312 178.564 19.3906V13.1875H180.932V11ZM188.402 23.2344C191.918 23.2344 194.152 20.7578 194.152 17.0469C194.152 13.3281 191.918 10.8438 188.402 10.8438C184.887 10.8438 182.652 13.3281 182.652 17.0469C182.652 20.7578 184.887 23.2344 188.402 23.2344ZM188.418 20.9687C186.473 20.9687 185.52 19.2344 185.52 17.0391C185.52 14.8437 186.473 13.0859 188.418 13.0859C190.332 13.0859 191.285 14.8437 191.285 17.0391C191.285 19.2344 190.332 20.9687 188.418 20.9687ZM206.463 23.2109C208.525 23.2109 209.455 21.9844 209.9 21.1094H210.072V23H212.854V7H210.018V12.9844H209.9C209.471 12.1172 208.588 10.8438 206.471 10.8438C203.697 10.8438 201.518 13.0156 201.518 17.0156C201.518 20.9687 203.635 23.2109 206.463 23.2109ZM207.252 20.8906C205.385 20.8906 204.4 19.25 204.4 17C204.4 14.7656 205.369 13.1641 207.252 13.1641C209.072 13.1641 210.072 14.6719 210.072 17C210.072 19.3281 209.057 20.8906 207.252 20.8906ZM221.18 23.2344C223.977 23.2344 225.898 21.8672 226.398 19.7812L223.758 19.4844C223.375 20.5 222.438 21.0312 221.219 21.0312C219.391 21.0312 218.18 19.8281 218.156 17.7734H226.516V16.9062C226.516 12.6953 223.984 10.8438 221.031 10.8438C217.594 10.8438 215.352 13.3672 215.352 17.0703C215.352 20.8359 217.563 23.2344 221.18 23.2344ZM218.164 15.8672C218.25 14.3359 219.383 13.0469 221.07 13.0469C222.695 13.0469 223.789 14.2344 223.805 15.8672H218.164ZM234.365 27.5H237.193V21.1094H237.311C237.756 21.9844 238.686 23.2109 240.748 23.2109C243.576 23.2109 245.693 20.9687 245.693 17.0156C245.693 13.0156 243.514 10.8438 240.74 10.8438C238.623 10.8438 237.74 12.1172 237.311 12.9844H237.146V11H234.365V27.5ZM237.139 17C237.139 14.6719 238.139 13.1641 239.959 13.1641C241.842 13.1641 242.811 14.7656 242.811 17C242.811 19.25 241.826 20.8906 239.959 20.8906C238.154 20.8906 237.139 19.3281 237.139 17ZM253.428 23.2344C256.225 23.2344 258.146 21.8672 258.646 19.7812L256.006 19.4844C255.623 20.5 254.686 21.0312 253.467 21.0312C251.639 21.0312 250.428 19.8281 250.404 17.7734H258.764V16.9062C258.764 12.6953 256.232 10.8438 253.279 10.8438C249.842 10.8438 247.6 13.3672 247.6 17.0703C247.6 20.8359 249.811 23.2344 253.428 23.2344ZM250.412 15.8672C250.498 14.3359 251.631 13.0469 253.318 13.0469C254.943 13.0469 256.037 14.2344 256.053 15.8672H250.412ZM261.156 23H263.984V15.9453C263.984 14.4219 265.133 13.3437 266.688 13.3437C267.164 13.3437 267.758 13.4297 268 13.5078V10.9062C267.742 10.8594 267.297 10.8281 266.984 10.8281C265.609 10.8281 264.461 11.6094 264.023 13H263.898V11H261.156V23ZM276.516 11H274.148V8.125H271.32V11H269.617V13.1875H271.32V19.8594C271.305 22.1172 272.945 23.2266 275.07 23.1641C275.875 23.1406 276.43 22.9844 276.734 22.8828L276.258 20.6719C276.102 20.7109 275.781 20.7812 275.43 20.7812C274.719 20.7812 274.148 20.5312 274.148 19.3906V13.1875H276.516V11ZM283.986 23.2344C287.502 23.2344 289.736 20.7578 289.736 17.0469C289.736 13.3281 287.502 10.8438 283.986 10.8438C280.471 10.8438 278.236 13.3281 278.236 17.0469C278.236 20.7578 280.471 23.2344 283.986 23.2344ZM284.002 20.9687C282.057 20.9687 281.104 19.2344 281.104 17.0391C281.104 14.8437 282.057 13.0859 284.002 13.0859C285.916 13.0859 286.869 14.8437 286.869 17.0391C286.869 19.2344 285.916 20.9687 284.002 20.9687ZM295.598 7H292.574L292.824 18.2969H295.34L295.598 7ZM294.082 23.1719C295.004 23.1719 295.793 22.4062 295.801 21.4531C295.793 20.5156 295.004 19.75 294.082 19.75C293.129 19.75 292.355 20.5156 292.363 21.4531C292.355 22.4062 293.129 23.1719 294.082 23.1719Z" fill="#252160"/>
</svg>
