<svg width="511" height="131" viewBox="0 0 511 131" fill="none" xmlns="http://www.w3.org/2000/svg">
<path d="M1.6733 62.389H3.34659V56.9913H6.36932C6.49077 56.9913 6.60547 56.9913 6.72017 56.9846L9.63494 62.389H11.5781L8.45419 56.6809C10.2152 56.0804 11.0384 54.6433 11.0384 52.8081C11.0384 50.3656 9.58097 48.5709 6.34233 48.5709H1.6733V62.389ZM3.34659 55.4799V50.0552H6.28835C8.52841 50.0552 9.39205 51.1483 9.39205 52.8081C9.39205 54.4679 8.52841 55.4799 6.31534 55.4799H3.34659ZM17.8445 62.6049C19.9497 62.6049 21.488 61.5524 21.9738 59.987L20.4355 59.5552C20.0306 60.6348 19.0928 61.1745 17.8445 61.1745C15.9756 61.1745 14.6869 59.9668 14.6127 57.747H22.1357V57.0723C22.1357 53.2129 19.8417 51.8905 17.6826 51.8905C14.8758 51.8905 13.0136 54.1035 13.0136 57.2882C13.0136 60.4728 14.8488 62.6049 17.8445 62.6049ZM14.6127 56.3706C14.7206 54.758 15.8609 53.3209 17.6826 53.3209C19.4099 53.3209 20.5164 54.6163 20.5164 56.3706H14.6127ZM31.8989 54.3464C31.3996 52.8755 30.2796 51.8905 28.2284 51.8905C26.0423 51.8905 24.423 53.1319 24.423 54.8862C24.423 56.3166 25.2732 57.2747 27.1759 57.72L28.9031 58.1248C29.949 58.3677 30.4415 58.867 30.4415 59.5822C30.4415 60.4728 29.4969 61.2015 28.0125 61.2015C26.7103 61.2015 25.8939 60.6415 25.6105 59.5282L24.0992 59.9061C24.4703 61.6671 25.9209 62.6049 28.0395 62.6049C30.4482 62.6049 32.0878 61.2893 32.0878 59.5013C32.0878 58.0574 31.1837 57.1465 29.335 56.6944L27.7966 56.3166C26.5686 56.013 26.0154 55.6014 26.0154 54.8052C26.0154 53.9146 26.96 53.2669 28.2284 53.2669C29.6183 53.2669 30.1919 54.0361 30.4685 54.7513L31.8989 54.3464ZM38.695 62.6049C41.5018 62.6049 43.391 60.4728 43.391 57.2612C43.391 54.0226 41.5018 51.8905 38.695 51.8905C35.8881 51.8905 33.9989 54.0226 33.9989 57.2612C33.9989 60.4728 35.8881 62.6049 38.695 62.6049ZM38.695 61.1745C36.5629 61.1745 35.5913 59.3393 35.5913 57.2612C35.5913 55.1831 36.5629 53.3209 38.695 53.3209C40.8271 53.3209 41.7987 55.1831 41.7987 57.2612C41.7987 59.3393 40.8271 61.1745 38.695 61.1745ZM47.414 48.5709H45.8216V62.389H47.414V48.5709ZM56.8617 58.1518C56.8617 60.095 55.3773 60.9856 54.1898 60.9856C52.8674 60.9856 51.9228 60.014 51.9228 58.5027V52.0254H50.3304V58.6106C50.3304 61.2555 51.7338 62.524 53.677 62.524C55.2424 62.524 56.2679 61.6873 56.7537 60.6348H56.8617V62.389H58.454V52.0254H56.8617V58.1518ZM66.1002 62.578C68.1041 62.3823 69.4063 61.0598 69.656 59.3663H68.0637C67.7668 60.4998 66.8222 61.1745 65.5807 61.1745C63.6915 61.1745 62.477 59.6092 62.477 57.2072C62.477 54.8592 63.7185 53.3209 65.5807 53.3209C66.9841 53.3209 67.8208 54.1845 68.0637 55.1291H69.656C69.3861 53.1859 67.7398 51.8905 65.5537 51.8905C62.7469 51.8905 60.8847 54.1035 60.8847 57.2612C60.8847 60.068 62.3421 62.1731 64.7845 62.5442L64.5551 63.6575C65.5807 63.7385 66.0125 63.9004 66.0125 64.5211C66.0125 65.1419 65.3918 65.3848 64.5551 65.3848L64.6091 66.4373C66.4713 66.4373 67.4429 65.6277 67.4429 64.4672C67.4429 63.4146 66.7412 62.9828 66.0395 62.8748L66.1002 62.578ZM75.0335 62.6319C76.8417 62.6319 77.7863 61.6603 78.1102 60.9856H78.1911V62.389H79.7835V55.5609C79.7835 52.2683 77.2735 51.8905 75.9511 51.8905C74.3857 51.8905 72.6045 52.4302 71.7948 54.3194L73.3062 54.8592C73.657 54.1035 74.4869 53.2939 76.0051 53.2939C77.4692 53.2939 78.1911 54.0698 78.1911 55.399V55.453C78.1911 56.2221 77.4085 56.1547 75.5193 56.3976C73.5963 56.6472 71.498 57.0723 71.498 59.4473C71.498 61.4714 73.0633 62.6319 75.0335 62.6319ZM75.2764 61.2015C74.0079 61.2015 73.0903 60.6348 73.0903 59.5282C73.0903 58.3138 74.1968 57.9359 75.4383 57.774C76.113 57.693 77.9213 57.5041 78.1911 57.1802V58.6376C78.1911 59.9331 77.1656 61.2015 75.2764 61.2015ZM73.9809 50.7839C73.9809 50.2172 74.3588 49.7584 74.8715 49.7584C75.8971 49.7584 76.086 50.622 77.3275 50.622C78.488 50.622 79.3786 49.7314 79.3786 48.328L78.1642 48.22C78.1642 48.7868 77.7593 49.2456 77.2465 49.2456C76.2749 49.2456 75.8161 48.3819 74.7906 48.3819C73.6301 48.3819 72.7394 49.3535 72.7394 50.7299L73.9809 50.7839ZM86.9 62.6049C89.7069 62.6049 91.5961 60.4728 91.5961 57.2612C91.5961 54.0226 89.7069 51.8905 86.9 51.8905C84.0932 51.8905 82.204 54.0226 82.204 57.2612C82.204 60.4728 84.0932 62.6049 86.9 62.6049ZM86.9 61.1745C84.7679 61.1745 83.7963 59.3393 83.7963 57.2612C83.7963 55.1831 84.7679 53.3209 86.9 53.3209C89.0321 53.3209 90.0037 55.1831 90.0037 57.2612C90.0037 59.3393 89.0321 61.1745 86.9 61.1745ZM99.3705 62.389H100.963V52.0254H99.3705V62.389ZM100.18 50.2981C100.801 50.2981 101.314 49.8123 101.314 49.2186C101.314 48.6248 100.801 48.139 100.18 48.139C99.5594 48.139 99.0466 48.6248 99.0466 49.2186C99.0466 49.8123 99.5594 50.2981 100.18 50.2981ZM105.472 56.1547C105.472 54.3464 106.592 53.3209 108.116 53.3209C109.594 53.3209 110.491 54.2857 110.491 55.9118V62.389H112.084V55.8038C112.084 53.1589 110.674 51.8905 108.575 51.8905C107.01 51.8905 106.038 52.5922 105.553 53.6447H105.418V52.0254H103.879V62.389H105.472V56.1547ZM122.334 54.3464C121.835 52.8755 120.715 51.8905 118.664 51.8905C116.478 51.8905 114.859 53.1319 114.859 54.8862C114.859 56.3166 115.709 57.2747 117.611 57.72L119.339 58.1248C120.384 58.3677 120.877 58.867 120.877 59.5822C120.877 60.4728 119.932 61.2015 118.448 61.2015C117.146 61.2015 116.329 60.6415 116.046 59.5282L114.535 59.9061C114.906 61.6671 116.356 62.6049 118.475 62.6049C120.884 62.6049 122.523 61.2893 122.523 59.5013C122.523 58.0574 121.619 57.1465 119.771 56.6944L118.232 56.3166C117.004 56.013 116.451 55.6014 116.451 54.8052C116.451 53.9146 117.396 53.2669 118.664 53.2669C120.054 53.2669 120.627 54.0361 120.904 54.7513L122.334 54.3464ZM129.427 52.0254H127.214V49.5424H125.622V52.0254H124.057V53.3748H125.622V59.8521C125.622 61.6603 127.079 62.524 128.429 62.524C129.023 62.524 129.4 62.416 129.616 62.3351L129.292 60.9047C129.157 60.9317 128.942 60.9856 128.591 60.9856C127.889 60.9856 127.214 60.7697 127.214 59.4203V53.3748H129.427V52.0254ZM134.872 62.6319C136.681 62.6319 137.625 61.6603 137.949 60.9856H138.03V62.389H139.622V55.5609C139.622 52.2683 137.112 51.8905 135.79 51.8905C134.225 51.8905 132.443 52.4302 131.634 54.3194L133.145 54.8592C133.496 54.1035 134.326 53.2939 135.844 53.2939C137.308 53.2939 138.03 54.0698 138.03 55.399V55.453C138.03 56.2221 137.247 56.1547 135.358 56.3976C133.435 56.6472 131.337 57.0723 131.337 59.4473C131.337 61.4714 132.902 62.6319 134.872 62.6319ZM135.115 61.2015C133.847 61.2015 132.929 60.6348 132.929 59.5282C132.929 58.3138 134.036 57.9359 135.277 57.774C135.952 57.693 137.76 57.5041 138.03 57.1802V58.6376C138.03 59.9331 137.004 61.2015 135.115 61.2015ZM144.121 56.1547C144.121 54.3464 145.241 53.3209 146.766 53.3209C148.244 53.3209 149.141 54.2857 149.141 55.9118V62.389H150.733V55.8038C150.733 53.1589 149.323 51.8905 147.225 51.8905C145.659 51.8905 144.688 52.5922 144.202 53.6447H144.067V52.0254H142.529V62.389H144.121V56.1547ZM158.15 52.0254H155.937V49.5424H154.345V52.0254H152.779V53.3748H154.345V59.8521C154.345 61.6603 155.802 62.524 157.151 62.524C157.745 62.524 158.123 62.416 158.339 62.3351L158.015 60.9047C157.88 60.9317 157.664 60.9856 157.313 60.9856C156.612 60.9856 155.937 60.7697 155.937 59.4203V53.3748H158.15V52.0254ZM163.595 62.6319C165.403 62.6319 166.348 61.6603 166.672 60.9856H166.753V62.389H168.345V55.5609C168.345 52.2683 165.835 51.8905 164.513 51.8905C162.947 51.8905 161.166 52.4302 160.356 54.3194L161.868 54.8592C162.219 54.1035 163.048 53.2939 164.567 53.2939C166.031 53.2939 166.753 54.0698 166.753 55.399V55.453C166.753 56.2221 165.97 56.1547 164.081 56.3976C162.158 56.6472 160.059 57.0723 160.059 59.4473C160.059 61.4714 161.625 62.6319 163.595 62.6319ZM163.838 61.2015C162.569 61.2015 161.652 60.6348 161.652 59.5282C161.652 58.3138 162.758 57.9359 164 57.774C164.675 57.693 166.483 57.5041 166.753 57.1802V58.6376C166.753 59.9331 165.727 61.2015 163.838 61.2015ZM163.217 50.7839L164.621 48.8947L166.024 50.7839H167.535V50.676L165.349 47.8692H163.892L161.706 50.676V50.7839H163.217ZM172.844 56.1547C172.844 54.3464 173.964 53.3209 175.489 53.3209C176.966 53.3209 177.864 54.2857 177.864 55.9118V62.389H179.456V55.8038C179.456 53.1589 178.046 51.8905 175.947 51.8905C174.382 51.8905 173.41 52.5922 172.925 53.6447H172.79V52.0254H171.251V62.389H172.844V56.1547ZM186.711 62.6049C188.816 62.6049 190.354 61.5524 190.84 59.987L189.302 59.5552C188.897 60.6348 187.959 61.1745 186.711 61.1745C184.842 61.1745 183.553 59.9668 183.479 57.747H191.002V57.0723C191.002 53.2129 188.708 51.8905 186.549 51.8905C183.742 51.8905 181.88 54.1035 181.88 57.2882C181.88 60.4728 183.715 62.6049 186.711 62.6049ZM183.479 56.3706C183.587 54.758 184.727 53.3209 186.549 53.3209C188.276 53.3209 189.383 54.6163 189.383 56.3706H183.479ZM196.474 62.6319C198.282 62.6319 199.227 61.6603 199.551 60.9856H199.632V62.389H201.224V55.5609C201.224 52.2683 198.714 51.8905 197.392 51.8905C195.826 51.8905 194.045 52.4302 193.235 54.3194L194.747 54.8592C195.097 54.1035 195.927 53.2939 197.445 53.2939C198.91 53.2939 199.632 54.0698 199.632 55.399V55.453C199.632 56.2221 198.849 56.1547 196.96 56.3976C195.037 56.6472 192.938 57.0723 192.938 59.4473C192.938 61.4714 194.504 62.6319 196.474 62.6319ZM196.717 61.2015C195.448 61.2015 194.531 60.6348 194.531 59.5282C194.531 58.3138 195.637 57.9359 196.879 57.774C197.553 57.693 199.362 57.5041 199.632 57.1802V58.6376C199.632 59.9331 198.606 61.2015 196.717 61.2015ZM213.387 62.6049C215.384 62.6049 216.059 61.3635 216.41 60.7967H216.599V62.389H218.137V48.5709H216.545V53.6717H216.41C216.059 53.1319 215.438 51.8905 213.414 51.8905C210.796 51.8905 208.988 53.9686 208.988 57.2342C208.988 60.5268 210.796 62.6049 213.387 62.6049ZM213.603 61.1745C211.606 61.1745 210.581 59.4203 210.581 57.2072C210.581 55.0211 211.579 53.3209 213.603 53.3209C215.546 53.3209 216.572 54.8862 216.572 57.2072C216.572 59.5552 215.519 61.1745 213.603 61.1745ZM225.62 62.6049C227.725 62.6049 229.263 61.5524 229.749 59.987L228.211 59.5552C227.806 60.6348 226.868 61.1745 225.62 61.1745C223.751 61.1745 222.462 59.9668 222.388 57.747H229.911V57.0723C229.911 53.2129 227.617 51.8905 225.458 51.8905C222.651 51.8905 220.789 54.1035 220.789 57.2882C220.789 60.4728 222.624 62.6049 225.62 62.6049ZM222.388 56.3706C222.496 54.758 223.636 53.3209 225.458 53.3209C227.185 53.3209 228.292 54.6163 228.292 56.3706H222.388ZM246.34 66.2754V52.0254H244.802V53.6717H244.613C244.262 53.1319 243.642 51.8905 241.617 51.8905C239 51.8905 237.191 53.9686 237.191 57.2342C237.191 60.5268 239 62.6049 241.59 62.6049C243.588 62.6049 244.262 61.3635 244.613 60.7967H244.748V66.2754H246.34ZM244.775 57.2072C244.775 59.5552 243.723 61.1745 241.806 61.1745C239.809 61.1745 238.784 59.4203 238.784 57.2072C238.784 55.0211 239.782 53.3209 241.806 53.3209C243.75 53.3209 244.775 54.8862 244.775 57.2072ZM255.786 58.1518C255.786 60.095 254.302 60.9856 253.115 60.9856C251.792 60.9856 250.848 60.014 250.848 58.5027V52.0254H249.255V58.6106C249.255 61.2555 250.659 62.524 252.602 62.524C254.167 62.524 255.193 61.6873 255.679 60.6348H255.786V62.389H257.379V52.0254H255.786V58.1518ZM263.345 62.6319C265.153 62.6319 266.098 61.6603 266.422 60.9856H266.503V62.389H268.095V55.5609C268.095 52.2683 265.585 51.8905 264.263 51.8905C262.697 51.8905 260.916 52.4302 260.106 54.3194L261.618 54.8592C261.969 54.1035 262.798 53.2939 264.317 53.2939C265.781 53.2939 266.503 54.0698 266.503 55.399V55.453C266.503 56.2221 265.72 56.1547 263.831 56.3976C261.908 56.6472 259.809 57.0723 259.809 59.4473C259.809 61.4714 261.375 62.6319 263.345 62.6319ZM263.588 61.2015C262.319 61.2015 261.402 60.6348 261.402 59.5282C261.402 58.3138 262.508 57.9359 263.75 57.774C264.425 57.693 266.233 57.5041 266.503 57.1802V58.6376C266.503 59.9331 265.477 61.2015 263.588 61.2015ZM272.594 48.5709H271.001V62.389H272.594V48.5709ZM284.173 66.2754V52.0254H282.635V53.6717H282.446C282.095 53.1319 281.475 51.8905 279.45 51.8905C276.833 51.8905 275.024 53.9686 275.024 57.2342C275.024 60.5268 276.833 62.6049 279.423 62.6049C281.421 62.6049 282.095 61.3635 282.446 60.7967H282.581V66.2754H284.173ZM282.608 57.2072C282.608 59.5552 281.556 61.1745 279.639 61.1745C277.642 61.1745 276.617 59.4203 276.617 57.2072C276.617 55.0211 277.615 53.3209 279.639 53.3209C281.583 53.3209 282.608 54.8862 282.608 57.2072ZM293.619 58.1518C293.619 60.095 292.135 60.9856 290.948 60.9856C289.625 60.9856 288.681 60.014 288.681 58.5027V52.0254H287.088V58.6106C287.088 61.2555 288.492 62.524 290.435 62.524C292 62.524 293.026 61.6873 293.512 60.6348H293.619V62.389H295.212V52.0254H293.619V58.1518ZM302.473 62.6049C304.579 62.6049 306.117 61.5524 306.603 59.987L305.064 59.5552C304.66 60.6348 303.722 61.1745 302.473 61.1745C300.604 61.1745 299.316 59.9668 299.242 57.747H306.765V57.0723C306.765 53.2129 304.471 51.8905 302.312 51.8905C299.505 51.8905 297.642 54.1035 297.642 57.2882C297.642 60.4728 299.478 62.6049 302.473 62.6049ZM299.242 56.3706C299.35 54.758 300.49 53.3209 302.312 53.3209C304.039 53.3209 305.145 54.6163 305.145 56.3706H299.242ZM309.187 62.389H310.779V55.8308C310.779 54.4274 311.886 53.4018 313.397 53.4018C313.822 53.4018 314.261 53.4828 314.369 53.5098V51.8905C314.187 51.877 313.768 51.8635 313.532 51.8635C312.291 51.8635 311.211 52.5652 310.833 53.5907H310.725V52.0254H309.187V62.389ZM325.945 62.6049C328.05 62.6049 329.589 61.5524 330.074 59.987L328.536 59.5552C328.131 60.6348 327.193 61.1745 325.945 61.1745C324.076 61.1745 322.787 59.9668 322.713 57.747H330.236V57.0723C330.236 53.2129 327.942 51.8905 325.783 51.8905C322.976 51.8905 321.114 54.1035 321.114 57.2882C321.114 60.4728 322.949 62.6049 325.945 62.6049ZM322.713 56.3706C322.821 54.758 323.961 53.3209 325.783 53.3209C327.51 53.3209 328.617 54.6163 328.617 56.3706H322.713ZM341.322 66.2754V52.0254H339.784V53.6717H339.595C339.244 53.1319 338.623 51.8905 336.599 51.8905C333.981 51.8905 332.173 53.9686 332.173 57.2342C332.173 60.5268 333.981 62.6049 336.572 62.6049C338.569 62.6049 339.244 61.3635 339.595 60.7967H339.73V66.2754H341.322ZM339.757 57.2072C339.757 59.5552 338.704 61.1745 336.788 61.1745C334.791 61.1745 333.765 59.4203 333.765 57.2072C333.765 55.0211 334.764 53.3209 336.788 53.3209C338.731 53.3209 339.757 54.8862 339.757 57.2072ZM350.768 58.1518C350.768 60.095 349.284 60.9856 348.096 60.9856C346.774 60.9856 345.829 60.014 345.829 58.5027V52.0254H344.237V58.6106C344.237 61.2555 345.64 62.524 347.583 62.524C349.149 62.524 350.174 61.6873 350.66 60.6348H350.768V62.389H352.36V52.0254H350.768V58.1518ZM358.326 62.6319C360.135 62.6319 361.079 61.6603 361.403 60.9856H361.484V62.389H363.076V55.5609C363.076 52.2683 360.566 51.8905 359.244 51.8905C357.679 51.8905 355.897 52.4302 355.088 54.3194L356.599 54.8592C356.95 54.1035 357.78 53.2939 359.298 53.2939C360.762 53.2939 361.484 54.0698 361.484 55.399V55.453C361.484 56.2221 360.701 56.1547 358.812 56.3976C356.889 56.6472 354.791 57.0723 354.791 59.4473C354.791 61.4714 356.356 62.6319 358.326 62.6319ZM358.569 61.2015C357.301 61.2015 356.383 60.6348 356.383 59.5282C356.383 58.3138 357.49 57.9359 358.731 57.774C359.406 57.693 361.214 57.5041 361.484 57.1802V58.6376C361.484 59.9331 360.459 61.2015 358.569 61.2015ZM370.713 62.578C372.716 62.3823 374.019 61.0598 374.268 59.3663H372.676C372.379 60.4998 371.434 61.1745 370.193 61.1745C368.304 61.1745 367.089 59.6092 367.089 57.2072C367.089 54.8592 368.331 53.3209 370.193 53.3209C371.596 53.3209 372.433 54.1845 372.676 55.1291H374.268C373.998 53.1859 372.352 51.8905 370.166 51.8905C367.359 51.8905 365.497 54.1035 365.497 57.2612C365.497 60.068 366.954 62.1731 369.397 62.5442L369.167 63.6575C370.193 63.7385 370.625 63.9004 370.625 64.5211C370.625 65.1419 370.004 65.3848 369.167 65.3848L369.221 66.4373C371.084 66.4373 372.055 65.6277 372.055 64.4672C372.055 63.4146 371.354 62.9828 370.652 62.8748L370.713 62.578ZM379.646 62.6319C381.454 62.6319 382.399 61.6603 382.722 60.9856H382.803V62.389H384.396V55.5609C384.396 52.2683 381.886 51.8905 380.563 51.8905C378.998 51.8905 377.217 52.4302 376.407 54.3194L377.919 54.8592C378.269 54.1035 379.099 53.2939 380.617 53.2939C382.081 53.2939 382.803 54.0698 382.803 55.399V55.453C382.803 56.2221 382.021 56.1547 380.132 56.3976C378.209 56.6472 376.11 57.0723 376.11 59.4473C376.11 61.4714 377.676 62.6319 379.646 62.6319ZM379.889 61.2015C378.62 61.2015 377.703 60.6348 377.703 59.5282C377.703 58.3138 378.809 57.9359 380.051 57.774C380.725 57.693 382.534 57.5041 382.803 57.1802V58.6376C382.803 59.9331 381.778 61.2015 379.889 61.2015ZM378.593 50.7839C378.593 50.2172 378.971 49.7584 379.484 49.7584C380.509 49.7584 380.698 50.622 381.94 50.622C383.1 50.622 383.991 49.7314 383.991 48.328L382.776 48.22C382.776 48.7868 382.372 49.2456 381.859 49.2456C380.887 49.2456 380.428 48.3819 379.403 48.3819C378.242 48.3819 377.352 49.3535 377.352 50.7299L378.593 50.7839ZM391.512 62.6049C394.319 62.6049 396.208 60.4728 396.208 57.2612C396.208 54.0226 394.319 51.8905 391.512 51.8905C388.706 51.8905 386.816 54.0226 386.816 57.2612C386.816 60.4728 388.706 62.6049 391.512 62.6049ZM391.512 61.1745C389.38 61.1745 388.409 59.3393 388.409 57.2612C388.409 55.1831 389.38 53.3209 391.512 53.3209C393.644 53.3209 394.616 55.1831 394.616 57.2612C394.616 59.3393 393.644 61.1745 391.512 61.1745ZM4.5071 92.6319C6.31534 92.6319 7.25994 91.6603 7.58381 90.9856H7.66477V92.389H9.2571V85.5609C9.2571 82.2683 6.74716 81.8905 5.42472 81.8905C3.85938 81.8905 2.07812 82.4302 1.26847 84.3194L2.77983 84.8592C3.13068 84.1035 3.96058 83.2939 5.47869 83.2939C6.94283 83.2939 7.66477 84.0698 7.66477 85.399V85.453C7.66477 86.2221 6.8821 86.1547 4.9929 86.3976C3.06996 86.6472 0.971591 87.0723 0.971591 89.4473C0.971591 91.4714 2.53693 92.6319 4.5071 92.6319ZM4.75 91.2015C3.48153 91.2015 2.56392 90.6348 2.56392 89.5282C2.56392 88.3138 3.67045 87.9359 4.91193 87.774C5.58665 87.693 7.39489 87.5041 7.66477 87.1802V88.6376C7.66477 89.9331 6.63921 91.2015 4.75 91.2015ZM13.7558 78.5709H12.1634V92.389H13.7558V78.5709ZM20.8555 96.4913C23.3384 96.4913 25.3356 95.3578 25.3356 92.6859V82.0254H23.7972V83.6717H23.6353C23.2844 83.1319 22.6367 81.8905 20.6126 81.8905C17.9947 81.8905 16.1864 83.9686 16.1864 87.1532C16.1864 90.3919 18.0756 92.2271 20.5856 92.2271C22.6097 92.2271 23.2575 91.0396 23.6083 90.4728H23.7433V92.578C23.7433 94.3052 22.5288 95.0879 20.8555 95.0879C18.973 95.0879 18.3118 94.0961 17.8867 93.5226L16.6183 94.4132C17.266 95.4995 18.5412 96.4913 20.8555 96.4913ZM20.8015 90.7967C18.8043 90.7967 17.7788 89.2853 17.7788 87.1263C17.7788 85.0211 18.7773 83.3209 20.8015 83.3209C22.7447 83.3209 23.7702 84.8862 23.7702 87.1263C23.7702 89.4203 22.7177 90.7967 20.8015 90.7967ZM32.5955 92.6049C34.7006 92.6049 36.239 91.5524 36.7248 89.987L35.1864 89.5552C34.7816 90.6348 33.8438 91.1745 32.5955 91.1745C30.7266 91.1745 29.4379 89.9668 29.3636 87.747H36.8867V87.0723C36.8867 83.2129 34.5927 81.8905 32.4336 81.8905C29.6268 81.8905 27.7646 84.1035 27.7646 87.2882C27.7646 90.4728 29.5998 92.6049 32.5955 92.6049ZM29.3636 86.3706C29.4716 84.758 30.6119 83.3209 32.4336 83.3209C34.1609 83.3209 35.2674 84.6163 35.2674 86.3706H29.3636ZM31.6239 80.622H33.0273L35.1325 77.4913H33.2702L31.6239 80.622ZM39.5249 92.389H41.0632V90.7967H41.2521C41.603 91.3635 42.2777 92.6049 44.2749 92.6049C46.8658 92.6049 48.674 90.5268 48.674 87.2342C48.674 83.9686 46.8658 81.8905 44.2479 81.8905C42.2237 81.8905 41.603 83.1319 41.2521 83.6717H41.1172V78.5709H39.5249V92.389ZM41.0902 87.2072C41.0902 84.8862 42.1158 83.3209 44.0589 83.3209C46.0831 83.3209 47.0817 85.0211 47.0817 87.2072C47.0817 89.4203 46.0561 91.1745 44.0589 91.1745C42.1428 91.1745 41.0902 89.5552 41.0902 87.2072ZM51.1097 92.389H52.7021V85.8308C52.7021 84.4274 53.8086 83.4018 55.32 83.4018C55.745 83.4018 56.1836 83.4828 56.2915 83.5098V81.8905C56.1094 81.877 55.6911 81.8635 55.4549 81.8635C54.2134 81.8635 53.1339 82.5652 52.756 83.5907H52.6481V82.0254H51.1097V92.389ZM58.1791 92.389H59.7714V82.0254H58.1791V92.389ZM58.9887 80.2981C59.6095 80.2981 60.1222 79.8123 60.1222 79.2186C60.1222 78.6248 59.6095 78.139 58.9887 78.139C58.368 78.139 57.8552 78.6248 57.8552 79.2186C57.8552 79.8123 58.368 80.2981 58.9887 80.2981ZM66.8981 92.6049C69.1921 92.6049 70.7035 91.2015 70.9734 89.3663H69.381C69.0842 90.4998 68.1396 91.1745 66.8981 91.1745C65.0089 91.1745 63.7944 89.6092 63.7944 87.2072C63.7944 84.8592 65.0359 83.3209 66.8981 83.3209C68.3015 83.3209 69.1381 84.1845 69.381 85.1291H70.9734C70.7035 83.1859 69.0572 81.8905 66.8711 81.8905C64.0643 81.8905 62.2021 84.1035 62.2021 87.2612C62.2021 90.3649 63.9833 92.6049 66.8981 92.6049ZM76.3509 92.6319C78.1591 92.6319 79.1037 91.6603 79.4276 90.9856H79.5085V92.389H81.1009V85.5609C81.1009 82.2683 78.5909 81.8905 77.2685 81.8905C75.7031 81.8905 73.9219 82.4302 73.1122 84.3194L74.6236 84.8592C74.9744 84.1035 75.8043 83.2939 77.3224 83.2939C78.7866 83.2939 79.5085 84.0698 79.5085 85.399V85.453C79.5085 86.2221 78.7259 86.1547 76.8366 86.3976C74.9137 86.6472 72.8153 87.0723 72.8153 89.4473C72.8153 91.4714 74.3807 92.6319 76.3509 92.6319ZM76.5938 91.2015C75.3253 91.2015 74.4077 90.6348 74.4077 89.5282C74.4077 88.3138 75.5142 87.9359 76.7557 87.774C77.4304 87.693 79.2386 87.5041 79.5085 87.1802V88.6376C79.5085 89.9331 78.483 91.2015 76.5938 91.2015ZM90.9433 86.1547C90.9433 84.3464 92.0633 83.3209 93.5882 83.3209C95.0658 83.3209 95.9632 84.2857 95.9632 85.9118V92.389H97.5555V85.8038C97.5555 83.1589 96.1453 81.8905 94.047 81.8905C92.4816 81.8905 91.51 82.5922 91.0242 83.6447H90.8893V82.0254H89.3509V92.389H90.9433V86.1547ZM103.515 92.6319C105.323 92.6319 106.268 91.6603 106.592 90.9856H106.673V92.389H108.265V85.5609C108.265 82.2683 105.755 81.8905 104.433 81.8905C102.867 81.8905 101.086 82.4302 100.276 84.3194L101.788 84.8592C102.138 84.1035 102.968 83.2939 104.487 83.2939C105.951 83.2939 106.673 84.0698 106.673 85.399V85.453C106.673 86.2221 105.89 86.1547 104.001 86.3976C102.078 86.6472 99.9794 87.0723 99.9794 89.4473C99.9794 91.4714 101.545 92.6319 103.515 92.6319ZM103.758 91.2015C102.489 91.2015 101.572 90.6348 101.572 89.5282C101.572 88.3138 102.678 87.9359 103.92 87.774C104.594 87.693 106.403 87.5041 106.673 87.1802V88.6376C106.673 89.9331 105.647 91.2015 103.758 91.2015ZM116.515 96.2754H118.107V90.7967H118.242C118.593 91.3635 119.268 92.6049 121.265 92.6049C123.856 92.6049 125.664 90.5268 125.664 87.2342C125.664 83.9686 123.856 81.8905 121.238 81.8905C119.214 81.8905 118.593 83.1319 118.242 83.6717H118.053V82.0254H116.515V96.2754ZM118.08 87.2072C118.08 84.8862 119.106 83.3209 121.049 83.3209C123.073 83.3209 124.072 85.0211 124.072 87.2072C124.072 89.4203 123.046 91.1745 121.049 91.1745C119.133 91.1745 118.08 89.5552 118.08 87.2072ZM129.685 78.5709H128.093V92.389H129.685V78.5709ZM135.652 92.6319C137.46 92.6319 138.404 91.6603 138.728 90.9856H138.809V92.389H140.402V85.5609C140.402 82.2683 137.892 81.8905 136.569 81.8905C135.004 81.8905 133.223 82.4302 132.413 84.3194L133.924 84.8592C134.275 84.1035 135.105 83.2939 136.623 83.2939C138.087 83.2939 138.809 84.0698 138.809 85.399V85.453C138.809 86.2221 138.027 86.1547 136.137 86.3976C134.214 86.6472 132.116 87.0723 132.116 89.4473C132.116 91.4714 133.681 92.6319 135.652 92.6319ZM135.895 91.2015C134.626 91.2015 133.708 90.6348 133.708 89.5282C133.708 88.3138 134.815 87.9359 136.056 87.774C136.731 87.693 138.539 87.5041 138.809 87.1802V88.6376C138.809 89.9331 137.784 91.2015 135.895 91.2015ZM147.815 82.0254H145.602V79.5424H144.01V82.0254H142.444V83.3748H144.01V89.8521C144.01 91.6603 145.467 92.524 146.816 92.524C147.41 92.524 147.788 92.416 148.004 92.3351L147.68 90.9047C147.545 90.9317 147.329 90.9856 146.978 90.9856C146.277 90.9856 145.602 90.7697 145.602 89.4203V83.3748H147.815V82.0254ZM153.26 92.6319C155.068 92.6319 156.013 91.6603 156.337 90.9856H156.418V92.389H158.01V85.5609C158.01 82.2683 155.5 81.8905 154.178 81.8905C152.612 81.8905 150.831 82.4302 150.021 84.3194L151.533 84.8592C151.884 84.1035 152.714 83.2939 154.232 83.2939C155.696 83.2939 156.418 84.0698 156.418 85.399V85.453C156.418 86.2221 155.635 86.1547 153.746 86.3976C151.823 86.6472 149.725 87.0723 149.725 89.4473C149.725 91.4714 151.29 92.6319 153.26 92.6319ZM153.503 91.2015C152.234 91.2015 151.317 90.6348 151.317 89.5282C151.317 88.3138 152.423 87.9359 153.665 87.774C154.34 87.693 156.148 87.5041 156.418 87.1802V88.6376C156.418 89.9331 155.392 91.2015 153.503 91.2015ZM165.531 82.0254H163.21V80.9728C163.21 79.9473 163.642 79.4075 164.695 79.4075C165.154 79.4075 165.423 79.5155 165.585 79.5694L166.044 78.193C165.801 78.0851 165.316 77.9231 164.533 77.9231C163.048 77.9231 161.618 78.8138 161.618 80.595V82.0254H159.945V83.3748H161.618V92.389H163.21V83.3748H165.531V82.0254ZM171.547 92.6049C174.353 92.6049 176.243 90.4728 176.243 87.2612C176.243 84.0226 174.353 81.8905 171.547 81.8905C168.74 81.8905 166.85 84.0226 166.85 87.2612C166.85 90.4728 168.74 92.6049 171.547 92.6049ZM171.547 91.1745C169.414 91.1745 168.443 89.3393 168.443 87.2612C168.443 85.1831 169.414 83.3209 171.547 83.3209C173.679 83.3209 174.65 85.1831 174.65 87.2612C174.65 89.3393 173.679 91.1745 171.547 91.1745ZM178.673 92.389H180.266V85.8308C180.266 84.4274 181.372 83.4018 182.883 83.4018C183.309 83.4018 183.747 83.4828 183.855 83.5098V81.8905C183.673 81.877 183.255 81.8635 183.018 81.8635C181.777 81.8635 180.697 82.5652 180.32 83.5907H180.212V82.0254H178.673V92.389ZM185.743 92.389H187.335V85.9118C187.335 84.3937 188.441 83.3209 189.683 83.3209C190.891 83.3209 191.734 84.1103 191.734 85.291V92.389H193.353V85.6419C193.353 84.3059 194.19 83.3209 195.647 83.3209C196.781 83.3209 197.752 83.9214 197.752 85.453V92.389H199.345V85.453C199.345 83.0172 198.036 81.8905 196.187 81.8905C194.703 81.8905 193.616 82.5719 193.083 83.6447H192.975C192.463 82.5382 191.559 81.8905 190.196 81.8905C188.846 81.8905 187.848 82.5382 187.416 83.6447H187.281V82.0254H185.743V92.389ZM205.306 92.6319C207.114 92.6319 208.059 91.6603 208.383 90.9856H208.464V92.389H210.056V85.5609C210.056 82.2683 207.546 81.8905 206.224 81.8905C204.658 81.8905 202.877 82.4302 202.067 84.3194L203.579 84.8592C203.93 84.1035 204.759 83.2939 206.278 83.2939C207.742 83.2939 208.464 84.0698 208.464 85.399V85.453C208.464 86.2221 207.681 86.1547 205.792 86.3976C203.869 86.6472 201.77 87.0723 201.77 89.4473C201.77 91.4714 203.336 92.6319 205.306 92.6319ZM205.549 91.2015C204.28 91.2015 203.363 90.6348 203.363 89.5282C203.363 88.3138 204.469 87.9359 205.711 87.774C206.385 87.693 208.194 87.5041 208.464 87.1802V88.6376C208.464 89.9331 207.438 91.2015 205.549 91.2015ZM215.337 90.4998H213.61L213.529 91.2555C213.333 93.084 212.949 94.9057 212.773 95.7626H213.988C214.312 94.845 215 92.7669 215.229 91.2285L215.337 90.4998ZM226.681 92.6319C228.489 92.6319 229.434 91.6603 229.758 90.9856H229.839V92.389H231.431V85.5609C231.431 82.2683 228.921 81.8905 227.599 81.8905C226.033 81.8905 224.252 82.4302 223.442 84.3194L224.954 84.8592C225.305 84.1035 226.134 83.2939 227.653 83.2939C229.117 83.2939 229.839 84.0698 229.839 85.399V85.453C229.839 86.2221 229.056 86.1547 227.167 86.3976C225.244 86.6472 223.145 87.0723 223.145 89.4473C223.145 91.4714 224.711 92.6319 226.681 92.6319ZM226.924 91.2015C225.655 91.2015 224.738 90.6348 224.738 89.5282C224.738 88.3138 225.844 87.9359 227.086 87.774C227.76 87.693 229.569 87.5041 229.839 87.1802V88.6376C229.839 89.9331 228.813 91.2015 226.924 91.2015ZM235.93 78.5709H234.337V92.389H235.93V78.5709ZM243.191 92.6049C245.296 92.6049 246.835 91.5524 247.32 89.987L245.782 89.5552C245.377 90.6348 244.439 91.1745 243.191 91.1745C241.322 91.1745 240.034 89.9668 239.959 87.747H247.482V87.0723C247.482 83.2129 245.188 81.8905 243.029 81.8905C240.222 81.8905 238.36 84.1035 238.36 87.2882C238.36 90.4728 240.195 92.6049 243.191 92.6049ZM239.959 86.3706C240.067 84.758 241.208 83.3209 243.029 83.3209C244.757 83.3209 245.863 84.6163 245.863 86.3706H239.959ZM242.22 80.622H243.623L245.728 77.4913H243.866L242.22 80.622ZM249.905 92.389H251.497V85.9118C251.497 84.3937 252.604 83.3209 253.845 83.3209C255.053 83.3209 255.896 84.1103 255.896 85.291V92.389H257.515V85.6419C257.515 84.3059 258.352 83.3209 259.809 83.3209C260.943 83.3209 261.915 83.9214 261.915 85.453V92.389H263.507V85.453C263.507 83.0172 262.198 81.8905 260.349 81.8905C258.865 81.8905 257.779 82.5719 257.246 83.6447H257.138C256.625 82.5382 255.721 81.8905 254.358 81.8905C253.008 81.8905 252.01 82.5382 251.578 83.6447H251.443V82.0254H249.905V92.389ZM275.675 92.6049C277.673 92.6049 278.347 91.3635 278.698 90.7967H278.887V92.389H280.425V78.5709H278.833V83.6717H278.698C278.347 83.1319 277.727 81.8905 275.702 81.8905C273.085 81.8905 271.276 83.9686 271.276 87.2342C271.276 90.5268 273.085 92.6049 275.675 92.6049ZM275.891 91.1745C273.894 91.1745 272.869 89.4203 272.869 87.2072C272.869 85.0211 273.867 83.3209 275.891 83.3209C277.835 83.3209 278.86 84.8862 278.86 87.2072C278.86 89.5552 277.808 91.1745 275.891 91.1745ZM287.908 92.6049C290.013 92.6049 291.551 91.5524 292.037 89.987L290.499 89.5552C290.094 90.6348 289.156 91.1745 287.908 91.1745C286.039 91.1745 284.75 89.9668 284.676 87.747H292.199V87.0723C292.199 83.2129 289.905 81.8905 287.746 81.8905C284.939 81.8905 283.077 84.1035 283.077 87.2882C283.077 90.4728 284.912 92.6049 287.908 92.6049ZM284.676 86.3706C284.784 84.758 285.924 83.3209 287.746 83.3209C289.473 83.3209 290.58 84.6163 290.58 86.3706H284.676ZM308.44 82.0254H306.712L303.852 90.2839H303.744L300.883 82.0254H299.156L302.988 92.389H304.607L308.44 82.0254ZM310.541 92.389H312.134V82.0254H310.541V92.389ZM310.622 80.622H312.026L314.131 77.4913H312.269L310.622 80.622ZM318.964 92.6049C320.961 92.6049 321.635 91.3635 321.986 90.7967H322.175V92.389H323.714V78.5709H322.121V83.6717H321.986C321.635 83.1319 321.015 81.8905 318.991 81.8905C316.373 81.8905 314.564 83.9686 314.564 87.2342C314.564 90.5268 316.373 92.6049 318.964 92.6049ZM319.179 91.1745C317.182 91.1745 316.157 89.4203 316.157 87.2072C316.157 85.0211 317.155 83.3209 319.179 83.3209C321.123 83.3209 322.148 84.8862 322.148 87.2072C322.148 89.5552 321.096 91.1745 319.179 91.1745ZM331.196 92.6049C333.301 92.6049 334.84 91.5524 335.325 89.987L333.787 89.5552C333.382 90.6348 332.444 91.1745 331.196 91.1745C329.327 91.1745 328.038 89.9668 327.964 87.747H335.487V87.0723C335.487 83.2129 333.193 81.8905 331.034 81.8905C328.227 81.8905 326.365 84.1035 326.365 87.2882C326.365 90.4728 328.2 92.6049 331.196 92.6049ZM327.964 86.3706C328.072 84.758 329.212 83.3209 331.034 83.3209C332.761 83.3209 333.868 84.6163 333.868 86.3706H327.964ZM342.12 92.6049C344.927 92.6049 346.816 90.4728 346.816 87.2612C346.816 84.0226 344.927 81.8905 342.12 81.8905C339.313 81.8905 337.424 84.0226 337.424 87.2612C337.424 90.4728 339.313 92.6049 342.12 92.6049ZM342.12 91.1745C339.988 91.1745 339.016 89.3393 339.016 87.2612C339.016 85.1831 339.988 83.3209 342.12 83.3209C344.252 83.3209 345.223 85.1831 345.223 87.2612C345.223 89.3393 344.252 91.1745 342.12 91.1745ZM356.587 84.3464C356.088 82.8755 354.968 81.8905 352.917 81.8905C350.731 81.8905 349.112 83.1319 349.112 84.8862C349.112 86.3166 349.962 87.2747 351.864 87.72L353.592 88.1248C354.637 88.3677 355.13 88.867 355.13 89.5822C355.13 90.4728 354.185 91.2015 352.701 91.2015C351.399 91.2015 350.582 90.6415 350.299 89.5282L348.788 89.9061C349.159 91.6671 350.609 92.6049 352.728 92.6049C355.137 92.6049 356.776 91.2893 356.776 89.5013C356.776 88.0574 355.872 87.1465 354.023 86.6944L352.485 86.3166C351.257 86.013 350.704 85.6014 350.704 84.8052C350.704 83.9146 351.648 83.2669 352.917 83.2669C354.307 83.2669 354.88 84.0361 355.157 84.7513L356.587 84.3464ZM361.548 90.4998H359.821L359.74 91.2555C359.544 93.084 359.16 94.9057 358.984 95.7626H360.199C360.523 94.845 361.211 92.7669 361.44 91.2285L361.548 90.4998ZM372.892 92.6319C374.7 92.6319 375.645 91.6603 375.969 90.9856H376.05V92.389H377.642V85.5609C377.642 82.2683 375.132 81.8905 373.809 81.8905C372.244 81.8905 370.463 82.4302 369.653 84.3194L371.165 84.8592C371.515 84.1035 372.345 83.2939 373.863 83.2939C375.328 83.2939 376.05 84.0698 376.05 85.399V85.453C376.05 86.2221 375.267 86.1547 373.378 86.3976C371.455 86.6472 369.356 87.0723 369.356 89.4473C369.356 91.4714 370.922 92.6319 372.892 92.6319ZM373.135 91.2015C371.866 91.2015 370.949 90.6348 370.949 89.5282C370.949 88.3138 372.055 87.9359 373.297 87.774C373.971 87.693 375.78 87.5041 376.05 87.1802V88.6376C376.05 89.9331 375.024 91.2015 373.135 91.2015ZM380.548 96.2754H382.141V90.7967H382.275C382.626 91.3635 383.301 92.6049 385.298 92.6049C387.889 92.6049 389.697 90.5268 389.697 87.2342C389.697 83.9686 387.889 81.8905 385.271 81.8905C383.247 81.8905 382.626 83.1319 382.275 83.6717H382.087V82.0254H380.548V96.2754ZM382.114 87.2072C382.114 84.8862 383.139 83.3209 385.082 83.3209C387.106 83.3209 388.105 85.0211 388.105 87.2072C388.105 89.4203 387.079 91.1745 385.082 91.1745C383.166 91.1745 382.114 89.5552 382.114 87.2072ZM396.337 92.6049C399.143 92.6049 401.033 90.4728 401.033 87.2612C401.033 84.0226 399.143 81.8905 396.337 81.8905C393.53 81.8905 391.641 84.0226 391.641 87.2612C391.641 90.4728 393.53 92.6049 396.337 92.6049ZM396.337 91.1745C394.204 91.1745 393.233 89.3393 393.233 87.2612C393.233 85.1831 394.204 83.3209 396.337 83.3209C398.469 83.3209 399.44 85.1831 399.44 87.2612C399.44 89.3393 398.469 91.1745 396.337 91.1745ZM410.804 84.3464C410.305 82.8755 409.185 81.8905 407.134 81.8905C404.948 81.8905 403.328 83.1319 403.328 84.8862C403.328 86.3166 404.178 87.2747 406.081 87.72L407.808 88.1248C408.854 88.3677 409.347 88.867 409.347 89.5822C409.347 90.4728 408.402 91.2015 406.918 91.2015C405.616 91.2015 404.799 90.6415 404.516 89.5282L403.004 89.9061C403.376 91.6671 404.826 92.6049 406.945 92.6049C409.354 92.6049 410.993 91.2893 410.993 89.5013C410.993 88.0574 410.089 87.1465 408.24 86.6944L406.702 86.3166C405.474 86.013 404.921 85.6014 404.921 84.8052C404.921 83.9146 405.865 83.2669 407.134 83.2669C408.524 83.2669 409.097 84.0361 409.374 84.7513L410.804 84.3464ZM417.897 82.0254H415.684V79.5424H414.092V82.0254H412.526V83.3748H414.092V89.8521C414.092 91.6603 415.549 92.524 416.899 92.524C417.492 92.524 417.87 92.416 418.086 92.3351L417.762 90.9047C417.627 90.9317 417.411 90.9856 417.06 90.9856C416.359 90.9856 415.684 90.7697 415.684 89.4203V83.3748H417.897V82.0254ZM420.292 92.389H421.885V82.0254H420.292V92.389ZM421.102 80.2981C421.723 80.2981 422.236 79.8123 422.236 79.2186C422.236 78.6248 421.723 78.139 421.102 78.139C420.481 78.139 419.968 78.6248 419.968 79.2186C419.968 79.8123 420.481 80.2981 421.102 80.2981ZM426.393 78.5709H424.801V92.389H426.393V78.5709ZM432.36 92.6319C434.168 92.6319 435.112 91.6603 435.436 90.9856H435.517V92.389H437.11V85.5609C437.11 82.2683 434.6 81.8905 433.277 81.8905C431.712 81.8905 429.931 82.4302 429.121 84.3194L430.632 84.8592C430.983 84.1035 431.813 83.2939 433.331 83.2939C434.795 83.2939 435.517 84.0698 435.517 85.399V85.453C435.517 86.2221 434.735 86.1547 432.845 86.3976C430.922 86.6472 428.824 87.0723 428.824 89.4473C428.824 91.4714 430.389 92.6319 432.36 92.6319ZM432.603 91.2015C431.334 91.2015 430.416 90.6348 430.416 89.5282C430.416 88.3138 431.523 87.9359 432.764 87.774C433.439 87.693 435.247 87.5041 435.517 87.1802V88.6376C435.517 89.9331 434.492 91.2015 432.603 91.2015ZM447.357 84.3464C446.858 82.8755 445.738 81.8905 443.686 81.8905C441.5 81.8905 439.881 83.1319 439.881 84.8862C439.881 86.3166 440.731 87.2747 442.634 87.72L444.361 88.1248C445.407 88.3677 445.9 88.867 445.9 89.5822C445.9 90.4728 444.955 91.2015 443.471 91.2015C442.168 91.2015 441.352 90.6415 441.069 89.5282L439.557 89.9061C439.928 91.6671 441.379 92.6049 443.498 92.6049C445.906 92.6049 447.546 91.2893 447.546 89.5013C447.546 88.0574 446.642 87.1465 444.793 86.6944L443.255 86.3166C442.027 86.013 441.473 85.6014 441.473 84.8052C441.473 83.9146 442.418 83.2669 443.686 83.2669C445.076 83.2669 445.65 84.0361 445.926 84.7513L447.357 84.3464ZM452.318 90.4998H450.59L450.509 91.2555C450.314 93.084 449.929 94.9057 449.754 95.7626H450.968C451.292 94.845 451.98 92.7669 452.21 91.2285L452.318 90.4998ZM8.7983 114.346C8.29901 112.876 7.17898 111.89 5.12784 111.89C2.94176 111.89 1.32244 113.132 1.32244 114.886C1.32244 116.317 2.17259 117.275 4.07528 117.72L5.80256 118.125C6.84837 118.368 7.34091 118.867 7.34091 119.582C7.34091 120.473 6.39631 121.202 4.91193 121.202C3.60973 121.202 2.79332 120.642 2.50994 119.528L0.99858 119.906C1.36967 121.667 2.82031 122.605 4.93892 122.605C7.34766 122.605 8.98722 121.289 8.98722 119.501C8.98722 118.057 8.0831 117.146 6.23438 116.694L4.69602 116.317C3.46804 116.013 2.91477 115.601 2.91477 114.805C2.91477 113.915 3.85938 113.267 5.12784 113.267C6.51776 113.267 7.09126 114.036 7.3679 114.751L8.7983 114.346ZM11.3841 122.389H12.9765V112.025H11.3841V122.389ZM12.1938 110.298C12.8145 110.298 13.3273 109.812 13.3273 109.219C13.3273 108.625 12.8145 108.139 12.1938 108.139C11.5731 108.139 11.0603 108.625 11.0603 109.219C11.0603 109.812 11.5731 110.298 12.1938 110.298ZM15.8929 122.389H17.4853V115.912C17.4853 114.394 18.5918 113.321 19.8333 113.321C21.041 113.321 21.8844 114.11 21.8844 115.291V122.389H23.5037V115.642C23.5037 114.306 24.3404 113.321 25.7978 113.321C26.9313 113.321 27.9029 113.921 27.9029 115.453V122.389H29.4952V115.453C29.4952 113.017 28.1863 111.89 26.3375 111.89C24.8532 111.89 23.7669 112.572 23.2338 113.645H23.1259C22.6131 112.538 21.709 111.89 20.3461 111.89C18.9966 111.89 17.998 112.538 17.5662 113.645H17.4313V112.025H15.8929V122.389ZM38.9379 118.152C38.9379 120.095 37.4535 120.986 36.266 120.986C34.9435 120.986 33.9989 120.014 33.9989 118.503V112.025H32.4066V118.611C32.4066 121.256 33.81 122.524 35.7532 122.524C37.3185 122.524 38.3441 121.687 38.8299 120.635H38.9379V122.389H40.5302V112.025H38.9379V118.152ZM45.039 108.571H43.4466V122.389H45.039V108.571ZM51.0051 122.632C52.8134 122.632 53.758 121.66 54.0819 120.986H54.1628V122.389H55.7551V115.561C55.7551 112.268 53.2452 111.89 51.9228 111.89C50.3574 111.89 48.5762 112.43 47.7665 114.319L49.2779 114.859C49.6287 114.104 50.4586 113.294 51.9767 113.294C53.4409 113.294 54.1628 114.07 54.1628 115.399V115.453C54.1628 116.222 53.3801 116.155 51.4909 116.398C49.568 116.647 47.4696 117.072 47.4696 119.447C47.4696 121.471 49.035 122.632 51.0051 122.632ZM51.248 121.202C49.9796 121.202 49.062 120.635 49.062 119.528C49.062 118.314 50.1685 117.936 51.41 117.774C52.0847 117.693 53.8929 117.504 54.1628 117.18V118.638C54.1628 119.933 53.1373 121.202 51.248 121.202ZM62.5748 122.605C64.572 122.605 65.2467 121.363 65.5976 120.797H65.7865V122.389H67.3248V108.571H65.7325V113.672H65.5976C65.2467 113.132 64.626 111.89 62.6018 111.89C59.9839 111.89 58.1757 113.969 58.1757 117.234C58.1757 120.527 59.9839 122.605 62.5748 122.605ZM62.7907 121.175C60.7936 121.175 59.768 119.42 59.768 117.207C59.768 115.021 60.7666 113.321 62.7907 113.321C64.7339 113.321 65.7595 114.886 65.7595 117.207C65.7595 119.555 64.7069 121.175 62.7907 121.175ZM74.6725 122.605C77.4793 122.605 79.3685 120.473 79.3685 117.261C79.3685 114.023 77.4793 111.89 74.6725 111.89C71.8657 111.89 69.9765 114.023 69.9765 117.261C69.9765 120.473 71.8657 122.605 74.6725 122.605ZM74.6725 121.175C72.5404 121.175 71.5688 119.339 71.5688 117.261C71.5688 115.183 72.5404 113.321 74.6725 113.321C76.8046 113.321 77.7762 115.183 77.7762 117.261C77.7762 119.339 76.8046 121.175 74.6725 121.175ZM89.1401 114.346C88.6408 112.876 87.5208 111.89 85.4696 111.89C83.2836 111.89 81.6642 113.132 81.6642 114.886C81.6642 116.317 82.5144 117.275 84.4171 117.72L86.1444 118.125C87.1902 118.368 87.6827 118.867 87.6827 119.582C87.6827 120.473 86.7381 121.202 85.2537 121.202C83.9515 121.202 83.1351 120.642 82.8517 119.528L81.3404 119.906C81.7115 121.667 83.1621 122.605 85.2807 122.605C87.6895 122.605 89.329 121.289 89.329 119.501C89.329 118.057 88.4249 117.146 86.5762 116.694L85.0378 116.317C83.8098 116.013 83.2566 115.601 83.2566 114.805C83.2566 113.915 84.2012 113.267 85.4696 113.267C86.8596 113.267 87.4331 114.036 87.7097 114.751L89.1401 114.346ZM101.415 122.605C103.52 122.605 105.058 121.552 105.544 119.987L104.006 119.555C103.601 120.635 102.663 121.175 101.415 121.175C99.5459 121.175 98.2572 119.967 98.183 117.747H105.706V117.072C105.706 113.213 103.412 111.89 101.253 111.89C98.4461 111.89 96.5839 114.104 96.5839 117.288C96.5839 120.473 98.4191 122.605 101.415 122.605ZM98.183 116.371C98.2909 114.758 99.4312 113.321 101.253 113.321C102.98 113.321 104.087 114.616 104.087 116.371H98.183ZM117.682 122.605C119.976 122.605 121.488 121.202 121.758 119.366H120.165C119.868 120.5 118.924 121.175 117.682 121.175C115.793 121.175 114.579 119.609 114.579 117.207C114.579 114.859 115.82 113.321 117.682 113.321C119.086 113.321 119.922 114.184 120.165 115.129H121.758C121.488 113.186 119.841 111.89 117.655 111.89C114.848 111.89 112.986 114.104 112.986 117.261C112.986 120.365 114.767 122.605 117.682 122.605ZM128.43 122.605C130.536 122.605 132.074 121.552 132.56 119.987L131.021 119.555C130.617 120.635 129.679 121.175 128.43 121.175C126.562 121.175 125.273 119.967 125.199 117.747H132.722V117.072C132.722 113.213 130.428 111.89 128.269 111.89C125.462 111.89 123.6 114.104 123.6 117.288C123.6 120.473 125.435 122.605 128.43 122.605ZM125.199 116.371C125.307 114.758 126.447 113.321 128.269 113.321C129.996 113.321 131.102 114.616 131.102 116.371H125.199ZM136.736 116.155C136.736 114.346 137.856 113.321 139.381 113.321C140.859 113.321 141.756 114.286 141.756 115.912V122.389H143.348V115.804C143.348 113.159 141.938 111.89 139.84 111.89C138.275 111.89 137.303 112.592 136.817 113.645H136.682V112.025H135.144V122.389H136.736V116.155ZM150.765 112.025H148.552V109.542H146.96V112.025H145.395V113.375H146.96V119.852C146.96 121.66 148.417 122.524 149.767 122.524C150.36 122.524 150.738 122.416 150.954 122.335L150.63 120.905C150.495 120.932 150.279 120.986 149.929 120.986C149.227 120.986 148.552 120.77 148.552 119.42V113.375H150.765V112.025ZM153.161 122.389H154.753V115.831C154.753 114.427 155.859 113.402 157.371 113.402C157.796 113.402 158.234 113.483 158.342 113.51V111.89C158.16 111.877 157.742 111.863 157.506 111.863C156.264 111.863 155.185 112.565 154.807 113.591H154.699V112.025H153.161V122.389ZM163.28 122.632C165.088 122.632 166.032 121.66 166.356 120.986H166.437V122.389H168.03V115.561C168.03 112.268 165.52 111.89 164.197 111.89C162.632 111.89 160.851 112.43 160.041 114.319L161.552 114.859C161.903 114.104 162.733 113.294 164.251 113.294C165.715 113.294 166.437 114.07 166.437 115.399V115.453C166.437 116.222 165.655 116.155 163.765 116.398C161.842 116.647 159.744 117.072 159.744 119.447C159.744 121.471 161.309 122.632 163.28 122.632ZM163.522 121.202C162.254 121.202 161.336 120.635 161.336 119.528C161.336 118.314 162.443 117.936 163.684 117.774C164.359 117.693 166.167 117.504 166.437 117.18V118.638C166.437 119.933 165.412 121.202 163.522 121.202ZM172.528 108.571H170.936V122.389H172.528V108.571ZM184.702 122.605C186.699 122.605 187.374 121.363 187.725 120.797H187.913V122.389H189.452V108.571H187.859V113.672H187.725C187.374 113.132 186.753 111.89 184.729 111.89C182.111 111.89 180.303 113.969 180.303 117.234C180.303 120.527 182.111 122.605 184.702 122.605ZM184.918 121.175C182.921 121.175 181.895 119.42 181.895 117.207C181.895 115.021 182.894 113.321 184.918 113.321C186.861 113.321 187.886 114.886 187.886 117.207C187.886 119.555 186.834 121.175 184.918 121.175ZM196.934 122.605C199.04 122.605 200.578 121.552 201.064 119.987L199.525 119.555C199.12 120.635 198.183 121.175 196.934 121.175C195.065 121.175 193.777 119.967 193.703 117.747H201.226V117.072C201.226 113.213 198.932 111.89 196.772 111.89C193.966 111.89 192.103 114.104 192.103 117.288C192.103 120.473 193.939 122.605 196.934 122.605ZM193.703 116.371C193.81 114.758 194.951 113.321 196.772 113.321C198.5 113.321 199.606 114.616 199.606 116.371H193.703ZM212.905 122.605C214.902 122.605 215.577 121.363 215.928 120.797H216.117V122.389H217.655V108.571H216.063V113.672H215.928C215.577 113.132 214.956 111.89 212.932 111.89C210.314 111.89 208.506 113.969 208.506 117.234C208.506 120.527 210.314 122.605 212.905 122.605ZM213.121 121.175C211.124 121.175 210.098 119.42 210.098 117.207C210.098 115.021 211.097 113.321 213.121 113.321C215.064 113.321 216.09 114.886 216.09 117.207C216.09 119.555 215.037 121.175 213.121 121.175ZM227.324 118.152C227.324 120.095 225.839 120.986 224.652 120.986C223.329 120.986 222.385 120.014 222.385 118.503V112.025H220.792V118.611C220.792 121.256 222.196 122.524 224.139 122.524C225.704 122.524 226.73 121.687 227.216 120.635H227.324V122.389H228.916V112.025H227.324V118.152ZM224.139 110.622H225.542L227.647 107.491H225.785L224.139 110.622ZM240.307 112.025H238.58L235.719 120.284H235.611L232.75 112.025H231.023L234.855 122.389H236.474L240.307 112.025ZM242.409 122.389H244.001V112.025H242.409V122.389ZM243.218 110.298C243.839 110.298 244.352 109.812 244.352 109.219C244.352 108.625 243.839 108.139 243.218 108.139C242.597 108.139 242.085 108.625 242.085 109.219C242.085 109.812 242.597 110.298 243.218 110.298ZM250.831 122.605C252.828 122.605 253.503 121.363 253.853 120.797H254.042V122.389H255.581V108.571H253.988V113.672H253.853C253.503 113.132 252.882 111.89 250.858 111.89C248.24 111.89 246.432 113.969 246.432 117.234C246.432 120.527 248.24 122.605 250.831 122.605ZM251.047 121.175C249.049 121.175 248.024 119.42 248.024 117.207C248.024 115.021 249.022 113.321 251.047 113.321C252.99 113.321 254.015 114.886 254.015 117.207C254.015 119.555 252.963 121.175 251.047 121.175ZM261.768 122.632C263.576 122.632 264.521 121.66 264.845 120.986H264.926V122.389H266.518V115.561C266.518 112.268 264.008 111.89 262.685 111.89C261.12 111.89 259.339 112.43 258.529 114.319L260.041 114.859C260.391 114.104 261.221 113.294 262.739 113.294C264.204 113.294 264.926 114.07 264.926 115.399V115.453C264.926 116.222 264.143 116.155 262.254 116.398C260.331 116.647 258.232 117.072 258.232 119.447C258.232 121.471 259.798 122.632 261.768 122.632ZM262.011 121.202C260.742 121.202 259.825 120.635 259.825 119.528C259.825 118.314 260.931 117.936 262.173 117.774C262.847 117.693 264.656 117.504 264.926 117.18V118.638C264.926 119.933 263.9 121.202 262.011 121.202ZM276.765 114.346C276.266 112.876 275.146 111.89 273.095 111.89C270.909 111.89 269.289 113.132 269.289 114.886C269.289 116.317 270.139 117.275 272.042 117.72L273.769 118.125C274.815 118.368 275.308 118.867 275.308 119.582C275.308 120.473 274.363 121.202 272.879 121.202C271.577 121.202 270.76 120.642 270.477 119.528L268.965 119.906C269.336 121.667 270.787 122.605 272.906 122.605C275.314 122.605 276.954 121.289 276.954 119.501C276.954 118.057 276.05 117.146 274.201 116.694L272.663 116.317C271.435 116.013 270.882 115.601 270.882 114.805C270.882 113.915 271.826 113.267 273.095 113.267C274.485 113.267 275.058 114.036 275.335 114.751L276.765 114.346ZM284.668 122.389H293.385V120.905H286.962V120.797L290.065 117.477C292.44 114.933 293.142 113.746 293.142 112.214C293.142 110.082 291.415 108.382 288.986 108.382C286.564 108.382 284.722 110.028 284.722 112.457H286.314C286.314 110.885 287.333 109.839 288.932 109.839C290.43 109.839 291.577 110.757 291.577 112.214C291.577 113.49 290.828 114.434 289.229 116.182L284.668 121.175V122.389ZM295.551 119.555H302.055V122.389H303.647V119.555H305.537V118.071H303.647V108.571H301.623L295.551 118.179V119.555ZM302.055 118.071H297.359V117.963L301.947 110.703H302.055V118.071ZM309.684 116.155C309.684 114.346 310.838 113.321 312.41 113.321C313.908 113.321 314.812 114.265 314.812 115.912V122.389H316.405V115.804C316.405 113.139 314.988 111.89 312.869 111.89C311.236 111.89 310.305 112.572 309.819 113.645H309.684V108.571H308.092V122.389H309.684V116.155ZM321.423 108.571H319.588L319.723 118.503H321.288L321.423 108.571ZM320.505 122.497C321.173 122.497 321.72 121.95 321.72 121.283C321.72 120.615 321.173 120.068 320.505 120.068C319.837 120.068 319.291 120.615 319.291 121.283C319.291 121.95 319.837 122.497 320.505 122.497Z" fill="#7B7B7B"/>
<path d="M1.57814 7V23H4.35939V11.9844H4.50783L8.9297 22.9531H11.0078L15.4297 12.0078H15.5781V23H18.3594V7H14.8125L10.0625 18.5937H9.87502L5.12502 7H1.57814ZM24.8438 23.2422C26.7266 23.2422 27.8516 22.3594 28.3672 21.3516H28.461V23H31.1797V14.9687C31.1797 11.7969 28.5938 10.8438 26.3047 10.8438C23.7813 10.8438 21.8438 11.9687 21.2188 14.1562L23.8594 14.5312C24.1406 13.7109 24.9375 13.0078 26.3203 13.0078C27.6328 13.0078 28.3516 13.6797 28.3516 14.8594V14.9062C28.3516 15.7188 27.5 15.7578 25.3828 15.9844C23.0547 16.2344 20.8281 16.9297 20.8281 19.6328C20.8281 21.9922 22.5547 23.2422 24.8438 23.2422ZM25.5781 21.1641C24.3985 21.1641 23.5547 20.625 23.5547 19.5859C23.5547 18.5 24.5 18.0469 25.7656 17.8672C26.5078 17.7656 27.9922 17.5781 28.3594 17.2812V18.6953C28.3594 20.0312 27.2813 21.1641 25.5781 21.1641ZM40.0156 11H37.6485V8.125H34.8203V11H33.1172V13.1875H34.8203V19.8594C34.8047 22.1172 36.4453 23.2266 38.5703 23.1641C39.375 23.1406 39.9297 22.9844 40.2344 22.8828L39.7578 20.6719C39.6016 20.7109 39.2813 20.7812 38.9297 20.7812C38.2188 20.7812 37.6485 20.5312 37.6485 19.3906V13.1875H40.0156V11ZM47.5645 23.2344C50.3613 23.2344 52.2832 21.8672 52.7832 19.7812L50.1426 19.4844C49.7598 20.5 48.8223 21.0312 47.6035 21.0312C45.7754 21.0312 44.5645 19.8281 44.541 17.7734H52.9004V16.9062C52.9004 12.6953 50.3692 10.8438 47.416 10.8438C43.9785 10.8438 41.7363 13.3672 41.7363 17.0703C41.7363 20.8359 43.9473 23.2344 47.5645 23.2344ZM44.5488 15.8672C44.6348 14.3359 45.7676 13.0469 47.4551 13.0469C49.0801 13.0469 50.1738 14.2344 50.1895 15.8672H44.5488ZM55.293 23H58.1211V15.7031C58.1211 14.2266 59.1055 13.2266 60.3242 13.2266C61.5195 13.2266 62.3399 14.0312 62.3399 15.2656V23H65.1133V15.5156C65.1133 14.1641 65.918 13.2266 67.2852 13.2266C68.4258 13.2266 69.332 13.8984 69.332 15.3828V23H72.168V14.9453C72.168 12.2656 70.6211 10.8438 68.418 10.8438C66.6758 10.8438 65.3477 11.7031 64.8164 13.0391H64.6914C64.2305 11.6797 63.0664 10.8438 61.4492 10.8438C59.8399 10.8438 58.6367 11.6719 58.1367 13.0391H57.9961V11H55.293V23ZM78.4902 23.2422C80.3731 23.2422 81.4981 22.3594 82.0137 21.3516H82.1074V23H84.8262V14.9687C84.8262 11.7969 82.2402 10.8438 79.9512 10.8438C77.4277 10.8438 75.4902 11.9687 74.8652 14.1562L77.5059 14.5312C77.7871 13.7109 78.584 13.0078 79.9668 13.0078C81.2793 13.0078 81.9981 13.6797 81.9981 14.8594V14.9062C81.9981 15.7188 81.1465 15.7578 79.0293 15.9844C76.7012 16.2344 74.4746 16.9297 74.4746 19.6328C74.4746 21.9922 76.2012 23.2422 78.4902 23.2422ZM79.2246 21.1641C78.0449 21.1641 77.2012 20.625 77.2012 19.5859C77.2012 18.5 78.1465 18.0469 79.4121 17.8672C80.1543 17.7656 81.6387 17.5781 82.0059 17.2812V18.6953C82.0059 20.0312 80.9278 21.1641 79.2246 21.1641ZM78.9902 9.42188H81.1074L83.5059 5.85156H80.7402L78.9902 9.42188ZM93.6621 11H91.2949V8.125H88.4668V11H86.7637V13.1875H88.4668V19.8594C88.4512 22.1172 90.0918 23.2266 92.2168 23.1641C93.0215 23.1406 93.5762 22.9844 93.8809 22.8828L93.4043 20.6719C93.2481 20.7109 92.9277 20.7812 92.5762 20.7812C91.8652 20.7812 91.2949 20.5312 91.2949 19.3906V13.1875H93.6621V11ZM96.0274 23H98.8555V11H96.0274V23ZM97.4492 9.29688C98.3477 9.29688 99.082 8.60938 99.082 7.76562C99.082 6.91406 98.3477 6.22656 97.4492 6.22656C96.543 6.22656 95.8086 6.91406 95.8086 7.76562C95.8086 8.60938 96.543 9.29688 97.4492 9.29688ZM106.998 23.2344C110.014 23.2344 111.936 21.4453 112.139 18.8984H109.436C109.193 20.1875 108.264 20.9297 107.021 20.9297C105.256 20.9297 104.115 19.4531 104.115 17C104.115 14.5781 105.279 13.125 107.021 13.125C108.381 13.125 109.217 14 109.436 15.1562H112.139C111.943 12.5547 109.912 10.8438 106.982 10.8438C103.467 10.8438 101.248 13.3828 101.248 17.0469C101.248 20.6797 103.412 23.2344 106.998 23.2344ZM117.914 23.2422C119.797 23.2422 120.922 22.3594 121.438 21.3516H121.531V23H124.25V14.9687C124.25 11.7969 121.664 10.8438 119.375 10.8438C116.852 10.8438 114.914 11.9687 114.289 14.1562L116.93 14.5312C117.211 13.7109 118.008 13.0078 119.391 13.0078C120.703 13.0078 121.422 13.6797 121.422 14.8594V14.9062C121.422 15.7188 120.57 15.7578 118.453 15.9844C116.125 16.2344 113.898 16.9297 113.898 19.6328C113.898 21.9922 115.625 23.2422 117.914 23.2422ZM118.648 21.1641C117.469 21.1641 116.625 20.625 116.625 19.5859C116.625 18.5 117.57 18.0469 118.836 17.8672C119.578 17.7656 121.063 17.5781 121.43 17.2812V18.6953C121.43 20.0312 120.352 21.1641 118.648 21.1641ZM137.004 23.2109C139.066 23.2109 139.996 21.9844 140.441 21.1094H140.613V23H143.395V7H140.559V12.9844H140.441C140.012 12.1172 139.129 10.8438 137.012 10.8438C134.238 10.8438 132.059 13.0156 132.059 17.0156C132.059 20.9687 134.176 23.2109 137.004 23.2109ZM137.793 20.8906C135.926 20.8906 134.941 19.25 134.941 17C134.941 14.7656 135.91 13.1641 137.793 13.1641C139.613 13.1641 140.613 14.6719 140.613 17C140.613 19.3281 139.598 20.8906 137.793 20.8906ZM151.721 23.2344C154.518 23.2344 156.439 21.8672 156.939 19.7812L154.299 19.4844C153.916 20.5 152.979 21.0312 151.76 21.0312C149.932 21.0312 148.721 19.8281 148.697 17.7734H157.057V16.9062C157.057 12.6953 154.525 10.8438 151.572 10.8438C148.135 10.8438 145.893 13.3672 145.893 17.0703C145.893 20.8359 148.104 23.2344 151.721 23.2344ZM148.705 15.8672C148.791 14.3359 149.924 13.0469 151.611 13.0469C153.236 13.0469 154.33 14.2344 154.346 15.8672H148.705ZM172.555 17.9531C172.555 19.7812 171.25 20.6875 170 20.6875C168.641 20.6875 167.734 19.7266 167.734 18.2031V11H164.906V18.6406C164.906 21.5234 166.547 23.1563 168.906 23.1563C170.703 23.1563 171.969 22.2109 172.516 20.8672H172.641V23H175.383V11H172.555V17.9531ZM178.291 23H181.119V15.7031C181.119 14.2266 182.104 13.2266 183.322 13.2266C184.518 13.2266 185.338 14.0312 185.338 15.2656V23H188.111V15.5156C188.111 14.1641 188.916 13.2266 190.283 13.2266C191.424 13.2266 192.33 13.8984 192.33 15.3828V23H195.166V14.9453C195.166 12.2656 193.619 10.8438 191.416 10.8438C189.674 10.8438 188.346 11.7031 187.814 13.0391H187.689C187.229 11.6797 186.064 10.8438 184.447 10.8438C182.838 10.8438 181.635 11.6719 181.135 13.0391H180.994V11H178.291V23ZM203.492 11V23.6484C203.492 24.6563 203.063 25.1953 201.977 25.1953C201.836 25.1953 201.727 25.1875 201.57 25.1797V27.4844C201.773 27.5 201.945 27.5 202.148 27.5C204.797 27.5 206.32 26.2813 206.32 23.6875V11H203.492ZM204.898 9.29688C205.797 9.29688 206.531 8.60938 206.531 7.76562C206.531 6.91406 205.797 6.22656 204.898 6.22656C203.992 6.22656 203.258 6.91406 203.258 7.76562C203.258 8.60938 203.992 9.29688 204.898 9.29688ZM214.541 23.2344C217.338 23.2344 219.26 21.8672 219.76 19.7812L217.119 19.4844C216.736 20.5 215.799 21.0312 214.58 21.0312C212.752 21.0312 211.541 19.8281 211.518 17.7734H219.877V16.9062C219.877 12.6953 217.346 10.8438 214.393 10.8438C210.955 10.8438 208.713 13.3672 208.713 17.0703C208.713 20.8359 210.924 23.2344 214.541 23.2344ZM211.525 15.8672C211.611 14.3359 212.744 13.0469 214.432 13.0469C216.057 13.0469 217.15 14.2344 217.166 15.8672H211.525ZM222.27 23H225.098V11H222.27V23ZM223.691 9.29688C224.59 9.29688 225.324 8.60938 225.324 7.76562C225.324 6.91406 224.59 6.22656 223.691 6.22656C222.785 6.22656 222.051 6.91406 222.051 7.76562C222.051 8.60938 222.785 9.29688 223.691 9.29688ZM233.998 11H231.631V8.125H228.803V11H227.1V13.1875H228.803V19.8594C228.787 22.1172 230.428 23.2266 232.553 23.1641C233.357 23.1406 233.912 22.9844 234.217 22.8828L233.74 20.6719C233.584 20.7109 233.264 20.7812 232.912 20.7812C232.201 20.7812 231.631 20.5312 231.631 19.3906V13.1875H233.998V11ZM241.469 23.2344C244.984 23.2344 247.219 20.7578 247.219 17.0469C247.219 13.3281 244.984 10.8438 241.469 10.8438C237.953 10.8438 235.719 13.3281 235.719 17.0469C235.719 20.7578 237.953 23.2344 241.469 23.2344ZM241.484 20.9687C239.539 20.9687 238.586 19.2344 238.586 17.0391C238.586 14.8437 239.539 13.0859 241.484 13.0859C243.398 13.0859 244.352 14.8437 244.352 17.0391C244.352 19.2344 243.398 20.9687 241.484 20.9687ZM261.154 11H258.662V10.0547C258.662 9.11719 259.053 8.59375 260.107 8.59375C260.553 8.59375 260.928 8.69531 261.162 8.76562L261.732 6.57812C261.365 6.45312 260.561 6.25 259.584 6.25C257.498 6.25 255.834 7.44531 255.834 9.86719V11H254.061V13.1875H255.834V23H258.662V13.1875H261.154V11ZM266.414 23.2422C268.297 23.2422 269.422 22.3594 269.938 21.3516H270.031V23H272.75V14.9687C272.75 11.7969 270.164 10.8438 267.875 10.8438C265.352 10.8438 263.414 11.9687 262.789 14.1562L265.43 14.5312C265.711 13.7109 266.508 13.0078 267.891 13.0078C269.203 13.0078 269.922 13.6797 269.922 14.8594V14.9062C269.922 15.7188 269.07 15.7578 266.953 15.9844C264.625 16.2344 262.398 16.9297 262.398 19.6328C262.398 21.9922 264.125 23.2422 266.414 23.2422ZM267.148 21.1641C265.969 21.1641 265.125 20.625 265.125 19.5859C265.125 18.5 266.07 18.0469 267.336 17.8672C268.078 17.7656 269.563 17.5781 269.93 17.2812V18.6953C269.93 20.0312 268.852 21.1641 267.148 21.1641ZM266.914 9.42188H269.031L271.43 5.85156H268.664L266.914 9.42188ZM280.828 23.2344C283.844 23.2344 285.766 21.4453 285.969 18.8984H283.266C283.023 20.1875 282.094 20.9297 280.852 20.9297C279.086 20.9297 277.945 19.4531 277.945 17C277.945 14.5781 279.109 13.125 280.852 13.125C282.211 13.125 283.047 14 283.266 15.1562H285.969C285.773 12.5547 283.742 10.8438 280.813 10.8438C277.297 10.8438 275.078 13.3828 275.078 17.0469C275.078 20.6797 277.242 23.2344 280.828 23.2344ZM288.291 23H291.119V11H288.291V23ZM289.713 9.29688C290.611 9.29688 291.346 8.60938 291.346 7.76562C291.346 6.91406 290.611 6.22656 289.713 6.22656C288.807 6.22656 288.072 6.91406 288.072 7.76562C288.072 8.60938 288.807 9.29688 289.713 9.29688ZM296.855 7H294.027V23H296.855V7ZM303.225 7H300.201L300.451 18.2969H302.967L303.225 7ZM301.709 23.1719C302.631 23.1719 303.42 22.4062 303.428 21.4531C303.42 20.5156 302.631 19.75 301.709 19.75C300.756 19.75 299.982 20.5156 299.99 21.4531C299.982 22.4062 300.756 23.1719 301.709 23.1719Z" fill="#252160"/>
</svg>
